<svg width="420" height="116" viewBox="0 0 420 116" fill="none" xmlns="http://www.w3.org/2000/svg">
<path d="M413.9 80.8999H6.5V110.6H413.9V80.8999Z" fill="#0086FF"/>
<path d="M91.5 95.8C91.5 91.9 94.6 88.7 98.5 88.6H98.7C100.7 88.5 102.6 89.2 104.1 90.5L102.2 92.8C101.2 91.9 99.9 91.4 98.6 91.4C96.3 91.5 94.6 93.4 94.6 95.7C94.5 98 96.2 99.9 98.5 100.1H98.8C99.8 100.1 100.8 99.8 101.7 99.3V97.3H98.6V94.7H104.6V100.7C103 102.1 100.9 102.9 98.7 102.9C94.9 103.1 91.7 100.2 91.5 96.4V95.8Z" fill="white"/>
<path d="M108.1 88.9H114.4C115.9 88.8 117.3 89.3 118.4 90.3C119.2 91.1 119.6 92.3 119.6 93.5C119.7 95.4 118.5 97.2 116.6 97.8L120 102.7H116.5L113.5 98.3H111.1V102.7H108.1V88.9ZM114.2 95.6C115.7 95.6 116.5 94.8 116.5 93.6C116.5 92.3 115.6 91.6 114.1 91.6H111.1V95.6H114.2Z" fill="white"/>
<path d="M127.5 88.8H130.3L136.2 102.7H133L131.7 99.6H125.9L124.6 102.7H121.5L127.5 88.8ZM130.7 96.9L128.9 92.4L127.1 96.9H130.7Z" fill="white"/>
<path d="M138.9 88.8999H144.3C148.6 88.8999 151.6 91.8999 151.6 95.7999C151.6 99.6999 148.6 102.7 144.3 102.7H138.9V88.8999ZM144.2 99.8999C146.4 99.9999 148.2 98.3999 148.4 96.1999V95.7999C148.5 93.5999 146.8 91.7999 144.6 91.5999H141.9V99.8999H144.2Z" fill="white"/>
<path d="M154.5 96.7V88.8H157.5V96.6C157.5 98.8 158.6 100 160.5 100C162.4 100 163.5 98.9 163.5 96.7V88.8H166.5V96.6C166.5 100.8 164.2 102.8 160.5 102.8C156.8 102.9 154.5 100.8 154.5 96.7Z" fill="white"/>
<path d="M174.4 88.8H177.2L183.1 102.7H179.9L178.6 99.6H172.8L171.5 102.7H168.4L174.4 88.8ZM177.6 96.9L175.8 92.4L174 96.9H177.6Z" fill="white"/>
<path d="M187.1 91.6999H182.9V88.8999H194.3V91.6999H190.2V102.7H187.2V91.6999H187.1Z" fill="white"/>
<path d="M197.2 88.8999H207.6V91.5999H200.2V94.3999H206.7V97.0999H200.2V99.9999H207.7V102.7H197.2V88.8999Z" fill="white"/>
<path d="M210.8 88.8999H216.2C220.5 88.8999 223.5 91.8999 223.5 95.7999C223.5 99.6999 220.5 102.7 216.2 102.7H210.8V88.8999ZM216.2 99.8999C218.4 99.9999 220.2 98.3999 220.4 96.1999V95.7999C220.5 93.5999 218.8 91.7999 216.6 91.5999H213.9V99.8999H216.2Z" fill="white"/>
<path d="M233.1 88.8999H238.7C242 88.8999 244 90.8999 244 93.6999C244 96.8999 241.5 98.4999 238.4 98.4999H236.2V102.6H233.2V88.8999H233.1ZM238.6 95.7999C239.8 95.8999 240.8 95.0999 241 93.9999V93.7999C241 92.3999 240.1 91.6999 238.5 91.6999H236.2V95.8999L238.6 95.7999Z" fill="white"/>
<path d="M246.8 88.9H253.1C254.6 88.8 256 89.3 257.1 90.3C257.9 91.1 258.3 92.3 258.3 93.5C258.4 95.4 257.2 97.2 255.3 97.8L258.7 102.7H255.2L252.2 98.3H249.8V102.7H246.8V88.9ZM252.9 95.6C254.4 95.6 255.2 94.8 255.2 93.6C255.2 92.3 254.3 91.6 252.8 91.6H249.8V95.6H252.9Z" fill="white"/>
<path d="M260.9 95.7999C261 91.6999 264.4 88.4999 268.4 88.5999C272.3 88.6999 275.4 91.7999 275.5 95.6999C275.4 99.6999 272 102.9 268 102.8C264.2 102.8 261 99.6999 260.9 95.7999ZM272.4 95.7999C272.5 93.3999 270.7 91.4999 268.4 91.3999H268.3C266 91.3999 264.2 93.1999 264.2 95.4999V95.6999C264.1 97.9999 265.9 99.9999 268.2 99.9999H268.3C270.6 99.9999 272.4 98.1999 272.4 95.7999Z" fill="white"/>
<path d="M276.8 100.8L278.7 98.6999C279.3 99.4999 280.2 99.9999 281.2 100.1C282.3 100.1 283.1 99.3999 283.1 97.7999V88.8999H286.2V97.8999C286.3 99.2999 285.8 100.6 284.9 101.6C283.9 102.5 282.6 103 281.3 102.9C279.5 102.9 277.9 102.1 276.8 100.8Z" fill="white"/>
<path d="M289.8 88.8999H300.2V91.5999H292.8V94.3999H299.3V97.0999H292.8V99.9999H300.3V102.7H289.8V88.8999Z" fill="white"/>
<path d="M302.8 95.7999C302.7 91.8999 305.8 88.6999 309.7 88.5999H310C312 88.4999 314 89.2999 315.4 90.6999L313.5 92.8999C312.6 91.8999 311.3 91.3999 310 91.2999C307.7 91.2999 306 93.1999 306 95.4999V95.5999C305.9 97.8999 307.6 99.7999 309.8 99.8999H309.9C311.3 99.8999 312.6 99.2999 313.5 98.2999L315.4 100.3C314 101.9 311.9 102.9 309.7 102.8C305.9 102.9 302.7 99.7999 302.6 95.9999C302.8 95.9999 302.8 95.8999 302.8 95.7999Z" fill="white"/>
<path d="M321.7 91.6999H317.5V88.8999H328.9V91.6999H324.7V102.7H321.7V91.6999Z" fill="white"/>
<mask id="mask0_3657_53840" style="mask-type:luminance" maskUnits="userSpaceOnUse" x="6" y="7" width="408" height="66">
<path d="M413.4 7.80005H6.70001V72.3H413.4V7.80005Z" fill="white"/>
</mask>
<g mask="url(#mask0_3657_53840)">
<path d="M103.3 36.0002C104.9 36.0002 106.4 35.7002 107.8 35.0002C109.2 34.3001 110.4 33.3001 111.4 32.1001L115.7 36.5002C112.3 40.3001 108.3 42.2002 103.7 42.2002C101.6 42.3002 99.5 41.9002 97.6 41.2002C95.6 40.5002 93.9 39.3002 92.3 37.9002C90.8 36.5002 89.7 34.8002 88.9 32.9002C88.1 31.0002 87.8 29.0002 87.9 26.9002C87.8 24.8002 88.2 22.8002 89 20.9002C89.8 19.0002 91 17.3002 92.4 15.8002C94 14.3002 95.9 13.1002 98 12.4002C100.1 11.6002 102.3 11.3002 104.5 11.4002C106.7 11.5002 108.8 12.1002 110.8 13.0002C112.8 14.0002 114.5 15.3002 116 17.0002L111.9 21.7002C111 20.5002 109.8 19.5002 108.4 18.8002C107 18.1002 105.5 17.8002 104 17.8002C101.6 17.8002 99.3 18.6002 97.5 20.2002C96.6 21.0002 95.9 22.1002 95.4 23.2002C94.9 24.3002 94.7 25.6002 94.8 26.8002C94.7 28.0002 94.9 29.3001 95.4 30.4002C95.8 31.6002 96.5 32.6002 97.4 33.5002C98.9 35.2002 101.1 36.0002 103.3 36.0002ZM121 41.9002V12.0002H127.7V36.0002H140.5V41.9002H121ZM169.7 37.8001C166.7 40.6001 162.7 42.2002 158.5 42.2002C154.3 42.2002 150.3 40.6001 147.3 37.8001C145.8 36.4002 144.7 34.7001 143.9 32.8001C143.1 30.9002 142.7 28.9002 142.8 26.8002C142.7 24.8002 143.1 22.7002 143.9 20.8002C144.7 18.9002 145.9 17.2002 147.3 15.8002C150.3 13.0002 154.3 11.4002 158.5 11.4002C162.7 11.4002 166.7 13.0002 169.7 15.8002C171.2 17.2002 172.3 18.9002 173.1 20.8002C173.9 22.7002 174.3 24.7002 174.2 26.8002C174.3 28.8002 173.9 30.9002 173.1 32.8001C172.3 34.6001 171.2 36.3001 169.7 37.8001ZM167.4 26.8002C167.4 24.3002 166.5 21.8002 164.8 19.9002C164 19.0002 163 18.3002 161.9 17.8002C160.8 17.3002 159.6 17.1002 158.4 17.1002C157.2 17.1002 156 17.4002 154.9 17.8002C153.8 18.3002 152.8 19.0002 152 19.9002C150.3 21.8002 149.3 24.2002 149.4 26.8002C149.4 29.3002 150.3 31.8002 152 33.7002C152.8 34.6002 153.8 35.3001 154.9 35.8001C156 36.3001 157.2 36.5002 158.4 36.5002C159.6 36.5002 160.8 36.2001 161.9 35.8001C163 35.3001 164 34.6002 164.8 33.7002C165.7 32.8002 166.4 31.7002 166.8 30.5002C167.2 29.3001 167.4 28.0002 167.4 26.8002ZM187.8 34.2002C188.3 34.9002 189 35.4002 189.8 35.8001C190.6 36.2001 191.5 36.3001 192.3 36.3001C193.2 36.3001 194 36.2001 194.8 35.8001C195.6 35.4002 196.2 34.9002 196.7 34.2002C197.9 32.6002 198.4 30.6002 198.3 28.6002V12.1002H205V28.8001C205 33.1002 203.8 36.5002 201.4 38.8001C200.2 40.0002 198.7 40.9002 197.2 41.5002C195.6 42.1002 193.9 42.4002 192.3 42.3001C190.6 42.4002 188.9 42.1002 187.3 41.5002C185.7 40.9002 184.3 40.0002 183 38.8001C180.6 36.5002 179.4 33.2001 179.4 28.8001V12.1002H186.1V28.6002C186 30.6002 186.6 32.6002 187.8 34.2002ZM234.9 15.9002C237.7 18.5002 239.2 22.1002 239.2 26.8002C239.2 31.5002 237.8 35.2002 235.1 37.9002C232.4 40.6002 228 41.9002 222.4 41.9002H212V12.0002H222.6C228 12.0002 232.1 13.3002 234.9 15.9002ZM230.1 33.7002C231.7 32.2002 232.5 29.9002 232.5 26.9002C232.5 24.0002 231.7 21.7002 230.1 20.1002C228.5 18.6002 226 17.7002 222.5 17.7002H218.8V36.0002H223C225.6 36.2002 228.1 35.4002 230.1 33.7002ZM277.3 12.0002H284V41.9002H277.3L263 23.2002V41.9002H256.3V12.0002H262.6L277.3 31.2002V12.0002ZM312.7 41.9002L309.9 35.5002H297.2L294.4 41.9002H287.2L300.2 12.0002H306.7L319.6 41.9002H312.7ZM303.7 20.9002L300 29.6002H307.5L303.7 20.9002ZM333.8 17.8002V42.0002H327.2V17.8002H318.7V12.1002H342.4V17.8002H333.8ZM347.2 12.0002H353.9V41.9002H347.2V12.0002ZM372.3 31.0002L380 12.0002H387.3L375.3 41.9002H369.7L357.7 12.0002H365L372.3 31.0002ZM412.3 12.0002V17.9002H397.4V24.0002H410.8V29.7002H397.4V36.0002H412.8V42.0002H390.7V12.1002H412.3V12.0002ZM95.7 67.4002C96.6 67.4002 97.4 67.2002 98.2 66.8002C99 66.4002 99.7 65.8002 100.2 65.1002L102.6 67.6002C101.8 68.6002 100.7 69.4002 99.6 70.0002C98.4 70.6002 97.2 70.9002 95.9 70.9002C94.7 70.9002 93.6 70.8002 92.5 70.3002C91.4 69.9002 90.4 69.2002 89.6 68.4002C88.8 67.6002 88.1 66.7001 87.7 65.6002C87.3 64.5002 87.1 63.4002 87.1 62.3002C87.1 61.1002 87.3 60.0002 87.7 58.9002C88.1 57.8002 88.8 56.9002 89.6 56.0002C90.4 55.2002 91.4 54.5002 92.5 54.1002C93.6 53.7001 94.7 53.5002 95.9 53.5002C97.2 53.5002 98.5 53.7002 99.7 54.3002C100.9 54.8002 102 55.6002 102.8 56.6002L100.5 59.2002C100 58.5002 99.3 57.9002 98.6 57.5002C97.8 57.1002 97 56.9002 96.1 56.9002C94.8 56.9002 93.5 57.4002 92.5 58.3002C92 58.8002 91.6 59.4002 91.3 60.0002C91 60.6002 90.9 61.3002 91 62.0002C91 62.7002 91.1 63.4002 91.3 64.0002C91.5 64.6002 91.9 65.2001 92.4 65.7001C92.8 66.2001 93.4 66.5002 94 66.8002C94.6 67.1002 95 67.4002 95.7 67.4002ZM119.3 68.4002C117.6 70.0002 115.4 70.9002 113 70.9002C111.8 70.9002 110.7 70.7002 109.6 70.3002C108.5 69.9002 107.5 69.2002 106.7 68.4002C105.1 66.8002 104.2 64.6002 104.2 62.3002C104.2 60.0002 105.1 57.8002 106.7 56.2002C108.4 54.6002 110.6 53.7002 113 53.7002C114.2 53.7002 115.3 53.9002 116.4 54.3002C117.5 54.7002 118.5 55.4002 119.3 56.2002C120.9 57.8002 121.8 60.0002 121.8 62.3002C121.8 64.5002 120.9 66.7002 119.3 68.4002ZM118 62.2002C118 60.8002 117.5 59.4002 116.6 58.4002C116.2 57.9002 115.6 57.5002 115 57.2002C114.4 56.9002 113.7 56.8002 113.1 56.8002C112.4 56.8002 111.8 56.9002 111.1 57.2002C110.5 57.5002 109.9 57.9002 109.5 58.4002C109 58.9002 108.6 59.5002 108.4 60.2002C108.2 60.9002 108.1 61.6002 108.1 62.3002C108.1 63.7002 108.6 65.1002 109.5 66.1002C109.9 66.6002 110.5 67.0002 111.1 67.3002C111.7 67.6002 112.4 67.7001 113 67.7001C113.7 67.7001 114.3 67.6002 115 67.3002C115.6 67.0002 116.2 66.6002 116.6 66.1002C117.6 65.0002 118.1 63.6002 118 62.2002ZM140 60.1002L135.5 69.3002H133.3L128.8 60.1002V70.7001H125.1V53.9002H130.1L134.4 63.1002L138.7 53.9002H143.7V70.7001H140V60.1002ZM159.5 55.5002C160.1 56.1002 160.6 56.8002 160.9 57.6002C161.2 58.4002 161.3 59.3002 161.3 60.1002C161.3 62.2001 160.7 63.7001 159.5 64.6002C158.3 65.6002 156.5 66.0002 154 66.0002H151.8V70.6002H148.1V53.9002H154.1C156.5 54.0002 158.3 54.5002 159.5 55.5002ZM156.8 62.0002C157.3 61.4002 157.5 60.6002 157.5 59.8002C157.5 59.4002 157.5 59.0002 157.3 58.7002C157.1 58.3002 156.9 58.0002 156.6 57.8002C155.8 57.3002 154.8 57.1002 153.9 57.2002H151.8V62.8002H154.3C154.8 62.8002 155.2 62.8002 155.6 62.7002C156 62.6002 156.4 62.3002 156.8 62.0002ZM168.7 66.4002C169 66.8002 169.4 67.1002 169.8 67.3002C170.2 67.5002 170.7 67.6002 171.2 67.6002C171.7 67.6002 172.2 67.5002 172.6 67.3002C173 67.1002 173.4 66.8002 173.7 66.4002C174.4 65.5002 174.7 64.3002 174.6 63.2002V53.9002H178.3V63.3002C178.4 64.3002 178.2 65.4002 177.9 66.3002C177.6 67.3002 177 68.2002 176.3 68.9002C174.9 70.2002 173 70.8002 171.1 70.8002C169.2 70.8002 167.4 70.1002 166 68.8002C165.3 68.0002 164.8 67.2001 164.4 66.2001C164.1 65.2001 163.9 64.2002 164 63.2002V53.8002H167.7V63.0002C167.7 64.2002 168 65.4002 168.7 66.4002ZM189.3 57.2002V70.7001H185.6V57.2002H180.9V54.0002H194.2V57.2002H189.3ZM196.9 54.0002H200.6V70.8002H196.9V54.0002ZM216.5 54.0002H220.2V70.8002H216.5L208.5 60.3002V70.8002H204.8V54.0002H208.3L216.6 64.8002V54.0002H216.5ZM235.3 62.2002H239V68.1002C238.1 69.0002 237 69.8002 235.8 70.3002C234.6 70.8002 233.3 71.0002 232 71.0002C229.7 71.0002 227.4 70.2001 225.7 68.6002C224.9 67.8002 224.2 66.9002 223.8 65.8002C223.4 64.7002 223.2 63.6002 223.2 62.5002C223.2 61.4002 223.4 60.2001 223.8 59.1002C224.2 58.0002 224.9 57.1002 225.7 56.2002C226.5 55.3002 227.5 54.7002 228.5 54.3002C229.6 53.9002 230.7 53.6002 231.9 53.6002C234.2 53.6002 236.5 54.4002 238.2 56.0002L236.3 58.8002C235.7 58.2002 235 57.7002 234.2 57.5002C233.6 57.3002 232.9 57.1002 232.2 57.1002C230.9 57.1002 229.6 57.6002 228.6 58.5002C228.1 59.0002 227.7 59.6002 227.4 60.3002C227.1 61.0002 227 61.7002 227.1 62.4002C227.1 63.8002 227.6 65.2001 228.5 66.2001C228.9 66.6002 229.4 67.0001 230 67.2001C230.6 67.4002 231.2 67.6002 231.8 67.6002C232.9 67.7001 234 67.4002 235 66.9002V62.2002H235.3ZM260.2 54.0002V57.3002H252.4V60.9002H259.8V64.2001H252.4V70.7001H248.7V54.0002H260.2ZM277.6 68.4002C275.9 70.0002 273.7 70.9002 271.3 70.9002C270.1 70.9002 269 70.7002 267.9 70.3002C266.8 69.9002 265.8 69.2002 265 68.4002C263.4 66.8002 262.5 64.6002 262.5 62.3002C262.5 60.0002 263.4 57.8002 265 56.2002C266.7 54.6002 268.9 53.7002 271.3 53.7002C272.5 53.7002 273.6 53.9002 274.7 54.3002C275.8 54.7002 276.8 55.4002 277.6 56.2002C279.2 57.8002 280.1 60.0002 280.1 62.3002C280.1 64.5002 279.2 66.7002 277.6 68.4002ZM276.3 62.2002C276.3 60.8002 275.8 59.4002 274.9 58.4002C274.5 57.9002 273.9 57.5002 273.3 57.2002C272.7 56.9002 272 56.8002 271.4 56.8002C270.7 56.8002 270.1 56.9002 269.4 57.2002C268.7 57.5002 268.2 57.9002 267.8 58.4002C267.3 58.9002 266.9 59.5002 266.7 60.2002C266.5 60.9002 266.4 61.6002 266.4 62.3002C266.4 63.7002 266.9 65.1002 267.8 66.1002C268.2 66.6002 268.8 67.0002 269.4 67.3002C270 67.6002 270.7 67.7001 271.3 67.7001C272 67.7001 272.6 67.6002 273.3 67.3002C273.9 67.0002 274.5 66.6002 274.9 66.1002C275.4 65.6002 275.8 65.0002 276 64.3002C276.2 63.6002 276.3 62.9002 276.3 62.2002ZM287.8 66.4002C288.1 66.8002 288.5 67.1002 288.9 67.3002C289.3 67.5002 289.8 67.6002 290.3 67.6002C290.8 67.6002 291.3 67.5002 291.7 67.3002C292.1 67.1002 292.5 66.8002 292.8 66.4002C293.5 65.5002 293.8 64.3002 293.7 63.2002V53.9002H297.4V63.3002C297.5 64.3002 297.3 65.4002 297 66.3002C296.7 67.3002 296.1 68.2002 295.4 68.9002C294 70.2002 292.1 70.8002 290.2 70.8002C288.3 70.8002 286.5 70.1002 285.1 68.8002C284.4 68.0002 283.9 67.2001 283.5 66.2001C283.2 65.2001 283 64.2002 283.1 63.2002V53.8002H286.8V63.0002C286.7 64.2002 287 65.4002 287.8 66.4002ZM313.1 54.0002H316.8V70.8002H313.1L305.1 60.3002V70.8002H301.4V54.0002H304.9L313.2 64.8002L313.1 54.0002ZM333.8 56.2002C334.6 57.0002 335.3 58.0002 335.7 59.0002C336.1 60.1002 336.3 61.2002 336.2 62.3002C336.3 63.4002 336.1 64.6002 335.7 65.6002C335.3 66.7001 334.7 67.6002 333.9 68.4002C332.4 69.9002 330 70.7001 326.7 70.7001H321V54.0002H326.9C329.9 54.0002 332.2 54.7002 333.8 56.2002ZM331 66.2001C331.5 65.7001 331.8 65.1002 332.1 64.5002C332.3 63.9002 332.5 63.2002 332.4 62.5002C332.4 61.8002 332.3 61.1002 332.1 60.4002C331.9 59.7002 331.5 59.1002 331 58.6002C330.4 58.1002 329.7 57.7002 329 57.5002C328.3 57.3002 327.5 57.2002 326.8 57.3002H324.7V67.5002H327.1C328.5 67.5002 329.9 67.0001 331 66.2001ZM350.9 70.7001L349.4 67.1002H342.3L340.8 70.7001H336.8L344.1 53.9002H347.7L355 70.7001H350.9ZM345.9 58.9002L343.8 63.7002H348L345.9 58.9002ZM362.8 57.2002V70.7001H359.1V57.2002H354.2V54.0002H367.5V57.2002H362.8ZM370.3 54.0002H374V70.8002H370.3V54.0002ZM392.2 68.4002C390.5 70.0002 388.3 70.9002 385.9 70.9002C384.7 70.9002 383.6 70.7002 382.5 70.3002C381.4 69.9002 380.4 69.2002 379.6 68.4002C378 66.8002 377.1 64.6002 377.1 62.3002C377.1 60.0002 378 57.8002 379.6 56.2002C381.3 54.6002 383.5 53.7002 385.9 53.7002C387.1 53.7002 388.2 53.9002 389.3 54.3002C390.4 54.7002 391.4 55.4002 392.2 56.2002C393.8 57.8002 394.7 60.0002 394.7 62.3002C394.8 64.5002 393.9 66.7002 392.2 68.4002ZM391 62.2002C391 60.8002 390.5 59.4002 389.6 58.4002C389.2 57.9002 388.6 57.5002 388 57.2002C387.4 56.9002 386.7 56.8002 386.1 56.8002C385.4 56.8002 384.8 56.9002 384.1 57.2002C383.5 57.5002 382.9 57.9002 382.5 58.4002C382 58.9002 381.6 59.5002 381.4 60.2002C381.2 60.9002 381.1 61.6002 381.1 62.3002C381.1 63.7002 381.6 65.1002 382.5 66.1002C382.9 66.6002 383.5 67.0002 384.1 67.3002C384.7 67.6002 385.4 67.7001 386 67.7001C386.7 67.7001 387.3 67.6002 388 67.3002C388.6 67.0002 389.2 66.6002 389.6 66.1002C390.6 65.0002 391.1 63.6002 391 62.2002ZM409.7 54.0002H413.4V70.8002H409.7L401.7 60.3002V70.8002H398V54.0002H401.5L409.8 64.8002L409.7 54.0002Z" fill="white"/>
</g>
<path d="M15.9 50.8H6.70001V72.4001H28.2V63.1H15.9V50.8Z" fill="#0086FF"/>
<path d="M62.2 50.9001V63.1H49.8V72.4001H71.3V50.8H62L62.2 50.9001Z" fill="#0086FF"/>
<path d="M6.70001 29.2999H16L15.9 29.2V17H28.2V7.69995H6.70001V29.2999Z" fill="#0086FF"/>
<path d="M49.8 7.69995V17H62.2V29.2999H71.4V7.69995H49.8Z" fill="#0086FF"/>
<path d="M48.6 29.2999L36.3 17H49.8V7.69995H28.2V17L40.5 29.2999H48.6Z" fill="#93EAFF"/>
<path d="M37.5 50.8H29.4L39.6 61L41.6 63.1H28.2V72.4001H49.8V63L43.6 56.9001L37.5 50.8Z" fill="#93EAFF"/>
<path d="M62.2 29.3V42.7001L60.1 40.6L49.8 30.4V38.6L55.9 44.7001L62.1 50.9001H71.4V29.3H62.2Z" fill="#93EAFF"/>
<path d="M28.2 41.5L16 29.3H6.70001V50.8H15.9V37.4001L28.2 49.7001V41.5Z" fill="#93EAFF"/>
</svg>
