<svg width="254" height="146" viewBox="0 0 254 146" fill="none" xmlns="http://www.w3.org/2000/svg">
<g clip-path="url(#clip0_3715_63342)">
<path d="M156.971 33.1986V30.0777H173.367V33.1986H167.016V50.6291H163.323V33.1986H156.971Z" fill="#FF5500"/>
<path d="M180.956 50.9301C179.411 50.9301 178.077 50.609 176.953 49.9667C175.835 49.3179 174.976 48.4013 174.374 47.2172C173.772 46.0264 173.47 44.6249 173.47 43.0126C173.47 41.4271 173.772 40.0356 174.374 38.8381C174.982 37.634 175.832 36.6974 176.923 36.0284C178.013 35.3527 179.294 35.0149 180.766 35.0149C181.716 35.0149 182.613 35.1688 183.455 35.4765C184.305 35.7775 185.054 36.2458 185.703 36.8814C186.358 37.5169 186.874 38.3264 187.249 39.3098C187.623 40.2865 187.81 41.4505 187.81 42.8019V43.9157H175.177V41.4672H184.328C184.322 40.7715 184.171 40.1527 183.876 39.6108C183.582 39.0622 183.171 38.6308 182.643 38.3163C182.12 38.0019 181.512 37.8447 180.816 37.8447C180.073 37.8447 179.421 38.0253 178.86 38.3866C178.297 38.7412 177.859 39.2094 177.545 39.7914C177.237 40.3668 177.08 40.999 177.073 41.688V43.8254C177.073 44.7219 177.237 45.4912 177.565 46.1335C177.893 46.769 178.351 47.2574 178.94 47.5985C179.528 47.933 180.217 48.1003 181.007 48.1003C181.535 48.1003 182.014 48.0267 182.442 47.8795C182.87 47.7256 183.241 47.5015 183.556 47.2072C183.87 46.9128 184.107 46.5482 184.268 46.1134L187.66 46.4947C187.446 47.3911 187.038 48.1739 186.436 48.8428C185.84 49.5051 185.077 50.0202 184.148 50.3882C183.218 50.7495 182.154 50.9301 180.956 50.9301Z" fill="#FF5500"/>
<path d="M198.58 35.2156V38.0253H189.719V35.2156H198.58ZM191.907 31.5228H195.539V45.993C195.539 46.4813 195.613 46.8559 195.76 47.1169C195.914 47.3711 196.115 47.545 196.362 47.6387C196.61 47.7324 196.884 47.7792 197.185 47.7792C197.413 47.7792 197.62 47.7624 197.808 47.729C198.001 47.6956 198.149 47.6654 198.249 47.6387L198.861 50.4786C198.667 50.5454 198.389 50.619 198.028 50.6993C197.673 50.7796 197.239 50.8264 196.724 50.8398C195.814 50.8665 194.994 50.7294 194.265 50.4284C193.536 50.1206 192.957 49.6457 192.529 49.0034C192.108 48.3612 191.901 47.5584 191.907 46.5951V31.5228Z" fill="#FF5500"/>
<path d="M201.618 50.629V35.2155H205.141V37.7845H205.301C205.582 36.8947 206.064 36.209 206.746 35.7273C207.435 35.239 208.221 34.9948 209.104 34.9948C209.305 34.9948 209.529 35.0048 209.777 35.0249C210.03 35.0383 210.241 35.0617 210.408 35.0952V38.4367C210.255 38.3832 210.01 38.3364 209.676 38.2963C209.348 38.2494 209.031 38.226 208.723 38.226C208.061 38.226 207.465 38.3699 206.937 38.6575C206.415 38.9385 206.004 39.3299 205.702 39.8316C205.401 40.3333 205.251 40.912 205.251 41.5676V50.629H201.618Z" fill="#FF5500"/>
<path d="M216.981 50.9401C216.005 50.9401 215.125 50.7662 214.342 50.4183C213.566 50.0638 212.951 49.5419 212.496 48.8529C212.048 48.1638 211.824 47.3142 211.824 46.304C211.824 45.4344 211.984 44.7152 212.305 44.1466C212.627 43.5779 213.065 43.123 213.62 42.7818C214.175 42.4406 214.801 42.1831 215.497 42.0091C216.199 41.8285 216.925 41.6981 217.674 41.6178C218.577 41.5241 219.31 41.4405 219.871 41.3669C220.434 41.2866 220.842 41.1662 221.096 41.0056C221.357 40.8384 221.487 40.5809 221.487 40.2329V40.1728C221.487 39.4168 221.263 38.8315 220.815 38.4167C220.366 38.0019 219.721 37.7945 218.878 37.7945C217.988 37.7945 217.283 37.9885 216.761 38.3765C216.246 38.7645 215.898 39.2228 215.717 39.7513L212.325 39.2696C212.593 38.3331 213.035 37.5503 213.65 36.9215C214.266 36.2859 215.018 35.811 215.908 35.4965C216.798 35.1754 217.781 35.0149 218.858 35.0149C219.601 35.0149 220.34 35.1018 221.076 35.2758C221.812 35.4497 222.484 35.7374 223.093 36.1388C223.702 36.5335 224.19 37.072 224.558 37.7544C224.933 38.4367 225.12 39.2897 225.12 40.3133V50.629H221.628V48.5117H221.507C221.287 48.9398 220.975 49.3412 220.574 49.7159C220.179 50.0838 219.681 50.3815 219.079 50.609C218.483 50.8297 217.784 50.9401 216.981 50.9401ZM217.925 48.2709C218.654 48.2709 219.286 48.127 219.821 47.8394C220.356 47.545 220.768 47.157 221.056 46.6753C221.35 46.1936 221.497 45.6685 221.497 45.0999V43.2836C221.384 43.3772 221.19 43.4642 220.915 43.5444C220.648 43.6247 220.346 43.695 220.012 43.7552C219.678 43.8154 219.346 43.8689 219.018 43.9157C218.691 43.9626 218.407 44.0028 218.166 44.0362C217.624 44.1098 217.139 44.2302 216.711 44.3974C216.283 44.5647 215.945 44.7988 215.697 45.0999C215.45 45.3942 215.326 45.7755 215.326 46.2439C215.326 46.9128 215.57 47.4179 216.058 47.7591C216.547 48.1003 217.169 48.2709 217.925 48.2709Z" fill="#FF5500"/>
<path d="M236.469 35.2156V38.0253H227.608V35.2156H236.469ZM229.796 31.5228H233.429V45.993C233.429 46.4813 233.502 46.8559 233.649 47.1169C233.803 47.3711 234.004 47.545 234.251 47.6387C234.499 47.7324 234.773 47.7792 235.074 47.7792C235.302 47.7792 235.509 47.7624 235.696 47.729C235.891 47.6956 236.038 47.6654 236.138 47.6387L236.75 50.4786C236.556 50.5454 236.279 50.619 235.917 50.6993C235.563 50.7796 235.128 50.8264 234.613 50.8398C233.703 50.8665 232.884 50.7294 232.154 50.4284C231.425 50.1206 230.846 49.6457 230.418 49.0034C229.997 48.3612 229.789 47.5584 229.796 46.5951V31.5228Z" fill="#FF5500"/>
<path d="M246.165 50.9301C244.62 50.9301 243.286 50.609 242.162 49.9667C241.044 49.3179 240.185 48.4013 239.583 47.2172C238.98 46.0264 238.679 44.6249 238.679 43.0126C238.679 41.4271 238.98 40.0356 239.583 38.8381C240.191 37.634 241.041 36.6974 242.131 36.0284C243.222 35.3527 244.503 35.0149 245.975 35.0149C246.924 35.0149 247.821 35.1688 248.664 35.4765C249.513 35.7775 250.263 36.2458 250.912 36.8814C251.567 37.5169 252.083 38.3264 252.457 39.3098C252.832 40.2865 253.019 41.4505 253.019 42.8019V43.9157H240.386V41.4672H249.537C249.531 40.7715 249.38 40.1527 249.085 39.6108C248.791 39.0622 248.38 38.6308 247.851 38.3163C247.329 38.0019 246.721 37.8447 246.025 37.8447C245.282 37.8447 244.63 38.0253 244.068 38.3866C243.506 38.7412 243.068 39.2094 242.753 39.7914C242.446 40.3668 242.288 40.999 242.282 41.688V43.8254C242.282 44.7219 242.446 45.4912 242.773 46.1335C243.101 46.769 243.56 47.2574 244.149 47.5985C244.737 47.933 245.426 48.1003 246.216 48.1003C246.744 48.1003 247.222 48.0267 247.65 47.8795C248.079 47.7256 248.45 47.5015 248.764 47.2072C249.079 46.9128 249.316 46.5482 249.477 46.1134L252.869 46.4947C252.654 47.3911 252.246 48.1739 251.645 48.8428C251.049 49.5051 250.286 50.0202 249.356 50.3882C248.427 50.7495 247.363 50.9301 246.165 50.9301Z" fill="#FF5500"/>
<path d="M167.484 65.4004V85.9516H163.761V65.4004H167.484Z" fill="#FF5500"/>
<path d="M183.537 74.6125L180.226 74.9733C180.132 74.639 179.968 74.3246 179.734 74.0302C179.506 73.7359 179.199 73.4986 178.811 73.3179C178.423 73.1372 177.948 73.0471 177.386 73.0471C176.63 73.0471 175.994 73.2107 175.479 73.5387C174.97 73.8666 174.72 74.291 174.727 74.8132C174.72 75.2612 174.884 75.6256 175.218 75.907C175.559 76.1879 176.121 76.4186 176.904 76.5994L179.533 77.161C180.992 77.4754 182.076 77.974 182.784 78.6563C183.5 79.3386 183.862 80.2317 183.868 81.3355C183.862 82.3057 183.577 83.1617 183.015 83.9047C182.46 84.6405 181.688 85.2157 180.697 85.6308C179.707 86.0452 178.57 86.2524 177.285 86.2524C175.399 86.2524 173.88 85.858 172.73 85.0685C171.579 84.2726 170.893 83.1652 170.672 81.747L174.215 81.4056C174.375 82.1014 174.717 82.6266 175.238 82.9816C175.76 83.336 176.439 83.5132 177.275 83.5132C178.138 83.5132 178.831 83.336 179.353 82.9816C179.881 82.6266 180.145 82.1886 180.145 81.667C180.145 81.2254 179.974 80.8604 179.634 80.5731C179.299 80.2853 178.777 80.0645 178.068 79.9108L175.439 79.3586C173.961 79.0507 172.867 78.5327 172.158 77.8033C171.449 77.0674 171.097 76.1378 171.104 75.0134C171.097 74.0638 171.355 73.2408 171.877 72.5449C172.405 71.8426 173.138 71.301 174.074 70.9195C175.018 70.5315 176.105 70.3372 177.336 70.3372C179.142 70.3372 180.563 70.7223 181.601 71.4917C182.644 72.2606 183.29 73.3008 183.537 74.6125Z" fill="#FF5500"/>
<path d="M194.56 70.538V73.3479H185.7V70.538H194.56ZM187.887 66.845H191.52V81.3155C191.52 81.8041 191.593 82.1786 191.74 82.4394C191.895 82.6937 192.095 82.8674 192.343 82.961C192.59 83.0552 192.864 83.1017 193.166 83.1017C193.393 83.1017 193.6 83.0852 193.788 83.0516C193.982 83.0181 194.129 82.988 194.23 82.961L194.841 85.8009C194.647 85.868 194.37 85.9416 194.009 86.0217C193.654 86.1023 193.219 86.1488 192.704 86.1624C191.794 86.1889 190.975 86.0517 190.245 85.7509C189.516 85.443 188.938 84.9685 188.51 84.3262C188.088 83.6839 187.88 82.8809 187.887 81.9178V66.845Z" fill="#FF5500"/>
<path d="M197.599 85.9516V70.538H201.231V85.9516H197.599ZM199.425 68.3504C198.85 68.3504 198.355 68.1596 197.94 67.7787C197.525 67.3908 197.317 66.9257 197.317 66.3835C197.317 65.8354 197.525 65.3703 197.94 64.9888C198.355 64.6009 198.85 64.4066 199.425 64.4066C200.007 64.4066 200.502 64.6009 200.91 64.9888C201.325 65.3703 201.532 65.8354 201.532 66.3835C201.532 66.9257 201.325 67.3908 200.91 67.7787C200.502 68.1596 200.007 68.3504 199.425 68.3504Z" fill="#FF5500"/>
<path d="M211.69 86.2524C210.185 86.2524 208.88 85.9216 207.776 85.2593C206.673 84.597 205.816 83.6704 205.207 82.4794C204.606 81.289 204.304 79.8973 204.304 78.3048C204.304 76.713 204.606 75.3183 205.207 74.1203C205.816 72.9229 206.673 71.9933 207.776 71.331C208.88 70.6687 210.185 70.3372 211.69 70.3372C213.195 70.3372 214.499 70.6687 215.603 71.331C216.707 71.9933 217.56 72.9229 218.162 74.1203C218.771 75.3183 219.075 76.713 219.075 78.3048C219.075 79.8973 218.771 81.289 218.162 82.4794C217.56 83.6704 216.707 84.597 215.603 85.2593C214.499 85.9216 213.195 86.2524 211.69 86.2524ZM211.71 83.3424C212.526 83.3424 213.208 83.1187 213.757 82.6701C214.306 82.2151 214.714 81.6063 214.982 80.844C215.255 80.081 215.392 79.2315 215.392 78.2948C215.392 77.3517 215.255 76.4987 214.982 75.7363C214.714 74.9669 214.306 74.3546 213.757 73.8995C213.208 73.445 212.526 73.2172 211.71 73.2172C210.874 73.2172 210.178 73.445 209.623 73.8995C209.074 74.3546 208.663 74.9669 208.389 75.7363C208.121 76.4987 207.987 77.3517 207.987 78.2948C207.987 79.2315 208.121 80.081 208.389 80.844C208.663 81.6063 209.074 82.2151 209.623 82.6701C210.178 83.1187 210.874 83.3424 211.71 83.3424Z" fill="#FF5500"/>
<path d="M170.725 121.274H163.761V100.723H170.865C172.906 100.723 174.659 101.134 176.124 101.957C177.596 102.773 178.726 103.947 179.516 105.479C180.305 107.012 180.7 108.844 180.7 110.978C180.7 113.119 180.302 114.959 179.506 116.497C178.716 118.036 177.576 119.217 176.084 120.04C174.598 120.863 172.812 121.274 170.725 121.274ZM167.484 118.053H170.545C171.976 118.053 173.17 117.792 174.127 117.27C175.084 116.742 175.803 115.956 176.284 114.912C176.766 113.862 177.007 112.551 177.007 110.978C177.007 109.406 176.766 108.102 176.284 107.065C175.803 106.021 175.091 105.242 174.147 104.727C173.21 104.205 172.046 103.944 170.655 103.944H167.484V118.053Z" fill="#FF5500"/>
<path d="M184.077 121.274V105.861H187.709V121.274H184.077ZM185.903 103.673C185.328 103.673 184.832 103.482 184.417 103.101C184.003 102.713 183.796 102.248 183.796 101.706C183.796 101.158 184.003 100.693 184.417 100.311C184.832 99.9235 185.328 99.7292 185.903 99.7292C186.485 99.7292 186.98 99.9235 187.388 100.311C187.803 100.693 188.01 101.158 188.01 101.706C188.01 102.248 187.803 102.713 187.388 103.101C186.98 103.482 186.485 103.673 185.903 103.673Z" fill="#FF5500"/>
<path d="M203.627 109.935L200.316 110.296C200.222 109.962 200.058 109.647 199.823 109.353C199.596 109.058 199.288 108.821 198.9 108.64C198.512 108.46 198.037 108.37 197.476 108.37C196.72 108.37 196.084 108.533 195.569 108.861C195.06 109.189 194.809 109.614 194.816 110.136C194.809 110.584 194.974 110.948 195.308 111.23C195.649 111.51 196.211 111.741 196.994 111.922L199.623 112.484C201.082 112.798 202.165 113.297 202.874 113.979C203.59 114.661 203.951 115.554 203.958 116.658C203.951 117.628 203.667 118.484 203.105 119.227C202.55 119.963 201.777 120.538 200.787 120.953C199.797 121.368 198.66 121.575 197.375 121.575C195.489 121.575 193.97 121.181 192.82 120.391C191.669 119.595 190.983 118.488 190.762 117.07L194.304 116.728C194.465 117.424 194.806 117.949 195.328 118.304C195.85 118.659 196.529 118.836 197.365 118.836C198.228 118.836 198.92 118.659 199.443 118.304C199.971 117.949 200.235 117.511 200.235 116.99C200.235 116.548 200.064 116.183 199.723 115.896C199.389 115.608 198.867 115.387 198.158 115.233L195.529 114.681C194.051 114.373 192.957 113.855 192.247 113.126C191.539 112.39 191.187 111.46 191.194 110.336C191.187 109.386 191.444 108.563 191.967 107.868C192.495 107.165 193.228 106.624 194.164 106.242C195.107 105.854 196.195 105.66 197.426 105.66C199.232 105.66 200.653 106.045 201.69 106.814C202.734 107.583 203.379 108.623 203.627 109.935Z" fill="#FF5500"/>
<path d="M214.65 105.861V108.67H205.789V105.861H214.65ZM207.977 102.168H211.609V116.638C211.609 117.127 211.683 117.501 211.83 117.762C211.984 118.016 212.185 118.19 212.432 118.284C212.68 118.378 212.954 118.424 213.255 118.424C213.483 118.424 213.69 118.408 213.878 118.374C214.071 118.341 214.219 118.311 214.319 118.284L214.931 121.123C214.737 121.191 214.459 121.264 214.098 121.344C213.743 121.425 213.309 121.471 212.794 121.485C211.884 121.511 211.064 121.374 210.335 121.073C209.606 120.766 209.027 120.291 208.599 119.649C208.178 119.006 207.97 118.203 207.977 117.24V102.168Z" fill="#FF5500"/>
<path d="M217.688 121.274V105.861H221.211V108.43H221.371C221.652 107.54 222.134 106.854 222.816 106.373C223.505 105.884 224.291 105.64 225.174 105.64C225.375 105.64 225.599 105.65 225.847 105.67C226.101 105.683 226.311 105.707 226.479 105.741V109.082C226.325 109.028 226.081 108.981 225.746 108.941C225.418 108.895 225.1 108.871 224.793 108.871C224.131 108.871 223.535 109.015 223.007 109.303C222.485 109.584 222.073 109.975 221.772 110.477C221.472 110.978 221.321 111.557 221.321 112.213V121.274H217.688Z" fill="#FF5500"/>
<path d="M234.981 121.575C233.475 121.575 232.171 121.244 231.067 120.582C229.963 119.92 229.107 118.993 228.498 117.802C227.896 116.612 227.595 115.22 227.595 113.627C227.595 112.036 227.896 110.641 228.498 109.443C229.107 108.245 229.963 107.316 231.067 106.654C232.171 105.991 233.475 105.66 234.981 105.66C236.486 105.66 237.79 105.991 238.894 106.654C239.998 107.316 240.851 108.245 241.453 109.443C242.062 110.641 242.367 112.036 242.367 113.627C242.367 115.22 242.062 116.612 241.453 117.802C240.851 118.993 239.998 119.92 238.894 120.582C237.79 121.244 236.486 121.575 234.981 121.575ZM235.001 118.665C235.817 118.665 236.499 118.441 237.048 117.993C237.596 117.538 238.004 116.929 238.272 116.167C238.546 115.404 238.684 114.554 238.684 113.617C238.684 112.674 238.546 111.821 238.272 111.059C238.004 110.289 237.596 109.677 237.048 109.222C236.499 108.768 235.817 108.54 235.001 108.54C234.165 108.54 233.469 108.768 232.914 109.222C232.365 109.677 231.953 110.289 231.679 111.059C231.412 111.821 231.278 112.674 231.278 113.617C231.278 114.554 231.412 115.404 231.679 116.167C231.953 116.929 232.365 117.538 232.914 117.993C233.469 118.441 234.165 118.665 235.001 118.665Z" fill="#FF5500"/>
<g clip-path="url(#clip1_3715_63342)">
<path fill-rule="evenodd" clip-rule="evenodd" d="M129.291 70.2471C130.357 74.3769 136.351 73.9772 136.884 69.8475C135.818 43.2037 117.969 20.1568 92.526 12.5633C53.3633 0.840019 12.4688 30.9475 12.2023 72.3786C11.9359 134.325 90.1283 156.173 125.428 107.948C133.021 97.557 120.633 99.8217 115.171 104.484C111.974 107.149 99.586 116.074 90.9275 117.673C82.6687 119.138 79.2053 114.476 89.9951 108.081C93.192 106.083 96.6554 104.484 98.6535 102.619C100.918 100.621 99.8524 99.1556 97.055 98.8891C80.937 97.4237 71.0798 110.746 57.8923 110.746C39.1101 110.746 22.9921 93.6936 22.9921 72.1121C22.9921 28.816 71.213 4.96983 105.447 27.8835C119.967 37.342 128.758 53.0619 129.291 70.2471Z" fill="#FF5500"/>
<path d="M81.3366 93.0275C90.9275 71.8457 80.937 52.1294 72.6782 40.939C89.5954 47.2003 108.244 65.4513 107.445 81.9703" fill="#FF5500"/>
<path d="M57.893 99.0224C64.5534 87.9652 66.5515 74.1105 66.1518 63.9859C65.619 53.062 63.8873 42.9373 59.4915 32.0134C59.6247 32.1466 92.1272 62.1209 75.7427 95.2923" fill="#FF5500"/>
</g>
</g>
<defs>
<clipPath id="clip0_3715_63342">
<rect width="253.145" height="146" fill="white" transform="translate(0.427429)"/>
</clipPath>
<clipPath id="clip1_3715_63342">
<rect width="124.806" height="124.218" fill="white" transform="translate(12.2017 10.0081)"/>
</clipPath>
</defs>
</svg>
