<svg xmlns="http://www.w3.org/2000/svg" viewBox="0 0 368.85 89.92"><title>Asset 1GetIstio</title><g id="Layer_2" data-name="Layer 2"><g id="New_Layer" data-name="New Layer"><path d="M288.71,2.6c-8.5,7.2-2.1,20.6,9.2,19.1,6-.8,9.7-4.9,9.7-10.6-.1-7.2-4.3-11.1-11.9-11.1A9.71,9.71,0,0,0,288.71,2.6Z" style="fill:#212121;fill-rule:evenodd"/><path d="M26.31,13.1C7.91,17.4-2.49,35.8.51,58.7c1.9,14.7,6.6,22.5,16.9,27.5,6.2,3.1,7.3,3.3,17.2,3.3,11,0,17.4-1.5,25.3-5.8l3.7-2.1V45H33.31l.7,5.2c.3,2.9.6,6.1.6,7,0,1.4.9,1.8,4,1.8h4V72.9l-4,1.2A11.47,11.47,0,0,1,25.11,69c-1.7-3.1-2-5.2-2-17s.3-13.9,2.1-17c4.7-8.1,13.6-10.2,23-5.5l4.9,2.5,4.7-4.7c2.7-2.6,4.8-5.2,4.8-5.8,0-1.6-8-6.2-13.9-7.9S32.41,11.6,26.31,13.1Z" style="fill:#212121;fill-rule:evenodd"/><polygon points="166.61 51 166.61 88 177.61 88 188.61 88 188.61 51 188.61 14 177.61 14 166.61 14 166.61 51" style="fill:#212121;fill-rule:evenodd"/><path d="M143.11,17.5c-.5.2-4,.6-7.7,1l-6.8.7V31h-7V45h6.8l.3,15.7c.4,15.1.5,16,3.1,20.4,4.6,7.8,14.9,10.8,25.9,7.5,8.9-2.6,8.8-2.6,4.9-10-2.9-5.3-3.7-6.3-5.2-5.5-2.5,1.3-4.4,1.1-6.2-.7-1.3-1.2-1.6-4.1-1.6-14.5V45h10.7l1-7,.9-7h-12.6V24c0-7,0-7-2.7-6.9A15.51,15.51,0,0,0,143.11,17.5Z" style="fill:#212121;fill-rule:evenodd"/><path d="M262.11,17.5c-.5.2-4,.6-7.7,1l-6.8.7V31h-7V45h6.8l.3,15.7c.4,15.1.5,16,3.1,20.4,4.6,7.8,14.9,10.8,25.9,7.5,8.9-2.6,8.8-2.6,4.9-10-2.9-5.3-3.7-6.3-5.2-5.5-2.5,1.3-4.4,1.1-6.2-.7-1.3-1.2-1.6-4.1-1.6-14.5V45h10.7l1-7,.9-7h-12.6V24c0-7,0-7-2.7-6.9A15.51,15.51,0,0,0,262.11,17.5Z" style="fill:#212121;fill-rule:evenodd"/><path d="M85.21,30.6c-6.6,2.1-13.7,9.2-16.2,16.5-4.3,12.5-1.4,28.1,6.7,35.4,6.1,5.5,10.1,6.8,20.9,6.9,9.6.1,14.5-1.3,21.8-6l2.3-1.5L117,76.7c-2.1-2.9-3.9-5.4-4.1-5.6s-2.4.5-4.8,1.7c-5.3,2.6-13,2.9-16.2.7-2.2-1.5-4.6-6.9-3.6-7.9.4-.3,8.2-.6,17.5-.6h16.8V58.7c0-9.6-2.3-16-7.8-21.7C107.51,29.5,96.61,27.2,85.21,30.6ZM98.61,43c2,1.1,4.5,8.3,3.5,10-.7,1.2-14.5,1.4-14.5.2a24,24,0,0,1,1-4.1C90.41,42.8,94.11,40.6,98.61,43Z" style="fill:#212121;fill-rule:evenodd"/><path d="M208.41,30.3c-10,2.9-15.4,9.9-14.5,19,.7,8.1,5.7,12.9,17.5,16.8,7.8,2.5,9.2,3.5,9.2,6,0,4.6-9.2,4.9-16.4.5l-3.8-2.3-5,5.3-5.1,5.4,2.4,2c3.6,3,12.7,6.2,19.4,6.7,16.8,1.4,29.7-6.8,29.8-19,.1-9.5-4.1-14.1-16.4-18.3-9.2-3.1-10.9-4.1-10.9-6.4,0-3,4.8-3.4,12-1,5.1,1.7,6.5,1.9,7.1.8.5-.7,2-3.2,3.4-5.5l2.6-4.2-2.3-1.5C230,29.8,217.11,27.9,208.41,30.3Z" style="fill:#212121;fill-rule:evenodd"/><path d="M332.11,29.9c-5.7,1.6-8.4,3-12.3,6.6-12.7,11.5-11.7,38.1,1.9,48.1,5.2,3.8,13.1,5.8,21,5.1,11.2-.9,19.9-6.7,23.7-15.7,3.5-8.5,3.2-23.2-.7-30.9a29.76,29.76,0,0,0-13-11.8C348.61,29.5,336.31,28.7,332.11,29.9ZM343.61,45c2.6,1.4,4,6.3,4,14.7,0,9-1.8,14-5.5,14.9a7.26,7.26,0,0,1-8.5-4.2c-1.6-4-1.2-19,.5-22.4C336.11,44.1,339.71,42.9,343.61,45Z" style="fill:#212121;fill-rule:evenodd"/><polygon points="285.61 59.5 285.61 88 296.11 88 306.61 88 306.61 59.5 306.61 31 296.11 31 285.61 31 285.61 59.5" style="fill:#212121;fill-rule:evenodd"/></g></g></svg>