<svg id="Layer_1" data-name="Layer 1" xmlns="http://www.w3.org/2000/svg" viewBox="0 0 976.304 249.374"><path d="M458.3,54.955c-8.63-2.213-10.774-3.281-10.774-6.563v-.147c0-2.428,2.213-4.349,6.417-4.349s8.568,1.859,12.994,4.926l5.709-8.284a28.954,28.954,0,0,0-18.558-6.347c-10.2,0-17.482,5.994-17.482,15.054v.147c0,9.921,6.494,12.7,16.554,15.269,8.353,2.144,10.067,3.565,10.067,6.355v.139c0,2.927-2.713,4.708-7.21,4.708-5.71,0-10.421-2.359-14.916-6.063L434.6,77.577A31.809,31.809,0,0,0,455.8,85.568c10.773,0,18.343-5.563,18.343-15.484v-.147C474.141,61.241,468.432,57.6,458.3,54.955Z" fill="#1b1c29"/><path d="M307.134,67.087c0,5.778-2.567,8.276-6.709,8.276-3.5,0-6.278-1.86-9.137-5l-6.916,7.708a20.415,20.415,0,0,0,16.337,7.492c10.566,0,17.7-5.848,17.7-17.982V34.908H307.134Z" fill="#1b1c29"/><polygon points="346.24 64.593 369.792 64.593 369.792 54.818 346.24 54.818 346.24 44.683 372.997 44.683 372.997 34.9 335.32 34.9 335.32 84.857 373.358 84.857 373.358 75.083 346.24 75.083 346.24 64.593" fill="#1b1c29"/><polygon points="386.436 45.038 401.636 45.038 401.636 84.858 412.625 84.858 412.625 45.038 427.824 45.038 427.824 34.903 386.436 34.903 386.436 45.038" fill="#1b1c29"/><polygon points="523.491 34.903 482.102 34.903 482.102 45.038 497.302 45.038 497.302 84.858 508.291 84.858 508.291 45.038 523.491 45.038 523.491 34.903" fill="#1b1c29"/><path d="M608.956,75.578c-8.569,0-14.494-7.132-14.494-15.7V59.74c0-8.569,6.07-15.562,14.494-15.562,5,0,8.913,2.144,12.771,5.64l6.99-8.069c-4.642-4.561-10.275-7.7-19.695-7.7-15.346,0-26.05,11.625-26.05,25.825v.147a25.217,25.217,0,0,0,25.62,25.689c9.638,0,15.346-3.427,20.479-8.922l-6.99-7.063C618.161,73.3,614.657,75.578,608.956,75.578Z" fill="#1b1c29"/><polygon points="681.137 34.9 668.865 34.9 651.021 59.879 668.865 84.857 681.137 84.857 663.294 59.879 681.137 34.9" fill="#1b1c29"/><rect x="639.362" y="34.9" width="10.989" height="49.957" fill="#1b1c29"/><path d="M544.654,35.127l-21.163,49.73h11.071l4.23-10.38h21.449l4.233,10.38h11.359l-21.162-49.73Zm-2.222,30.421,7.081-17.377L556.6,65.548Z" fill="#1b1c29"/><path d="M323.534,215.028a65.929,65.929,0,0,1-43.955-16.575l13.468-16.131c9.325,7.695,19.092,12.579,30.93,12.579,9.325,0,14.949-3.7,14.949-9.768v-.3c0-5.771-3.552-8.731-20.867-13.171-20.867-5.327-34.335-11.1-34.335-31.671v-.3c0-18.8,15.1-31.228,36.259-31.228,15.095,0,27.97,4.737,38.478,13.172l-11.84,17.168c-9.176-6.364-18.2-10.212-26.934-10.212s-13.321,4-13.321,9.028v.295c0,6.808,4.441,9.029,22.348,13.617,21.016,5.475,32.854,13.023,32.854,31.079v.3C361.568,203.485,345.881,215.028,323.534,215.028Z" fill="#1b1c29"/><path d="M399.154,213.548v-103.6h78.14v20.275H421.8v21.016h48.838v20.275H421.8v21.755h56.238v20.275Z" fill="#1b1c29"/><path d="M564.606,215.325c-30.486,0-53.13-23.531-53.13-53.278v-.3c0-29.451,22.2-53.576,54.019-53.576,19.535,0,31.226,6.512,40.846,15.984l-14.5,16.723c-7.992-7.252-16.132-11.691-26.491-11.691-17.463,0-30.043,14.5-30.043,32.264v.3c0,17.758,12.283,32.558,30.043,32.558,11.84,0,19.092-4.736,27.231-12.136l14.5,14.652C596.425,208.22,584.585,215.325,564.606,215.325Z" fill="#1b1c29"/><path d="M686.25,215.176c-27.823,0-44.843-15.539-44.843-46.026v-59.2H664.2v58.606c0,16.871,8.436,25.6,22.348,25.6s22.346-8.435,22.346-24.863V109.952h22.793V168.41C731.685,199.785,714.072,215.176,686.25,215.176Z" fill="#1b1c29"/><path d="M835.569,213.548l-22.2-33.15H795.463v33.15H772.672v-103.6h47.359c24.418,0,39.07,12.876,39.07,34.186v.3c0,16.724-9.028,27.232-22.2,32.115l25.308,37Zm.445-68.225c0-9.767-6.808-14.8-17.907-14.8H795.463V160.27H818.55c11.1,0,17.464-5.92,17.464-14.651Z" fill="#1b1c29"/><path d="M897.424,213.548v-103.6h78.142v20.275h-55.5v21.016h48.837v20.275H920.068v21.755H976.3v20.275Z" fill="#1b1c29"/><path d="M211.846,10.789l0,0S162.114,0,114.3,0,16.75,10.785,16.75,10.785l0,0A20.784,20.784,0,0,0,0,31.172V93.515A161.46,161.46,0,0,0,1.144,112.8L12.5,101.436h0a8.981,8.981,0,0,1,12.7,0l0,0a8.98,8.98,0,0,1,0,12.7L5.252,134.092A150.985,150.985,0,0,0,11.809,153.3L76.122,88.988h0a8.98,8.98,0,1,1,12.7,12.7L20.18,170.326a165.4,165.4,0,0,0,10.9,16.664L136.068,82l0,0a8.98,8.98,0,1,1,12.7,12.7L42.551,200.914c4.409,4.839,8.911,9.263,13.376,13.3l73.157-73.157h0a8.979,8.979,0,0,1,12.7,12.7l-71.957,71.96c5.837,4.421,11.339,8.122,16.153,11.113l30.66-30.66h0a8.98,8.98,0,1,1,12.7,12.7l-27.023,27.023c1.175.561,1.813.838,1.813.838h.034a20.717,20.717,0,0,0,20.276,0h.024c.011,0,104.135-45.168,104.135-153.209V31.172A20.783,20.783,0,0,0,211.846,10.789Z" fill="#6326d9"/></svg>