<svg xmlns="http://www.w3.org/2000/svg" xmlns:xlink="http://www.w3.org/1999/xlink" width="240" zoomAndPan="magnify" viewBox="0 0 180 60" height="80" preserveAspectRatio="xMidYMid meet" version="1.0"><path fill="#ffffff" d="M 77.148438 28.65625 C 71.308594 28.65625 67.566406 33.464844 67.566406 38.953125 C 67.566406 45.152344 72.019531 49.210938 77.898438 49.210938 C 79.429688 49.246094 80.925781 48.925781 82.316406 48.320312 C 83.703125 47.714844 84.953125 46.824219 85.984375 45.683594 L 82.992188 42.691406 C 82.351562 43.371094 81.601562 43.941406 80.746094 44.332031 C 79.894531 44.722656 78.964844 44.9375 78.039062 44.972656 C 76.722656 45.007812 75.441406 44.546875 74.441406 43.691406 C 73.445312 42.835938 72.839844 41.589844 72.695312 40.269531 L 86.375 40.269531 C 86.449219 39.769531 86.484375 39.273438 86.484375 38.773438 C 86.484375 33.253906 82.601562 28.65625 77.148438 28.65625 Z M 72.910156 36.421875 C 73.089844 35.460938 73.621094 34.570312 74.40625 33.929688 C 75.191406 33.289062 76.152344 32.96875 77.148438 32.96875 C 78.113281 32.96875 79.039062 33.324219 79.75 33.964844 C 80.460938 34.605469 80.925781 35.496094 81.03125 36.421875 Z M 72.910156 36.421875 " fill-opacity="1" fill-rule="nonzero"/><path fill="#ffffff" d="M 94.640625 23.597656 L 89.367188 23.597656 L 89.367188 40.519531 C 89.367188 43.332031 89.832031 45.078125 90.828125 46.433594 C 92.183594 48.214844 94.5 49.285156 97.667969 49.285156 C 98.773438 49.285156 99.878906 49.140625 100.984375 48.890625 L 100.164062 44.402344 C 99.449219 44.546875 98.738281 44.617188 98.027344 44.617188 C 96.707031 44.617188 95.78125 44.152344 95.355469 43.617188 C 94.890625 43.085938 94.710938 42.371094 94.710938 41.125 L 94.710938 33.535156 L 101.230469 33.535156 L 101.230469 29.046875 L 94.710938 29.046875 L 94.710938 23.597656 Z M 94.640625 23.597656 " fill-opacity="1" fill-rule="nonzero"/><path fill="#ffffff" d="M 59.300781 23.597656 L 53.992188 23.597656 L 53.992188 40.519531 C 53.992188 43.332031 54.457031 45.078125 55.453125 46.433594 C 56.808594 48.214844 59.125 49.285156 62.292969 49.285156 C 63.398438 49.285156 64.503906 49.140625 65.570312 48.890625 L 64.753906 44.402344 C 64.039062 44.546875 63.328125 44.617188 62.578125 44.617188 C 61.261719 44.617188 60.335938 44.152344 59.90625 43.617188 C 59.445312 43.085938 59.265625 42.371094 59.265625 41.125 L 59.265625 33.535156 L 65.785156 33.535156 L 65.785156 29.046875 L 59.265625 29.046875 L 59.265625 23.597656 Z M 59.300781 23.597656 " fill-opacity="1" fill-rule="nonzero"/><path fill="#ffffff" d="M 109.78125 31.078125 L 109.78125 29.082031 L 104.6875 29.082031 L 104.6875 48.820312 L 109.960938 48.820312 L 109.960938 36.386719 C 110.457031 35.566406 111.171875 34.855469 111.992188 34.355469 C 112.847656 33.859375 113.773438 33.574219 114.734375 33.535156 C 115.375 33.535156 116.015625 33.574219 116.65625 33.75 L 117.261719 28.835938 C 116.691406 28.726562 116.085938 28.691406 115.519531 28.691406 C 113.128906 28.65625 110.957031 29.617188 109.78125 31.078125 Z M 109.78125 31.078125 " fill-opacity="1" fill-rule="nonzero"/><path fill="#ffffff" d="M 133.222656 30.652344 C 131.585938 29.332031 129.554688 28.621094 127.453125 28.65625 C 122.074219 28.65625 117.761719 33.144531 117.761719 38.953125 C 117.761719 41.480469 118.652344 43.941406 120.292969 45.863281 C 121.21875 46.894531 122.359375 47.75 123.640625 48.320312 C 124.921875 48.890625 126.3125 49.175781 127.738281 49.175781 C 129.769531 49.210938 131.691406 48.5 133.222656 47.179688 L 133.222656 48.785156 L 138.316406 48.785156 L 138.316406 29.046875 L 133.222656 29.046875 Z M 133.007812 41.910156 C 132.476562 42.65625 131.761719 43.296875 130.941406 43.726562 C 130.125 44.152344 129.199219 44.367188 128.269531 44.367188 C 127.558594 44.367188 126.882812 44.222656 126.242188 43.976562 C 125.597656 43.691406 124.992188 43.296875 124.53125 42.800781 C 124.03125 42.300781 123.675781 41.695312 123.425781 41.054688 C 123.175781 40.414062 123.070312 39.699219 123.105469 38.988281 C 123.105469 36.136719 125.101562 33.574219 128.199219 33.574219 C 129.160156 33.574219 130.089844 33.785156 130.941406 34.214844 C 131.796875 34.640625 132.511719 35.246094 133.082031 36.03125 L 133.082031 41.910156 Z M 133.007812 41.910156 " fill-opacity="1" fill-rule="nonzero"/><path fill="#ffffff" d="M 147.011719 23.597656 L 141.738281 23.597656 L 141.738281 40.519531 C 141.738281 43.332031 142.199219 45.078125 143.199219 46.433594 C 144.550781 48.214844 146.867188 49.285156 150.039062 49.285156 C 151.144531 49.285156 152.246094 49.140625 153.316406 48.890625 L 152.496094 44.402344 C 151.785156 44.546875 151.070312 44.617188 150.324219 44.617188 C 149.003906 44.617188 148.078125 44.152344 147.652344 43.617188 C 147.1875 43.085938 147.011719 42.371094 147.011719 41.125 L 147.011719 33.535156 L 153.53125 33.535156 L 153.53125 29.046875 L 147.011719 29.046875 Z M 147.011719 23.597656 " fill-opacity="1" fill-rule="nonzero"/><path fill="#ffffff" d="M 173.125 38.738281 C 173.125 33.253906 169.238281 28.65625 163.789062 28.65625 C 157.945312 28.65625 154.207031 33.464844 154.207031 38.953125 C 154.207031 45.152344 158.660156 49.210938 164.539062 49.210938 C 166.070312 49.246094 167.566406 48.925781 168.957031 48.320312 C 170.34375 47.714844 171.589844 46.824219 172.625 45.683594 L 169.632812 42.691406 C 168.992188 43.371094 168.242188 43.941406 167.386719 44.332031 C 166.53125 44.722656 165.605469 44.9375 164.679688 44.972656 C 163.363281 45.007812 162.078125 44.546875 161.082031 43.691406 C 160.085938 42.835938 159.480469 41.589844 159.335938 40.269531 L 172.980469 40.269531 C 173.050781 39.734375 173.125 39.238281 173.125 38.738281 Z M 159.550781 36.421875 C 159.726562 35.460938 160.261719 34.570312 161.046875 33.929688 C 161.832031 33.289062 162.792969 32.96875 163.789062 32.96875 C 164.75 32.96875 165.675781 33.324219 166.390625 33.964844 C 167.101562 34.605469 167.566406 35.496094 167.671875 36.421875 Z M 159.550781 36.421875 " fill-opacity="1" fill-rule="nonzero"/><path fill="#ff5500" d="M 30.410156 30.6875 C 32.796875 27.550781 30.515625 23.027344 26.632812 23.027344 C 22.75 22.992188 20.433594 27.550781 22.855469 30.6875 C 24.140625 32.21875 24.851562 34.144531 24.851562 36.136719 C 24.851562 38.167969 24.140625 40.09375 22.855469 41.589844 C 20.46875 44.722656 22.75 49.246094 26.632812 49.246094 C 30.515625 49.285156 32.832031 44.722656 30.410156 41.589844 C 29.128906 40.054688 28.414062 38.132812 28.414062 36.136719 C 28.414062 34.105469 29.128906 32.183594 30.410156 30.6875 Z M 30.410156 30.6875 " fill-opacity="1" fill-rule="nonzero"/><path fill="#ff5500" d="M 40.492188 19.109375 C 38.53125 19.464844 36.5 19.144531 34.753906 18.113281 C 33.011719 17.113281 31.691406 15.511719 31.015625 13.660156 C 29.449219 9.773438 23.785156 9.773438 22.214844 13.660156 C 21.539062 15.546875 20.257812 17.113281 18.476562 18.113281 C 16.730469 19.109375 14.699219 19.464844 12.738281 19.109375 C 8.890625 18.609375 6.078125 22.847656 8.035156 26.234375 C 9.960938 29.652344 15.089844 29.296875 16.550781 25.699219 C 20.113281 16.578125 33.152344 16.578125 36.679688 25.699219 C 38.175781 29.296875 43.269531 29.652344 45.195312 26.234375 C 47.1875 22.847656 44.375 18.609375 40.492188 19.109375 Z M 40.492188 19.109375 " fill-opacity="1" fill-rule="nonzero"/></svg>