<svg id="Layer_1" data-name="Layer 1" xmlns="http://www.w3.org/2000/svg" viewBox="0 0 233.27 84.49"><defs><style>.cls-1{fill:#fff;}.cls-1,.cls-2{fill-rule:evenodd;}.cls-2{fill:#f05825;}</style></defs><title>HorizontalLogo</title><path class="cls-1" d="M16.16,25.89c6,.17,10.36-3.06,13.51-8.71h0a5,5,0,0,1,8.88,0c3.16,5.64,7.5,8.86,13.51,8.69l.39,0a5,5,0,1,1-4.56,7.06h0A15.59,15.59,0,0,0,34.14,24.5h-.06a15.59,15.59,0,0,0-13.75,8.43h0a5,5,0,1,1-4.56-7.06ZM37.81,60.36C35.26,56.85,35.05,49.08,39.75,43h0a7.24,7.24,0,1,0-11.28,0h0c4.7,6,4.49,13.82,1.94,17.33l-.31.39h0A4.91,4.91,0,1,0,39,63.59a4.94,4.94,0,0,0-.9-2.84h0l-.31-.39Zm-3.7-26.53A4.89,4.89,0,1,0,39,38.72,4.89,4.89,0,0,0,34.11,33.83Z"/><path class="cls-2" d="M34.11,42.5a3.79,3.79,0,1,0-3.79-3.78A3.8,3.8,0,0,0,34.11,42.5Z"/><path class="cls-1" d="M70,68.43A14.34,14.34,0,0,1,66.53,68a7.1,7.1,0,0,1-2.72-1.31A6,6,0,0,1,62,64.36a9.14,9.14,0,0,1-.63-3.6V50.33H58.16v-5h3.23V37.9h6.8v7.41h6.54v5H68.19v7.94a5.38,5.38,0,0,0,1.24,3.88,5.47,5.47,0,0,0,4,1.27h1.26v5Z"/><path class="cls-1" d="M86.5,68.43A13.45,13.45,0,0,1,82,67.8a5.47,5.47,0,0,1-2.68-2A8.41,8.41,0,0,1,78,62.2a37.74,37.74,0,0,1-.33-5.41,27,27,0,0,1,.55-6,7,7,0,0,1,1.9-3.58,7.26,7.26,0,0,1,3.62-1.72,29.22,29.22,0,0,1,5.71-.46,34.16,34.16,0,0,1,5.06.33,9.07,9.07,0,0,1,3.69,1.31,6,6,0,0,1,2.27,2.81,12.78,12.78,0,0,1,.76,4.84,10.11,10.11,0,0,1-.17,1.88,4.74,4.74,0,0,1-.59,1.53,3,3,0,0,1-1.11,1,3.69,3.69,0,0,1-1.75.37h-13A8.24,8.24,0,0,0,84.77,61a3,3,0,0,0,.72,1.39,3.09,3.09,0,0,0,1.42.85,7.69,7.69,0,0,0,2.29.29h11.26v4.88Zm6.54-14c.61,0,1-.16,1.09-.48a2.59,2.59,0,0,0,.18-.92,2.36,2.36,0,0,0-.46-1.46,3.64,3.64,0,0,0-1.16-1,5.34,5.34,0,0,0-1.55-.52,9.54,9.54,0,0,0-1.68-.15,5.85,5.85,0,0,0-3.68,1c-.8.64-1.2,1.81-1.2,3.53Z"/><path class="cls-1" d="M116.08,68.43a14.34,14.34,0,0,1-3.45-.39,7.15,7.15,0,0,1-2.73-1.31,6,6,0,0,1-1.78-2.37,9,9,0,0,1-.64-3.6V50.33h-3.22v-5h3.22V37.9h6.81v7.41h6.54v5h-6.54v7.94a5.34,5.34,0,0,0,1.24,3.88,5.47,5.47,0,0,0,4,1.27h1.26v5Z"/><path class="cls-1" d="M124.69,54.47a12.28,12.28,0,0,1,.66-4.29,6.42,6.42,0,0,1,2-2.84,8.17,8.17,0,0,1,3.23-1.55,18.67,18.67,0,0,1,4.49-.48h4.58v5h-2.7c-2,0-3.41.52-4.21,1.57a7.44,7.44,0,0,0-1.2,4.58v12h-6.81Z"/><path class="cls-1" d="M157.25,45.31a6.83,6.83,0,0,1,5.3,2,7.53,7.53,0,0,1,1.85,5.3V64.07q0,4.37-4.36,4.36h-13c-2.09,0-3.57-.6-4.42-1.81a9.33,9.33,0,0,1-1.29-5.43A9.31,9.31,0,0,1,142.68,56a4.89,4.89,0,0,1,4.4-2H157.6V53c0-1.86-1-2.79-2.92-2.79H143V45.31Zm-6.94,13.4c-1.36,0-2.05.84-2.05,2.53a3.08,3.08,0,0,0,.48,1.81,1.74,1.74,0,0,0,1.53.67h5.8a1.35,1.35,0,0,0,1.53-1.52V58.71Z"/><path class="cls-1" d="M180.15,68.43A14.34,14.34,0,0,1,176.7,68,7.1,7.1,0,0,1,174,66.73a6,6,0,0,1-1.79-2.37,9.14,9.14,0,0,1-.63-3.6V50.33h-3.23v-5h3.23V37.9h6.8v7.41h6.55v5h-6.55v7.94a5.38,5.38,0,0,0,1.24,3.88,5.47,5.47,0,0,0,4,1.27h1.27v5Z"/><path class="cls-1" d="M196.41,68.43a13.35,13.35,0,0,1-4.51-.63,5.5,5.5,0,0,1-2.69-2,8.28,8.28,0,0,1-1.28-3.6,37.74,37.74,0,0,1-.33-5.41,27,27,0,0,1,.54-6,7,7,0,0,1,1.9-3.58,7.26,7.26,0,0,1,3.62-1.72,29.33,29.33,0,0,1,5.72-.46,34.25,34.25,0,0,1,5.06.33,9.08,9.08,0,0,1,3.68,1.31,6,6,0,0,1,2.27,2.81,12.76,12.76,0,0,1,.77,4.84,9.3,9.3,0,0,1-.18,1.88,4.32,4.32,0,0,1-.59,1.53,2.88,2.88,0,0,1-1.11,1,3.64,3.64,0,0,1-1.74.37h-13a8.21,8.21,0,0,0,.2,1.88,3,3,0,0,0,.72,1.39,3.09,3.09,0,0,0,1.42.85,7.65,7.65,0,0,0,2.29.29h11.25v4.88Zm6.55-14c.61,0,1-.16,1.09-.48a2.81,2.81,0,0,0,.17-.92,2.3,2.3,0,0,0-.46-1.46,3.6,3.6,0,0,0-1.15-1,5.55,5.55,0,0,0-1.55-.52,9.71,9.71,0,0,0-1.68-.15,5.86,5.86,0,0,0-3.69,1c-.8.64-1.2,1.81-1.2,3.53Z"/></svg>