<svg width="106" height="24" viewBox="0 0 106 24" fill="none" xmlns="http://www.w3.org/2000/svg">
<g clip-path="url(#clip0_3747_19518)">
<path d="M7.67175 15.6612C11.1988 15.6612 12.5745 13.5054 12.5745 9.81683C12.5745 6.1291 10.9656 3.55779 7.7751 3.55779H4.19931V15.6612H7.67175ZM0.4375 0.337655H8.24222C13.1962 0.337655 16.3868 4.33738 16.3868 9.81683C16.3868 12.8292 15.3748 15.4792 13.4294 17.1153C12.0545 18.2574 10.2645 18.907 7.93053 18.907H0.4375V0.337655ZM27.1306 12.259C27.1306 9.66124 25.912 7.89517 23.7591 7.89517C21.5797 7.89517 20.3858 9.66124 20.3858 12.259C20.3858 14.856 21.5797 16.5956 23.7591 16.5956C25.912 16.5956 27.1306 14.856 27.1306 12.259ZM16.8068 12.259C16.8068 8.28496 19.6343 5.22041 23.7591 5.22041C27.883 5.22041 30.7106 8.28496 30.7106 12.259C30.7106 16.2314 27.883 19.2968 23.7591 19.2968C19.6335 19.2968 16.8068 16.2323 16.8068 12.259ZM31.2934 12.259C31.2934 8.28496 33.8879 5.22041 37.9341 5.22041C41.385 5.22041 43.5115 7.22069 43.9786 10.1032H40.5285C40.2953 8.93462 39.3875 8.05076 38.0903 8.05076C35.9631 8.05076 34.8742 9.68772 34.8742 12.259C34.8742 14.7782 35.8853 16.4665 38.0382 16.4665C39.4653 16.4665 40.4772 15.7134 40.7104 14.2072H44.1084C43.8753 17.0375 41.6694 19.2968 38.116 19.2968C33.9143 19.2968 31.2934 16.2323 31.2934 12.259ZM53.2938 18.9079V17.3495H53.2161C52.3083 18.5702 51.2707 19.2712 49.403 19.2712C46.4457 19.2712 44.7855 17.376 44.7855 14.4662V5.58372H48.2869V13.8687C48.2869 15.427 48.988 16.2844 50.4919 16.2844C52.1521 16.2844 53.164 15.0381 53.164 13.272V5.58372H56.6919V18.9079H53.2938ZM73.8796 18.9079H77.4066V5.58372H73.8796V18.9079ZM73.8796 3.72166H77.4066V0.419586H73.8796V3.72166ZM88.1828 11.6607C88.1828 9.71338 87.1452 8.05159 85.0179 8.05159C83.2279 8.05159 82.0349 9.45352 82.0349 11.6872C82.0349 13.9465 83.2279 15.2714 85.0443 15.2714C87.275 15.2714 88.1828 13.6345 88.1828 11.6607ZM78.87 19.2968H82.3706C82.6566 20.1277 83.4082 20.7774 85.0427 20.7774C87.0402 20.7774 88.0001 19.8166 88.0001 17.9983V16.5434H87.9223C87.1435 17.4265 86.1324 18.1018 84.4458 18.1018C81.4892 18.1018 78.584 15.7647 78.584 11.7393C78.584 7.76524 80.97 5.22041 84.3424 5.22041C86.0026 5.22041 87.2212 5.86924 88.0257 6.98648H88.0778V5.58372H91.4758V17.8941C91.4758 19.7644 90.8789 21.0364 89.8934 21.9459C88.7772 22.9846 87.0658 23.4521 85.0948 23.4521C81.4628 23.4521 79.233 21.8938 78.87 19.2968ZM96.4397 7.40193H96.5175C97.4252 5.97352 98.6447 5.22041 100.46 5.22041C103.21 5.22041 105.051 7.29766 105.051 10.2066V18.907H101.524V10.7263C101.524 9.29793 100.693 8.28496 99.2152 8.28496C97.6584 8.28496 96.5175 9.53131 96.5175 11.3495V18.907H92.9896V5.58372H96.4397V7.40193ZM65.8401 7.7131C63.0903 7.11724 61.793 6.67531 61.793 5.16828C61.793 3.84414 63.1159 2.98676 65.1398 2.98676C66.986 2.98676 68.3973 3.85407 68.6867 5.58372H72.3046C71.9367 1.97793 69.2638 0 65.1655 0C61.0415 0 58.0577 1.896 58.0577 5.55807C58.0577 9.42786 61.0928 10.3109 64.4131 11.064C67.2406 11.7137 69.005 12.077 69.005 13.8943C69.005 15.6091 67.3184 16.2844 65.3994 16.2844C62.7538 16.2844 61.4822 15.4014 61.2226 13.1677H57.5393C57.6691 17.0897 60.5223 19.3225 65.5549 19.3225C69.7309 19.3225 72.766 17.2196 72.766 13.4532C72.766 9.45352 69.6532 8.54483 65.8401 7.7131Z" fill="black"/>
</g>
<defs>
<clipPath id="clip0_3747_19518">
<rect width="105" height="24" fill="white" transform="translate(0.4375)"/>
</clipPath>
</defs>
</svg>
