<svg width="92" height="34" viewBox="0 0 92 34" fill="none" xmlns="http://www.w3.org/2000/svg">
<g clip-path="url(#clip0_3749_20156)">
<path d="M90.1852 11.2039C90.2311 11.21 90.2771 11.1941 90.3132 11.1597C90.3375 11.1285 90.3502 11.0869 90.3485 11.0443C90.3485 10.9356 90.2944 10.8806 90.1852 10.8806H89.9872V11.2039H90.1852ZM89.6549 10.5485H90.1966C90.2732 10.5461 90.3494 10.5621 90.4207 10.5954C90.4762 10.6227 90.5271 10.6619 90.571 10.7108C90.609 10.7531 90.6382 10.8054 90.6563 10.8636C90.6728 10.9129 90.6817 10.9654 90.6825 11.0185C90.6821 11.1056 90.6625 11.1912 90.6256 11.2664C90.587 11.3466 90.5294 11.4113 90.46 11.4525L90.7678 12.0854H90.3974L90.1266 11.5183H89.9872V12.0854H89.6578V10.5485H89.6549ZM90.1522 12.5106C90.2821 12.512 90.4107 12.481 90.53 12.4196C90.7607 12.3021 90.9421 12.0786 91.033 11.7995C91.1293 11.5003 91.1293 11.169 91.033 10.8697C90.9868 10.7309 90.9188 10.6039 90.8327 10.4955C90.6548 10.276 90.4098 10.1521 90.1539 10.1521C89.898 10.1521 89.6531 10.276 89.4751 10.4955C89.3885 10.6038 89.3199 10.7308 89.2731 10.8697C89.223 11.0168 89.1976 11.1742 89.1986 11.3329C89.1975 11.4925 89.222 11.6509 89.2708 11.7995C89.4128 12.2317 89.7633 12.5145 90.1522 12.5106ZM90.1522 12.878C89.9784 12.8802 89.806 12.8397 89.6458 12.7592C89.4934 12.6823 89.3554 12.5701 89.2396 12.4291C89.124 12.287 89.0316 12.1205 88.967 11.9381C88.8335 11.5506 88.8335 11.1159 88.967 10.7285C89.0315 10.5466 89.124 10.3808 89.2396 10.2395C89.3564 10.0992 89.495 9.98737 89.6475 9.91008C89.9707 9.74709 90.3354 9.74709 90.6586 9.91008C90.8103 9.98775 90.948 10.0996 91.0643 10.2395C91.1804 10.3804 91.2731 10.5463 91.3374 10.7285C91.4709 11.1159 91.4709 11.5506 91.3374 11.9381C91.2728 12.121 91.1797 12.2876 91.0631 12.4291C90.9461 12.5695 90.8073 12.6816 90.6546 12.7592C90.4951 12.8396 90.3236 12.8802 90.1505 12.8787" fill="#000F9F"/>
<path d="M12.7765 10.0103H16.1853L16.3093 11.4728C16.606 11.0759 17.0136 10.6958 17.532 10.3325C18.0504 9.96921 18.7215 9.78784 19.5451 9.7882C19.8134 9.78514 20.0816 9.80156 20.3476 9.83734C20.5715 9.87133 20.791 9.92952 21.0025 10.0109L20.4347 13.1593C20.0181 13.0359 19.5852 12.9772 19.1509 12.9851C18.3107 12.9851 17.6314 13.2371 17.113 13.7412C16.5946 14.2453 16.3351 14.96 16.3347 15.8852V21.6363H12.7765V10.0103Z" fill="#000F9F"/>
<path d="M27.8655 16.6769C27.7832 16.6603 27.6274 16.6393 27.3975 16.6131C27.1363 16.5863 26.8737 16.5737 26.6111 16.5755C25.6266 16.5755 24.93 16.7158 24.5214 16.9964C24.1128 17.2769 23.9082 17.6748 23.9078 18.1901C23.9078 19.1478 24.4817 19.6269 25.6296 19.6273C25.9095 19.6271 26.1875 19.581 26.4528 19.4909C26.7113 19.4071 26.953 19.2776 27.1664 19.1083C27.3759 18.9393 27.5483 18.7285 27.673 18.4891C27.8085 18.2189 27.8747 17.9188 27.8655 17.6162V16.6769ZM27.8655 20.7145C27.4612 21.1844 26.9509 21.5498 26.3774 21.7801C25.3269 22.1951 24.1728 22.2643 23.0808 21.9777C22.6307 21.863 22.2054 21.6656 21.8264 21.3956C21.4274 21.1072 21.0996 20.7305 20.8683 20.2943C20.615 19.8322 20.4883 19.2541 20.4883 18.5599C20.4883 17.8827 20.6236 17.2799 20.8942 16.7515C21.1585 16.2286 21.5398 15.7748 22.0081 15.4258C22.5163 15.0543 23.0885 14.7808 23.6957 14.6192C24.3813 14.4326 25.089 14.341 25.7993 14.3469C26.2088 14.3469 26.6227 14.3552 27.041 14.3718C27.4594 14.3884 27.7338 14.413 27.8642 14.4458V14.1977C27.8724 13.9338 27.8087 13.6727 27.68 13.4427C27.5557 13.2352 27.3877 13.0575 27.1879 12.9224C26.9752 12.7793 26.7373 12.6784 26.487 12.6253C26.2118 12.566 25.9312 12.537 25.6498 12.5385C24.8633 12.5385 24.2115 12.6376 23.6944 12.8357C23.2314 13.0062 22.7898 13.2307 22.3785 13.5046L20.9316 11.3257C21.2006 11.1294 21.4796 10.9474 21.7675 10.7805C22.1193 10.5803 22.4891 10.4138 22.8718 10.2831C23.3409 10.1243 23.8221 10.0042 24.3105 9.92414C24.9166 9.82802 25.5296 9.78259 26.1431 9.78832C27.8984 9.78832 29.1942 10.263 30.0305 11.2122C30.8668 12.1615 31.285 13.4368 31.285 15.0381V21.8043H27.9636L27.8655 20.7145Z" fill="#000F9F"/>
<path d="M43.0873 20.2246C42.6155 20.75 41.9935 21.2033 41.2211 21.5843C40.4487 21.9654 39.5348 22.1544 38.4792 22.1515C37.5534 22.1515 36.7126 21.9994 35.9569 21.6954C35.2296 21.41 34.5696 20.9729 34.0199 20.4126C33.4765 19.8501 33.0499 19.183 32.7653 18.4508C32.4571 17.6568 32.3037 16.8099 32.3137 15.9568C32.3017 14.3252 32.9282 12.7552 34.0563 11.5899C34.6123 11.0221 35.2752 10.5731 36.0059 10.2696C36.7902 9.94313 37.6313 9.77943 38.4792 9.78817C39.5184 9.78817 40.4201 9.96092 41.1841 10.3064C41.9134 10.6273 42.5692 11.0979 43.1098 11.6884L40.9896 14.0077C40.7131 13.698 40.3926 13.4318 40.0387 13.2177C39.6648 12.9878 39.1695 12.8726 38.5526 12.8722C38.1597 12.8655 37.7709 12.9546 37.4191 13.1319C37.0933 13.2987 36.8033 13.5293 36.566 13.8102C36.327 14.0969 36.1451 14.4277 36.0303 14.7844C35.9072 15.1626 35.8454 15.5586 35.8472 15.9568C35.8479 16.3384 35.9098 16.7174 36.0303 17.079C36.1466 17.4391 36.3283 17.774 36.566 18.0666C36.8024 18.355 37.0922 18.5938 37.4191 18.7696C37.769 18.9556 38.1594 19.05 38.5545 19.044C39.1546 19.044 39.6583 18.9246 40.0656 18.6858C40.4295 18.4813 40.7584 18.2188 41.0398 17.9084L43.0873 20.2278V20.2246Z" fill="#000F9F"/>
<path d="M64.4364 23.3782C64.1855 23.6317 63.9192 23.8706 63.639 24.0937C62.0415 25.4171 60.0305 26.1819 57.9295 26.265C56.4944 26.3555 55.0566 26.1332 53.7221 25.6144C52.3542 25.0681 51.1152 24.2584 50.0803 23.2345L50.0765 23.2302C50.0183 23.1718 49.9239 23.1655 49.8579 23.2157C49.7859 23.2694 49.7722 23.3694 49.8272 23.4394C50.3017 24.0332 50.8417 24.5751 51.4377 25.0553C55.2342 28.0244 60.6481 28.0551 64.4803 25.1293C65.0911 24.6531 65.6457 24.113 66.1339 23.5189C66.1339 23.5189 66.1966 23.4418 66.2454 23.3764L64.4364 23.3782Z" fill="#38D430"/>
<path d="M69.5588 23.1838C68.462 25.3068 66.8489 27.1055 64.8747 28.4068C62.8012 29.7635 60.4042 30.5151 57.9429 30.5806C55.4433 30.6679 52.9678 30.0566 50.7831 28.8125C48.5585 27.5395 46.7058 25.684 45.4158 23.4367C45.3933 23.394 45.3503 23.3669 45.303 23.3654C45.2556 23.3639 45.2111 23.3884 45.1862 23.4296C45.1612 23.4708 45.1597 23.5224 45.1821 23.565C45.7571 24.771 46.4885 25.8922 47.3565 26.8986C50.0581 29.9994 53.8935 31.8217 57.9549 31.9342C60.6918 32.0073 63.3964 31.3159 65.7773 29.9343C66.9731 29.2396 68.0717 28.383 69.0431 27.3876C70.0178 26.3812 70.8554 25.2453 71.5334 24.0105L71.5547 23.9675C71.6858 23.7131 71.8014 23.4508 71.9008 23.1819L69.5588 23.1838Z" fill="#38D430"/>
<path d="M56.0554 5.94946C56.7385 5.75006 57.1455 5.72287 57.9689 5.69025C59.4264 5.60192 60.8864 5.82258 62.2425 6.33616C63.6365 6.8805 64.8989 7.68804 65.9528 8.70957H65.9586C66.0176 8.76768 66.1136 8.77394 66.1805 8.72407C66.2536 8.66995 66.2669 8.5702 66.2105 8.5005C65.7266 7.91069 65.1758 7.37294 64.5681 6.89689C62.6944 5.45924 60.3634 4.66279 57.9523 4.63647C56.931 4.6378 55.9151 4.77613 54.9347 5.04735L56.056 5.94946H56.0554Z" fill="#38D430"/>
<path d="M70.3441 8.05346C69.7791 6.89296 69.0577 5.8147 68.1998 4.84851C65.5338 1.8719 61.7545 0.120022 57.7508 0.00499929C55.0494 -0.064955 52.3799 0.600374 50.03 1.92932C49.2177 2.38837 48.4501 2.92163 47.7369 3.52223C47.7537 3.51667 47.7692 3.50865 47.7859 3.50371C48.5066 3.26374 49.2614 3.1412 50.0213 3.14082C50.4131 3.14142 50.8043 3.16988 51.192 3.22599C53.1738 2.03021 55.4339 1.36873 57.7502 1.3066C60.2177 1.22231 62.6615 1.81065 64.8178 3.00813C67.0123 4.23308 68.8404 6.0169 70.1148 8.17689C70.1492 8.23632 70.2239 8.25922 70.2859 8.22935C70.3171 8.21411 70.3408 8.18703 70.3518 8.15419C70.3628 8.12134 70.36 8.08549 70.3441 8.05469" fill="#38D430"/>
<path d="M45.5033 13.0691H43.624V10.3496H45.5033V9.77228C45.5033 8.97026 45.6391 8.28037 45.9105 7.70261C46.1596 7.15584 46.5263 6.66745 46.9857 6.27038C47.43 5.89398 47.947 5.60758 48.5063 5.4279C49.068 5.24488 49.6565 5.15161 50.2489 5.15161C50.8926 5.15431 51.5329 5.24331 52.1518 5.41613C52.7975 5.59433 53.396 5.90622 53.9064 6.33047C53.6596 6.69968 53.4083 7.06476 53.1525 7.4257C52.8968 7.78665 52.6457 8.15255 52.3993 8.52341C52.1507 8.34647 51.8753 8.20832 51.583 8.11394C51.2885 8.01683 50.9797 7.96683 50.6688 7.96589C50.1746 7.96589 49.7791 8.11828 49.4822 8.42306C49.1853 8.72784 49.0369 9.16147 49.0369 9.72396V10.3496H51.7809V13.0691H49.0369V21.6365H45.5033V13.0691Z" fill="#000F9F"/>
<path d="M57.519 19.066C58.3137 19.0858 59.0717 18.7298 59.5669 18.1044C59.804 17.8076 59.9831 17.4684 60.0948 17.1047C60.323 16.3569 60.323 15.5576 60.0948 14.8099C59.9847 14.4493 59.8053 14.114 59.5669 13.8228C59.3278 13.534 59.0311 13.2988 58.6961 13.1324C58.3294 12.9543 57.9261 12.8655 57.519 12.8733C57.1076 12.8665 56.7003 12.9552 56.3286 13.1324C55.9907 13.2943 55.6931 13.5302 55.4578 13.8228C55.2251 14.1177 55.0466 14.452 54.9305 14.8099C54.6846 15.5548 54.6846 16.3597 54.9305 17.1047C55.0481 17.4658 55.2265 17.8039 55.4578 18.1044C55.6901 18.4033 55.9882 18.644 56.3286 18.8075C56.7004 18.9845 57.1077 19.073 57.519 19.066ZM51.3366 15.9576C51.3306 15.1335 51.4846 14.3163 51.79 13.5516C52.0806 12.8217 52.5096 12.1555 53.053 11.5902C53.6068 11.021 54.2704 10.5717 55.0031 10.2698C55.801 9.9416 56.6563 9.77789 57.5183 9.78831C58.4336 9.78831 59.2676 9.94879 60.0203 10.2698C60.7482 10.574 61.4075 11.0232 61.9584 11.5902C62.5014 12.1558 62.9303 12.8219 63.2214 13.5516C63.8259 15.098 63.8259 16.8172 63.2214 18.3635C62.6352 19.8481 61.482 21.0345 60.0197 21.6575C59.2285 21.9939 58.3766 22.1619 57.5177 22.151C56.6546 22.1611 55.7985 21.9931 55.0024 21.6575C54.2706 21.3479 53.6076 20.8944 53.0524 20.3236C52.509 19.7584 52.08 19.0922 51.7894 18.3623C51.484 17.5976 51.33 16.7803 51.336 15.9563" fill="#38D430"/>
<path d="M64.7031 10.0592H68.1178L68.2172 11.3179C68.6236 10.8374 69.1361 10.4573 69.7143 10.2072C70.3242 9.92961 70.987 9.78657 71.6574 9.78785C72.994 9.78785 74.0541 10.1827 74.8377 10.9723C75.6214 11.7619 76.0134 12.93 76.0138 14.4765V21.6363H72.4493V14.9715C72.4493 14.3298 72.2884 13.8197 71.9664 13.4415C71.6445 13.0632 71.1949 12.8738 70.6177 12.8734C70.2598 12.8655 69.9047 12.9372 69.578 13.0831C69.2941 13.214 69.0412 13.4032 68.8358 13.6384C68.6351 13.8737 68.4835 14.1465 68.3899 14.441C68.2889 14.756 68.2385 15.085 68.2408 15.4157V21.6363H64.7031V10.0592Z" fill="#000F9F"/>
<path d="M85.1065 14.749C85.1046 14.4914 85.0561 14.2363 84.9634 13.9971C84.8649 13.7363 84.7189 13.4974 84.5334 13.2935C84.3302 13.0707 84.0872 12.8906 83.8178 12.7632C83.495 12.6159 83.1447 12.5443 82.792 12.5536C82.4315 12.5459 82.0734 12.6173 81.7416 12.7632C81.4602 12.8881 81.2049 13.0682 80.9897 13.2935C80.7977 13.4969 80.644 13.7355 80.5364 13.9971C80.4365 14.2345 80.3838 14.4902 80.3816 14.749H85.1065ZM88.1164 20.4977C87.988 20.5803 87.7976 20.7156 87.5433 20.9042C87.2333 21.1253 86.9014 21.3116 86.5531 21.4599C86.0856 21.6617 85.6025 21.8225 85.109 21.9406C84.4831 22.0884 83.8424 22.159 83.2005 22.1508C82.2455 22.1508 81.3855 21.9986 80.6206 21.6942C79.8944 21.4144 79.2322 20.9819 78.6758 20.4241C78.1365 19.8699 77.7211 19.2003 77.459 18.4623C77.1734 17.6523 77.0323 16.7955 77.0425 15.9335C77.0407 15.1384 77.1741 14.3493 77.4369 13.6021C77.6855 12.8772 78.0707 12.2104 78.5702 11.6404C79.0797 11.0689 79.697 10.6114 80.3841 10.2959C81.0999 9.9572 81.9111 9.78784 82.8178 9.78784C83.7244 9.78784 84.5199 9.95211 85.2042 10.2807C85.8721 10.599 86.4625 11.0679 86.9321 11.6531C87.4189 12.2706 87.7802 12.9834 87.9942 13.7488C88.2405 14.618 88.3612 15.52 88.3523 16.4256V17.0182H80.3822C80.3978 17.6427 80.664 18.1895 81.1808 18.6586C81.6976 19.1277 82.4097 19.3624 83.3172 19.3629C84.2079 19.3629 84.9317 19.2272 85.4886 18.9558C86.0455 18.6844 86.4511 18.4501 86.7054 18.2528L88.1139 20.4977H88.1164Z" fill="#000F9F"/>
<path d="M5.58049 8.43878H0.4375V5.15161H14.3189V8.43878H9.19977V21.6365H5.58049V8.43878Z" fill="#000F9F"/>
</g>
<defs>
<clipPath id="clip0_3749_20156">
<rect width="91" height="34" fill="white" transform="translate(0.4375)"/>
</clipPath>
</defs>
</svg>
