<svg width="101" height="36" viewBox="0 0 101 36" fill="none" xmlns="http://www.w3.org/2000/svg">
<g clip-path="url(#clip0_3747_19469)">
<path fill-rule="evenodd" clip-rule="evenodd" d="M0.5 35.3076C0.5 35.3076 57.8667 21.3787 100.369 31.1918L100.5 30.7382C100.5 30.7382 63.414 19.9137 1.21177 33.1003L0.5 35.3076Z" fill="#2C2C2C"/>
<path fill-rule="evenodd" clip-rule="evenodd" d="M27.9759 7.57877V9.89049C28.1851 9.42767 28.453 8.80034 29.1682 8.20658C29.9431 7.54616 31.0753 7.18262 32.1782 7.18262C32.7443 7.18262 33.3109 7.2819 33.877 7.4795C35.6354 8.14088 36.1419 9.52695 36.3502 10.1212C37.7214 7.57877 39.8969 7.21619 41.0589 7.21619C42.4893 7.21619 43.7408 7.74472 44.5758 8.56965C46.0654 10.0229 46.125 11.6065 46.125 15.5691V24.6826H41.7443V16.593C41.7443 13.8521 41.6851 13.2909 41.2378 12.5648C40.7607 11.7725 40.0753 11.6065 39.4197 11.6065C38.2279 11.6065 37.6319 12.4655 37.5425 12.5979C37.0654 13.4233 37.0654 14.8429 37.0654 16.2295V24.6826H32.6846V16.0645C32.6846 14.2156 32.6846 13.3902 32.2378 12.6305C31.9103 12.0694 31.2542 11.6065 30.45 11.6065C30.0624 11.6065 29.6747 11.7058 29.3169 11.9049C28.0355 12.6305 28.0057 13.8856 28.0057 17.1211V24.6826H23.625V7.57877H27.9759Z" fill="#2C2C2C"/>
<path fill-rule="evenodd" clip-rule="evenodd" d="M63.4937 7.18262H68L63.4937 24.6826H59.3777L56.7641 12.8583L54.181 24.6826H50.0063L45.5 7.18262H50.0063L52.379 18.1291L54.8117 7.18262H58.7164L61.1206 18.1291L63.4937 7.18262Z" fill="#2C2C2C"/>
<path fill-rule="evenodd" clip-rule="evenodd" d="M77.3865 24.9394H81.75V7.58432H77.4774V9.82499C76.69 8.15213 75.326 7.18262 73.599 7.18262C70.6294 7.18262 66.75 9.72444 66.75 16.5465C66.75 21.9634 69.5382 25.3076 73.2655 25.3076C75.8111 25.3076 76.8411 23.8363 77.3865 23.0334V24.9394ZM77.1561 16.0778C77.1561 17.6496 76.9443 19.1544 76.0053 20.292C75.2169 21.194 74.3385 21.2615 74.0651 21.2615C73.1872 21.2615 72.1861 20.7262 71.5806 19.2209C71.2177 18.3515 71.0964 17.3149 71.0964 16.2449C71.0964 14.9072 71.2779 13.536 72.0355 12.4329C72.5808 11.6635 73.4288 11.1627 74.2476 11.1627C74.9132 11.1627 75.5803 11.4964 76.0356 12.0317C76.6108 12.667 77.1561 13.8381 77.1561 16.0778Z" fill="#2C2C2C"/>
<path fill-rule="evenodd" clip-rule="evenodd" d="M91.7363 7.18262H96.125L91.2954 24.291C90.9427 25.489 90.3852 27.4534 89.5339 28.4184C88.7403 29.2833 87.8003 29.6826 84.3051 29.6826C83.8055 29.6826 83.6007 29.6497 83.1598 29.6164V25.7883H84.3051C84.7161 25.7883 85.6855 25.7883 86.1264 25.3561C86.4781 25.0568 86.7725 24.3239 86.7725 23.6253C86.7725 23.2588 86.5957 22.5931 86.4497 22.1604L81.75 7.18262H86.4497L89.2105 18.7988L91.7363 7.18262Z" fill="#2C2C2C"/>
<path fill-rule="evenodd" clip-rule="evenodd" d="M11.0218 0.932617L3.625 24.6826H9.05744L10.4383 19.6366H17.3748L18.7871 24.6826H24.25L16.5461 0.932617H11.0218ZM13.8149 6.14685L16.1782 15.297H11.5745L13.8149 6.14685Z" fill="#2C2C2C"/>
<path fill-rule="evenodd" clip-rule="evenodd" d="M93.3951 27.8076H92.9833V26.2605H92.375V25.9326H93.9864V26.2605H93.3951V27.8076ZM96.125 27.8076H95.7253L95.7427 26.729C95.7427 26.6161 95.7596 26.4124 95.7658 26.3452C95.7427 26.4237 95.7079 26.5484 95.6785 26.6556L95.3188 27.8076H94.9538L94.5836 26.6556C94.572 26.6105 94.5083 26.4011 94.4967 26.356C94.5141 26.4576 94.5194 26.5766 94.5257 26.729L94.5488 27.8076H94.1486V25.9326H94.6816L95.1455 27.3499L95.5863 25.9326H96.125V27.8076Z" fill="#2C2C2C"/>
</g>
<defs>
<clipPath id="clip0_3747_19469">
<rect width="100" height="35" fill="white" transform="translate(0.5 0.5)"/>
</clipPath>
</defs>
</svg>
