<svg width="101" height="52" viewBox="0 0 101 52" fill="none" xmlns="http://www.w3.org/2000/svg">
<g clip-path="url(#clip0_3749_20107)">
<mask id="mask0_3749_20107" style="mask-type:luminance" maskUnits="userSpaceOnUse" x="0" y="0" width="101" height="52">
<path d="M100.812 0H0.8125V51.9298H100.812V0Z" fill="white"/>
</mask>
<g mask="url(#mask0_3749_20107)">
<path d="M90.7178 28.7212H90.3307V35.4116H85.5266V18.7538L90.3307 11.2441V26.7869C91.287 25.6149 94.5088 21.166 94.5088 21.166H100.44L94.8161 27.1168L100.634 35.423H94.5657L90.7178 28.7212ZM77.3299 27.6289L79.2994 21.2115H84.058L78.4797 35.3661C76.8176 39.6216 74.4383 42.5003 70.8864 42.5003C69.5203 42.5003 68.3705 42.1476 67.7672 41.8063L69.6797 38.8479C69.9643 38.882 70.2603 38.8934 70.5563 38.8934C72.1956 38.8934 73.4251 37.3004 74.222 35.4116L68.3705 21.2115H73.7553L75.8614 27.5492C76.2712 28.7553 76.5672 31.0537 76.5672 31.0537C76.5672 31.0537 76.9429 28.835 77.3299 27.6289ZM62.815 27.2989C62.815 25.4442 61.9954 24.5681 60.4357 24.5681C59.673 24.5681 58.8761 24.7843 58.3296 25.1143V35.4116H53.5255V21.348L58.2272 20.9612L58.1133 23.2596H58.2727C59.2859 21.8942 61.0049 20.8588 63.0541 20.8588C65.5131 20.8588 67.6419 22.3835 67.6419 25.9904V35.4116H62.815V27.2989ZM39.7733 34.6834L40.2059 31.4065C41.7086 32.1461 43.4049 32.4988 44.8279 32.4988C45.8639 32.4988 46.5469 32.1461 46.5469 31.5203C46.5469 29.7225 40.0693 30.1549 40.0693 25.4556C40.0693 22.4517 42.8243 20.8701 46.2737 20.8701C47.9927 20.8701 49.7687 21.3367 50.9185 21.7463L50.4517 24.9663C49.245 24.4998 47.6057 24.0675 46.2396 24.0675C45.3971 24.0675 44.7141 24.3633 44.7141 24.9094C44.7141 26.6845 51.3283 26.3317 51.3283 30.9172C51.3283 33.9666 48.6189 35.7189 44.9076 35.7189C42.8584 35.7189 41.1963 35.3661 39.7733 34.6834Z" fill="#091C30"/>
<path d="M29.3148 13.9224H5.41766C5.41766 12.4252 7.5777 7.89977 11.8978 0.345947C11.8978 0.345947 12.4959 4.32981 13.6922 12.2975L20.9929 12.2977L22.7849 0.345947C27.1382 7.99993 29.3148 12.5254 29.3148 13.9224Z" fill="white"/>
<path d="M17.3297 51.7974L1.08069 40.4009V13.8022C1.08069 13.8022 7.08846 11.583 17.3505 11.583C27.6126 11.583 33.5764 13.8022 33.5764 13.8022V40.4009L17.3297 51.7974Z" fill="white"/>
<path d="M17.3297 50.1955L2.1189 39.5716V14.8697C2.1189 14.8697 7.80711 12.8088 17.3297 12.8088V50.1955Z" fill="#DBDBDB"/>
<path d="M17.3504 12.8088C17.3433 12.8088 17.3367 12.809 17.3297 12.8088V50.164L32.407 39.571V14.8697C32.407 14.8697 26.8729 12.8088 17.3504 12.8088Z" fill="#C6C6C6"/>
<path d="M25.5602 44.3832L24.2775 33.2261H17.2281C17.2281 42.0815 17.2281 47.7465 17.2281 50.2214L17.3297 50.3174C20.0722 48.4394 22.8157 46.4614 25.5602 44.3832Z" fill="#3B3B63"/>
<path d="M9.10364 44.4714L17.3297 50.3175L17.3338 32.8865H10.2096L9.10364 44.4714Z" fill="#53537A"/>
<path d="M20.8497 41.1687C20.8497 43.0856 19.0327 44.0358 17.3657 44.0358C15.6988 44.0358 13.845 43.0856 13.845 41.1687" fill="#BC9375"/>
<path d="M17.3473 42.1602C16.009 42.1602 15.3583 41.1928 15.3583 39.2041H15.9964C15.9964 41.5324 16.9085 41.5324 17.3473 41.5324C17.7858 41.5324 18.6982 41.5324 18.6982 39.2041H19.3361C19.3361 41.1928 18.6853 42.1602 17.3473 42.1602Z" fill="white"/>
<path d="M17.3297 39.6893C17.7414 40.756 18.5372 41.2893 19.7172 41.2893C20.8725 41.2893 22.0781 40.6902 22.6271 39.2098C23.3939 37.139 23.3862 34.2566 23.3862 34.2566C23.3862 34.2566 26.7938 30.0547 26.7938 28.6338C26.7938 28.6338 23.6391 28.6338 17.3297 28.6338V39.6893Z" fill="#C49A7E"/>
<path d="M7.72827 28.6338C7.72827 30.2792 11.1064 34.2566 11.1064 34.2566C11.1064 34.2566 11.0981 37.1381 11.8657 39.2098C12.4135 40.6892 13.6203 41.2893 14.7758 41.2893C15.9558 41.2893 16.8071 40.756 17.3297 39.6893V28.6338H7.72827Z" fill="#D8B7A0"/>
<path d="M26.3871 19.1728C23.7602 16.5198 23.1032 10.9878 23.1032 10.9878C22.6128 12.7309 21.5468 17.8705 21.5468 17.8705C21.5468 17.8705 19.4762 17.2109 17.246 17.2075C17.1727 17.2075 17.1727 24.1322 17.246 37.9818L19.3692 36.4701L19.7639 29.1342L22.0247 31.675L24.9371 32.5133C24.9371 32.5133 26.0268 31.748 26.0268 31.7508C26.4894 31.1126 26.6429 30.5689 26.7548 30.2868C27.1593 29.2603 26.2511 21.4106 26.2511 21.4106C25.9286 20.7457 26.3871 19.1728 26.3871 19.1728Z" fill="#3B3B63"/>
<path d="M13.168 17.87C13.168 17.87 12.1016 12.7306 11.6116 10.9873C11.6116 10.9873 10.955 16.5193 8.32772 19.1723C8.32772 19.1723 8.78619 20.7455 8.46373 21.4101C8.46373 21.4101 7.55551 29.2602 7.95999 30.285C8.0717 30.5674 8.2264 31.1108 8.68839 31.7491C8.68839 31.7462 9.77871 32.5118 9.77871 32.5118L12.6905 31.6733L14.9508 29.1329L15.3466 36.4688L17.3318 37.9405V17.1684C15.0932 17.1721 13.168 17.87 13.168 17.87Z" fill="#53537A"/>
<path d="M24.5488 5.86116C24.9847 6.66123 28.7314 14.0577 28.7314 16.6191L27.0696 21.0774C27.3507 23.5931 27.9099 29.0592 27.4878 30.1271C27.2272 30.7876 26.2338 32.1465 25.3842 33.2469L26.5458 43.69L24.9755 44.8038L24.1024 37.1733C23.9824 37.9476 23.8019 38.7744 23.5268 39.5169C23.163 40.4996 22.5202 41.2443 21.6979 41.6854C21.6498 44.0413 19.444 45.3123 17.3657 45.3123C15.2702 45.3123 13.046 44.0423 12.997 41.6873C12.173 41.2453 11.5294 40.5006 11.1652 39.5169C10.901 38.803 10.7231 38.0128 10.6024 37.2644L9.76723 44.944L8.18842 43.8121L9.32857 33.2787C8.47226 32.1734 7.45981 30.7943 7.19673 30.1265C6.7746 29.0583 7.31197 23.5931 7.59353 21.077L5.83295 16.4625V16.3121C5.83295 13.7507 9.67783 6.66123 10.1143 5.86116L11.3595 3.61499C12.1177 8.81914 12.4965 11.4235 12.4959 11.4281L13.1091 15.6453L13.9158 16.9514C14.6909 16.6938 16.0067 16.336 17.3391 16.336C18.673 16.336 19.9978 16.695 20.7762 16.9522L21.5825 15.6455L23.3294 3.61499L24.5488 5.86116ZM17.3657 43.6378C18.2856 43.6378 19.5956 43.2282 19.9226 42.1423C19.8875 42.1433 19.8537 42.1461 19.8186 42.1461C19.6396 42.1461 19.4722 42.1296 19.3098 42.1077C18.8354 42.7576 18.0962 42.9548 17.3474 42.9548C16.5999 42.9548 15.8622 42.7558 15.3886 42.1069C15.2251 42.1298 15.0559 42.1461 14.8755 42.1461C14.841 42.1461 14.8078 42.1433 14.7739 42.1423C15.1043 43.2282 16.432 43.6378 17.3657 43.6378ZM16.2885 41.853C16.5738 42.0634 16.9263 42.1805 17.3481 42.1805C17.7675 42.1805 18.1184 42.0626 18.4033 41.853C18.1761 41.7535 17.9706 41.635 17.7893 41.5056C17.6253 41.5534 17.4683 41.5524 17.3472 41.5524C17.2256 41.5524 17.0669 41.5524 16.9016 41.5046C16.7208 41.635 16.5156 41.7535 16.2885 41.853ZM22.8246 33.7515C23.9548 32.3696 25.6562 30.1438 25.9026 29.5209C26.0885 28.8796 25.7714 24.6279 25.368 21.0644L25.3458 20.8668L25.6792 19.9815C24.5798 18.8276 23.8127 17.2462 23.2887 15.7529L23.2206 16.222L21.4847 19.0309L20.8067 18.7465C20.7901 18.7393 19.0202 18.0097 17.3402 18.0097C15.6494 18.0097 13.9081 18.7387 13.8911 18.7459L13.2121 19.0327L11.4741 16.2226L11.4226 15.8627C10.8929 17.3414 10.1251 18.895 9.03082 20.0238L9.34934 20.8674L9.32712 21.0652C8.92347 24.6279 8.6064 28.8796 8.79847 29.537C9.03871 30.1448 10.7403 32.3706 11.8699 33.7515L12.0584 33.9822L12.0574 34.2778C12.0574 34.3056 12.0607 37.0394 12.7654 38.942C13.2771 40.3219 14.412 40.4694 14.8769 40.4694C16.0455 40.4694 16.5399 39.4137 16.5603 39.3688C16.8341 38.8383 16.9711 37.9669 16.9711 36.7544H17.6776C17.6776 37.7285 17.8249 38.6019 18.1194 39.3745C18.1373 39.4127 18.6442 40.472 19.8186 40.472C20.2824 40.472 21.4178 40.3229 21.929 38.943C22.636 37.0337 22.6369 34.3056 22.6369 34.2788L22.636 33.9832L22.8246 33.7515Z" fill="#333152"/>
<path d="M22.6319 26.3208H20.08H19.2295V26.3562C19.2295 27.5256 20.2569 28.473 21.462 28.473C22.6676 28.473 23.695 27.5254 23.695 26.3562V26.3208H22.6319Z" fill="#333152"/>
<path d="M20.08 26.3208V26.3562C20.08 27.0518 20.649 27.6155 21.3562 27.6155C22.0634 27.6155 22.6321 27.0518 22.6321 26.3562V26.3208H20.08Z" fill="white"/>
<path d="M21.1518 26.3208C21.146 26.3208 21.141 26.3237 21.1358 26.3247C21.21 26.34 21.2511 26.5055 21.2351 26.6156C21.2112 26.784 21.0654 26.9008 20.8985 26.9037C20.9471 27.1237 21.1294 27.3007 21.3715 27.3342C21.6809 27.3773 21.9668 27.1685 22.0106 26.8643C22.0422 26.6403 21.9327 26.3208 21.7498 26.3208H21.1518Z" fill="#333152"/>
<path d="M14.4187 26.3208H11.8672H11.0165V26.3562C11.0165 27.5256 12.0441 28.473 13.249 28.473C14.4546 28.473 15.4822 27.5254 15.4822 26.3562V26.3208H14.4187Z" fill="#333152"/>
<path d="M11.8672 26.3208V26.3562C11.8672 27.0518 12.4365 27.6155 13.1427 27.6155C13.8502 27.6155 14.4189 27.0518 14.4189 26.3562V26.3208H11.8672Z" fill="white"/>
<path d="M13.5371 26.3208H12.9384C12.9332 26.3208 12.9276 26.3237 12.9229 26.3247C12.9968 26.34 13.0377 26.5055 13.0221 26.6156C12.998 26.784 12.8531 26.9008 12.6851 26.9037C12.7343 27.1237 12.9166 27.3007 13.1583 27.3342C13.4675 27.3773 13.7541 27.1685 13.7972 26.8643C13.8292 26.6403 13.72 26.3208 13.5371 26.3208Z" fill="#333152"/>
<path d="M22.3752 25.3224C22.5181 25.1683 23.7309 23.8142 22.1088 23.8142C20.6431 23.8142 19.5885 24.9779 19.309 25.3224H22.3752Z" fill="#C49A7E"/>
<path d="M15.3786 25.3224C15.0993 24.9779 14.0447 23.8142 12.5785 23.8142C10.9573 23.8142 12.1701 25.1683 12.3121 25.3224H15.3786Z" fill="#D8B7A0"/>
<path d="M7.58069 16.1757C7.67703 14.8471 9.08172 11.6637 10.4216 8.98096L10.7788 11.4339C10.6426 12.351 10.02 15.9479 8.35021 18.2151L7.58069 16.1757Z" fill="#D8B7A0"/>
<path d="M23.9442 11.2429L24.2733 8.9812C25.613 11.6637 27.0185 14.8473 27.1148 16.1759L26.3634 18.1669C24.5592 15.671 23.9932 11.6137 23.9442 11.2429Z" fill="#C49A7E"/>
<mask id="mask1_3749_20107" style="mask-type:alpha" maskUnits="userSpaceOnUse" x="14" y="35" width="6" height="5">
<path d="M16.0962 38.2442C15.467 37.7744 14.8215 37.1816 14.8215 36.7269C14.8215 36.4282 15.3583 35.5076 15.3583 35.5076H19.3496C19.3496 35.5076 19.873 36.3238 19.873 36.7269C19.873 37.1503 19.2215 37.7267 18.5714 38.1965C18.3501 37.8216 18.0685 37.7565 17.9384 38.052C17.8713 38.2051 17.8581 38.4256 17.8909 38.6563C17.5368 38.8814 17.2781 39.0264 17.2781 39.0264C17.2781 39.0264 17.0783 38.9115 16.7927 38.7267C16.8387 38.471 16.8299 38.2206 16.7557 38.052C16.6245 37.7525 16.3373 37.8234 16.1143 38.2118C16.1082 38.2225 16.1022 38.2332 16.0962 38.2442Z" fill="white"/>
</mask>
<g mask="url(#mask1_3749_20107)">
<path d="M16.0962 38.2442C15.467 37.7744 14.8215 37.1816 14.8215 36.7269C14.8215 36.4282 15.3583 35.5076 15.3583 35.5076H19.3496C19.3496 35.5076 19.873 36.3238 19.873 36.7269C19.873 37.1503 19.2215 37.7267 18.5714 38.1965C18.3501 37.8216 18.0685 37.7565 17.9384 38.052C17.8713 38.2051 17.8581 38.4256 17.8909 38.6563C17.5368 38.8814 17.2781 39.0264 17.2781 39.0264C17.2781 39.0264 17.0783 38.9115 16.7927 38.7267C16.8387 38.471 16.8299 38.2206 16.7557 38.052C16.6245 37.7525 16.3373 37.8234 16.1143 38.2118C16.1082 38.2225 16.1022 38.2332 16.0962 38.2442Z" fill="#333152"/>
</g>
</g>
</g>
<defs>
<clipPath id="clip0_3749_20107">
<rect width="100" height="52" fill="white" transform="translate(0.8125)"/>
</clipPath>
</defs>
</svg>
