<svg width="120" height="22" viewBox="0 0 120 22" fill="none" xmlns="http://www.w3.org/2000/svg">
<g clip-path="url(#clip0_3747_19479)">
<path d="M12.5335 13.7605H5.148V10.5643H12.5335C13.8118 10.5643 14.5118 11.2077 14.5118 12.1624C14.5118 13.1171 13.8118 13.7605 12.5335 13.7605ZM5.148 3.96427H12.0973C13.3958 3.96427 14.1263 4.48313 14.1263 5.45861C14.1263 6.44445 13.406 6.95295 12.0973 6.95295H5.148V3.96427ZM16.2263 8.55106C17.2915 8.03219 18.59 6.80766 18.59 4.8671C18.59 1.75389 16.419 0.0623793 12.5842 0.052002H0.61322V17.6831H12.99C16.8552 17.6831 19.0668 15.8152 19.0668 12.702C19.077 10.6162 17.7683 9.19446 16.2263 8.55106Z" fill="black"/>
<path d="M54.4118 14.0095C53.0118 14.0095 52.3625 13.5218 52.3625 12.3388V8.50951H57.3842V4.72177H52.3625V1.28687H47.848V4.72177H47.077H42.0552V1.28687H37.5408V4.72177H34.8828V8.50951H37.5408V13.6359C37.5408 16.6038 39.7118 17.9321 42.7248 17.9321C44.8958 17.9321 46.5089 17.5378 47.6958 17.0708L46.8538 13.4803C46.0118 13.802 45.048 13.9991 44.1045 13.9991C42.7045 13.9991 42.0552 13.5114 42.0552 12.3284V8.50951H45.2002H47.8581V13.6359C47.8581 16.6038 50.0292 17.9321 53.0422 17.9321C55.2132 17.9321 56.8263 17.5378 58.0132 17.0708L57.1712 13.4906C56.319 13.8123 55.3552 14.0095 54.4118 14.0095Z" fill="black"/>
<path d="M78.1509 6.8908V4.73231H73.5654V17.6936H78.1509V12.7851C78.1509 10.0351 80.0074 9.07004 82.5437 9.08042C83.2437 9.08042 83.5582 9.13231 84.1364 9.2257V4.76344C83.7306 4.71155 83.3147 4.67004 82.7364 4.67004C80.6567 4.65966 79.2567 5.32382 78.1509 6.8908Z" fill="black"/>
<path d="M98.4002 9.37099C98.4002 12.1936 96.9495 13.7917 93.9364 13.7917C90.9234 13.7917 89.4726 12.1936 89.4726 9.37099V0.0625H84.7451V9.83797C84.7451 14.9021 88.0016 17.9634 93.9364 17.9634C99.8712 17.9634 103.128 14.8917 103.128 9.83797V0.0625H98.4002V9.37099Z" fill="black"/>
<path d="M111.599 14.2898C109.712 14.2898 108.22 13.0549 108.22 11.2907V11.1454C108.22 9.38127 109.722 8.14637 111.599 8.14637C113.455 8.14637 114.997 9.22561 114.997 11.2077C114.997 13.2001 113.455 14.2898 111.599 14.2898ZM112.705 4.44165C110.706 4.44165 109.134 5.17844 108.332 6.09165V4.74259H103.747V21.9483H108.332V16.3549C109.134 17.2681 110.696 18.0049 112.694 18.0049C117.016 18.0049 119.502 14.9643 119.502 11.2284C119.512 7.49259 117.026 4.44165 112.705 4.44165Z" fill="black"/>
<path d="M30.4393 12.7745L34.6393 14.0302C33.635 16.5312 30.6524 17.984 27.3857 17.984C22.7089 17.984 19.4828 15.2132 19.4828 11.1868C19.4828 7.30568 22.7495 4.43115 27.335 4.43115C32.1842 4.43115 34.8219 7.54436 34.8219 11.2076V12.3387H24.0074C24.4437 13.667 25.6611 14.4038 27.3654 14.4038C28.735 14.3934 29.9321 13.833 30.4393 12.7745ZM24.0784 9.77549H30.1755C30.0335 8.89342 28.9987 7.90757 27.2437 7.90757C25.8234 7.91794 24.606 8.53021 24.0784 9.77549Z" fill="black"/>
<path d="M68.5436 12.7745L72.7437 14.0302C71.7393 16.5312 68.7567 17.984 65.49 17.984C60.8132 17.984 57.5871 15.2132 57.5871 11.1868C57.5871 7.30568 60.8538 4.43115 65.4393 4.43115C70.2886 4.43115 72.9263 7.54436 72.9263 11.2076V12.3387H62.1118C62.548 13.667 63.7654 14.4038 65.4697 14.4038C66.8393 14.3934 68.0364 13.833 68.5436 12.7745ZM62.1828 9.77549H68.2799C68.1379 8.89342 67.1031 7.90757 65.348 7.90757C63.9379 7.91794 62.7103 8.53021 62.1828 9.77549Z" fill="black"/>
</g>
<defs>
<clipPath id="clip0_3747_19479">
<rect width="119" height="22" fill="white" transform="translate(0.5625)"/>
</clipPath>
</defs>
</svg>
