<svg width="101" height="26" viewBox="0 0 101 26" fill="none" xmlns="http://www.w3.org/2000/svg">
<g clip-path="url(#clip0_3749_20143)">
<path fill-rule="evenodd" clip-rule="evenodd" d="M88.8269 3.1123L79.2047 26.0001H83.5951L85.8903 20.4427H93.5422L95.8641 26.0001H100.356L90.7342 3.1123H88.8269ZM89.7383 11.1289L92.0458 16.7528H87.4135L89.7383 11.1289ZM67.6767 3.1123L58.0546 26.0001H62.4464L64.7409 20.4427H72.3921L74.714 26.0001H79.2047L69.5848 3.1123H67.6767ZM68.5881 11.1289L70.8956 16.7528H66.2626L68.5881 11.1289ZM52.2797 3.41491V14.7068V26.0001H56.6441V14.7068V3.41491H52.2797ZM32.2519 3.41491V7.30767H39.1556V26.0001H43.5192V7.30767H50.4236V3.41491H32.2519Z" fill="#093B60"/>
<path fill-rule="evenodd" clip-rule="evenodd" d="M14.0615 0C11.0448 0 8.59789 2.44038 8.58417 5.45419V7.30885H19.9779V18.6982H21.8065C24.8319 18.6982 27.2831 16.2463 27.2831 13.2231V0H14.0615Z" fill="#2EADE2"/>
<path fill-rule="evenodd" clip-rule="evenodd" d="M21.0843 20.165H6.39658L0.5625 25.9998H15.7226C17.1981 25.9998 18.584 25.4141 19.6283 24.3517L24.538 19.4421L24.4101 19.3149C23.4229 19.8566 22.289 20.165 21.0843 20.165Z" fill="#093B60"/>
<path fill-rule="evenodd" clip-rule="evenodd" d="M2.20988 6.93333C1.1475 7.97766 0.5625 9.36504 0.5625 10.8391V25.9999L6.39658 20.1651V5.47734C6.39658 4.27268 6.70497 3.13952 7.24735 2.1508L7.11952 2.02441L2.20988 6.93333Z" fill="#093B60"/>
</g>
<defs>
<clipPath id="clip0_3749_20143">
<rect width="100" height="26" fill="white" transform="translate(0.5625)"/>
</clipPath>
</defs>
</svg>
