<svg width="122" height="22" viewBox="0 0 122 22" fill="none" xmlns="http://www.w3.org/2000/svg">
<g clip-path="url(#clip0_3747_19513)">
<path d="M0.403174 0H21.6101C21.8048 0 21.9508 0.158889 21.9508 0.342222V21.6456C21.9508 21.8411 21.7926 21.9878 21.6101 21.9878H0.403174C0.208503 21.9878 0.0625 21.8289 0.0625 21.6456V0.342222C0.0625 0.158889 0.22067 0 0.403174 0Z" fill="#353944"/>
<path d="M8.10483 15.3633C8.06833 14.911 7.87366 13.6888 6.74213 11.3177C5.47678 8.65326 5.29427 6.81993 5.2821 6.14771C6.83947 6.14771 8.10483 7.41882 8.10483 8.98326V15.3633Z" fill="url(#paint0_linear_3747_19513)"/>
<path d="M5.28213 6.14768C5.30646 6.80768 5.48896 8.64101 6.74216 11.3055C7.87368 13.6888 8.06835 14.8988 8.10485 15.351H10.4652C12.8499 15.351 14.8332 13.4566 14.8818 11.061C14.9183 8.65323 13.0081 6.66101 10.6112 6.62434H10.4287C8.87137 6.63657 7.60601 5.37768 7.60601 3.81323H10.4409C14.383 3.81323 17.6559 6.97879 17.6802 10.9388C17.7045 14.911 14.529 18.1499 10.5747 18.1743H5.53763C5.39163 18.1743 5.26996 18.0521 5.26996 17.9055V6.14768H5.28213Z" fill="white"/>
<path d="M36.6484 12.821C36.6484 15.131 38.3518 16.8177 40.6878 16.8177C42.0505 16.8177 43.328 16.2433 44.0337 15.3144L43.7174 14.9844C43.2915 14.5322 42.6224 14.4222 42.0627 14.691C41.6855 14.8866 41.2597 14.9844 40.8338 14.9844C39.7996 14.9844 39.0696 14.4588 38.8384 13.5299L38.8263 13.481H44.3987C44.5082 13.481 44.5934 13.3955 44.6056 13.2855C44.6299 13.041 44.6299 12.8455 44.6299 12.6866C44.6299 10.4377 42.9752 8.81216 40.6878 8.81216C38.0354 8.81216 36.6484 10.8288 36.6484 12.821ZM42.525 12.1122V12.1488H38.8019L38.8141 12.0999C39.0209 11.1466 39.7145 10.5966 40.7121 10.5966C41.7342 10.5966 42.4642 11.2077 42.525 12.1122ZM54.8014 8.81216C53.9133 8.81216 52.7939 9.27661 52.2829 10.3033L52.2464 10.3644L52.2099 10.3033C51.7597 9.33772 50.8959 8.81216 49.7887 8.81216C48.5598 8.81216 47.7081 9.66772 47.5865 10.4744V9.21549C47.5865 9.10549 47.4891 9.00772 47.3796 9.00772H45.7249C45.6154 9.00772 45.5181 9.10549 45.5181 9.21549V16.4022C45.5181 16.5122 45.6154 16.6099 45.7249 16.6099H47.3918C47.5013 16.6099 47.5986 16.5122 47.5986 16.4022V12.601C47.5986 10.9388 48.7058 10.7555 49.1925 10.7555C50.2145 10.7555 50.5674 11.6722 50.5674 12.5399V16.4022C50.5674 16.5122 50.6647 16.6099 50.7742 16.6099H52.4289C52.5384 16.6099 52.6357 16.5122 52.6357 16.4022V12.8577C52.6357 12.051 52.8182 11.4766 53.1711 11.1222C53.4387 10.8655 53.8037 10.731 54.1809 10.7555C55.0691 10.7555 55.5923 11.4033 55.5923 12.5033V16.4022C55.5923 16.5122 55.6896 16.6099 55.7991 16.6099H57.4782C57.5877 16.6099 57.685 16.5122 57.685 16.4022V12.4299C57.685 10.1077 56.663 8.81216 54.8014 8.81216ZM66.4573 9.00772H64.7905C64.681 9.00772 64.5836 9.10549 64.5836 9.21549V10.1199L64.5228 10.0222C64.0483 9.2766 63.1114 8.82438 62.0773 8.82438C59.8994 8.82438 58.3785 10.4744 58.3785 12.8333C58.3785 15.1433 59.9115 16.8299 62.0286 16.8299C63.0384 16.8299 64.024 16.3288 64.5228 15.5466L64.5836 15.4488V16.4266C64.5836 16.5366 64.681 16.6344 64.7905 16.6344H66.4452C66.5547 16.6344 66.652 16.5366 66.652 16.4266V9.21549C66.6642 9.10549 66.5668 9.00772 66.4573 9.00772ZM62.5153 14.8866C61.3716 14.9233 60.4226 14.0188 60.3861 12.8699C60.3496 11.721 61.2499 10.7677 62.3936 10.731C63.5373 10.6944 64.4863 11.5988 64.5228 12.7477V12.8088C64.535 13.9333 63.6346 14.8622 62.5153 14.8866ZM70.2169 10.2788L70.1439 10.511V9.21549C70.1439 9.10549 70.0466 9.00772 69.9371 9.00772H68.2824C68.1729 9.00772 68.0755 9.10549 68.0755 9.21549V16.4022C68.0755 16.5122 68.1729 16.6099 68.2824 16.6099H69.9371C70.0466 16.6099 70.1439 16.5122 70.1439 16.4022V12.6133C70.1439 11.721 70.6063 10.7677 71.896 10.7677C72.6381 10.7677 73.3925 11.3177 73.3925 12.5522V16.4022C73.3925 16.5122 73.4898 16.6099 73.5993 16.6099H75.254C75.3635 16.6099 75.4609 16.5122 75.4609 16.4022V12.4422C75.473 11.1833 75.1567 10.1933 74.5483 9.58216C74.0373 9.06883 73.3438 8.81216 72.4678 8.81216C71.7256 8.81216 70.5333 9.26438 70.2169 10.2788ZM82.5298 7.43105V10.0222L82.469 9.92438C81.9093 9.09327 80.8508 8.79994 80.0478 8.79994C78.2471 8.79994 76.3369 10.1933 76.3369 12.7966C76.3369 15.3999 78.2471 16.8055 80.0478 16.8055C80.863 16.8055 81.9337 16.451 82.469 15.6688L82.5298 15.571V16.4022C82.5298 16.5122 82.6272 16.6099 82.7367 16.6099H84.3914C84.5009 16.6099 84.5982 16.5122 84.5982 16.4022V5.35327C83.4545 5.35327 82.5298 6.28216 82.5298 7.43105ZM80.4615 14.911C79.3178 14.9477 78.3688 14.0433 78.3323 12.8944C78.2958 11.7455 79.1961 10.7922 80.3398 10.7555C81.4835 10.7188 82.4325 11.6233 82.469 12.7722V12.8333C82.4812 13.9699 81.5808 14.8988 80.4615 14.911ZM86.0461 5.35327V16.4144C86.0461 16.5244 86.1434 16.6222 86.2529 16.6222H87.9076C88.0171 16.6222 88.1145 16.5244 88.1145 16.4144V15.5833L88.1753 15.681C88.7106 16.4633 89.7813 16.8177 90.5965 16.8177C92.3972 16.8177 94.3074 15.4122 94.3074 12.8088C94.3074 10.2177 92.3972 8.81216 90.5965 8.81216C89.7935 8.81216 88.735 9.10549 88.1753 9.9366L88.1145 10.0344V7.43105C88.1145 6.28216 87.1898 5.35327 86.0461 5.35327ZM88.1753 12.8333C88.2118 11.721 89.1365 10.841 90.2437 10.8777C91.3509 10.9144 92.2269 11.8433 92.1904 12.9555C92.1539 14.0433 91.2657 14.911 90.1828 14.911C89.0635 14.8988 88.1631 13.9699 88.1753 12.8333ZM102.885 9.00772H101.23C101.121 9.00772 101.024 9.10549 101.024 9.21549V10.1199L100.963 10.0222C100.488 9.2766 99.5514 8.82438 98.5172 8.82438C96.3393 8.82438 94.8184 10.4744 94.8184 12.8333C94.8184 15.1433 96.3515 16.8299 98.4685 16.8299C99.4784 16.8299 100.464 16.3288 100.963 15.5466L101.024 15.4488V16.4266C101.024 16.5366 101.121 16.6344 101.23 16.6344H102.885C102.995 16.6344 103.092 16.5366 103.092 16.4266V9.21549C103.092 9.10549 102.995 9.00772 102.885 9.00772ZM98.943 14.8866C97.7993 14.9233 96.8503 14.0188 96.8138 12.8699C96.7773 11.721 97.6777 10.7677 98.8214 10.731C99.965 10.6944 100.914 11.5988 100.951 12.7477V12.8088C100.963 13.9333 100.062 14.8622 98.943 14.8866ZM107.046 11.8433C106.706 11.7577 106.268 11.5866 106.268 11.1466C106.268 10.7433 106.669 10.4377 107.192 10.4377C107.618 10.4377 108.032 10.6333 108.141 11.0733C108.166 11.171 108.251 11.2444 108.348 11.2444H109.93C110.039 11.2444 110.137 11.1466 110.137 11.0366V11.0244C110.1 10.511 109.893 10.0344 109.528 9.66772C108.993 9.12994 108.129 8.82438 107.168 8.82438C105.537 8.82438 104.211 9.83883 104.211 11.0855C104.211 12.711 105.464 13.2366 106.414 13.481L107.423 13.7255C107.959 13.8599 108.287 14.0188 108.287 14.3977C108.287 14.8622 107.813 15.1922 107.156 15.1922C106.499 15.1922 106.109 14.8377 106.012 14.4344C105.988 14.3366 105.902 14.2633 105.805 14.2633H104.26C104.15 14.2633 104.053 14.361 104.053 14.471V14.4955C104.223 16.011 105.708 16.8055 107.18 16.8055C109.261 16.8055 110.356 15.5955 110.356 14.3855C110.356 13.6155 110.003 12.601 108.324 12.1488L107.046 11.8433ZM110.83 12.821C110.83 15.131 112.533 16.8177 114.87 16.8177C116.232 16.8177 117.51 16.2433 118.215 15.3144L117.899 14.9844C117.473 14.5322 116.804 14.4222 116.244 14.691C115.867 14.8866 115.441 14.9844 115.016 14.9844C113.981 14.9844 113.251 14.4588 113.02 13.5299L113.008 13.481H118.58C118.69 13.481 118.775 13.3955 118.787 13.2855C118.812 13.041 118.812 12.8455 118.812 12.6866C118.812 10.4377 117.157 8.81216 114.87 8.81216C112.205 8.81216 110.83 10.8288 110.83 12.821ZM116.707 12.1122V12.1488H112.984L112.996 12.0999C113.203 11.1466 113.896 10.5966 114.894 10.5966C115.916 10.5966 116.634 11.2077 116.707 12.1122ZM30.4798 5.36549C33.5702 5.36549 36.0887 7.88327 36.0887 10.9999V11.0366C36.0644 14.141 33.5093 16.6222 30.4189 16.6222H26.5864C26.4769 16.6222 26.3795 16.5244 26.3795 16.4144V5.57327C26.3795 5.46327 26.4769 5.36549 26.5864 5.36549H30.4798ZM28.5817 14.4099H30.4311C32.2926 14.4099 33.8622 12.931 33.8865 11.0488C33.923 9.1666 32.4265 7.60216 30.5406 7.57772H28.5817V14.4099ZM119.724 15.571V15.7422H119.42V16.6344H119.237V15.7422H118.933V15.571H119.724ZM121.062 16.6222H120.88L120.795 15.9133L120.515 16.4999H120.369L120.089 15.9133L120.004 16.6222H119.821L119.955 15.571H120.113L120.454 16.2922L120.795 15.571H120.953L121.062 16.6222Z" fill="#353944"/>
</g>
<defs>
<linearGradient id="paint0_linear_3747_19513" x1="6.69079" y1="6.77409" x2="6.69079" y2="15.1759" gradientUnits="userSpaceOnUse">
<stop stop-color="#BFDA33"/>
<stop offset="1" stop-color="#3F4811"/>
</linearGradient>
<clipPath id="clip0_3747_19513">
<rect width="121" height="22" fill="white" transform="translate(0.0625)"/>
</clipPath>
</defs>
</svg>
