<svg width="128" height="16" viewBox="0 0 128 16" fill="none" xmlns="http://www.w3.org/2000/svg">
<g clip-path="url(#clip0_3749_20104)">
<path d="M63.5993 6.4321H55.6237V0.481481H53.2107V15.5926H55.6237V8.4321H63.5993V15.5926H65.9869V0.481481H63.5993M40.0662 0.432099C39.1899 0.407407 37.4119 0.407406 35.8371 0.407406V15.5802H38.2755V9.82716C38.8851 9.82716 40.1424 9.77778 41.1584 9.75309C42.5808 9.72839 46.2892 9.03704 46.2638 4.87654C46.3019 0.185185 40.9552 0.432099 40.0662 0.432099ZM39.9392 7.81481H38.3263V2.34568H39.6979C40.3329 2.34568 44.0794 2.07407 44.1937 4.90123C44.3461 7.67901 41.387 7.81481 39.9392 7.81481ZM17.5618 0.407406L17.5872 15.5802H27.3789V13.6049H20.0256V8.45679H25.2326C25.2326 8.02469 25.2072 7.39506 25.2326 6.5679H20.0256V2.4321H27.3789C27.3535 1.23457 27.3789 0.407406 27.3789 0.407406H17.5618ZM3.3251 4.11111C3.3251 1.62963 6.7033 1.53086 8.6972 3.12346C9.383 1.20987 9.4338 1.07407 9.4338 1.07407C3.6172 -1.64198 0.9629 1.95062 0.9629 4.24691C0.9629 9.74074 8.9766 8.5679 7.8209 12.4321C7.4145 13.8395 4.8364 14.642 1.8646 12.8889C1.6487 13.4815 1.2931 14.1975 0.9375 14.9136C4.8618 16.9136 9.9545 15.9506 10.1196 11.8272C10.3482 6.64197 3.3251 7.01234 3.3251 4.11111ZM106.246 4.66666C105.89 0.160492 101.395 0.506171 100.404 0.456788C99.5784 0.432096 97.8258 0.407406 96.3145 0.407406V15.5556H98.7529V9.18518C99.5784 9.18518 99.8451 9.18518 101.09 9.1358L105.535 15.5556H108.494L103.579 8.74074C104.9 8.2716 106.436 7.17284 106.246 4.66666ZM100.264 7.40741C99.7181 7.40741 99.299 7.4074 98.7529 7.38271V2.25926H100.036C100.645 2.25926 103.846 2.07407 104.125 4.55555C104.468 7.49383 100.925 7.40741 100.264 7.40741ZM122.337 0.432099H119.517L114.412 15.6049H116.825C117.587 12.8642 117.841 12.0864 117.841 12.0864L124.153 12.0617C124.89 14.0864 125.436 15.6296 125.436 15.6296H127.938L122.337 0.432099ZM118.4 10.3457L120.864 2.85185H120.889L123.467 10.321L118.4 10.3457ZM81.1253 0C76.1596 0 72.9211 3.5679 72.9211 8C72.9211 12.4321 76.1596 16 81.1253 16C86.091 16 89.3295 12.4321 89.3295 8C89.3295 3.5679 86.091 0 81.1253 0ZM81.1253 13.8148C77.4804 13.8148 75.423 11.2346 75.423 8C75.423 4.80247 77.4804 2.18518 81.1253 2.18518C84.7448 2.18518 86.8276 4.76543 86.8276 8C86.8276 11.1975 84.7702 13.8148 81.1253 13.8148Z" fill="black"/>
</g>
<defs>
<clipPath id="clip0_3749_20104">
<rect width="127" height="16" fill="white" transform="translate(0.9375)"/>
</clipPath>
</defs>
</svg>
