<svg width="107" height="14" viewBox="0 0 107 14" fill="none" xmlns="http://www.w3.org/2000/svg">
<g clip-path="url(#clip0_3747_19520)">
<path d="M9.21456 12.0828L1.60183 8.6888C0.657052 8.2648 0.242688 7.1712 0.665431 6.2412C0.856063 5.8332 1.18789 5.5072 1.59387 5.3276L9.20618 1.9336L10.1434 3.9652L3.33554 7L10.1514 10.0432L9.21414 12.0832L9.21456 12.0828ZM13.0033 7C13.0056 9.123 12.4587 11.2137 11.4112 13.0864L13.4923 14C14.6644 11.8364 15.2759 9.43589 15.2754 7C15.2759 4.56411 14.6644 2.16364 13.4923 0L11.4112 0.9136C12.4587 2.78631 13.0056 4.877 13.0033 7ZM27.0414 3.3532H22.9946C22.522 3.3532 22.1901 3.4428 22.0079 3.6224C21.8168 3.802 21.8089 4.1036 21.8089 4.5444V6.1596H25.8716L25.88 8.1012H21.8089V12.7108H19.5699V3.704C19.5699 2.872 19.7521 2.284 20.1254 1.9416C20.4983 1.5992 21.1368 1.4196 22.0326 1.4196H27.041L27.0414 3.3532ZM36.9665 6.5348V7.3832C36.9665 9.26 36.6103 10.6224 35.8884 11.4708C35.1674 12.3192 34.0148 12.7436 32.4311 12.7436C30.8474 12.7436 29.7031 12.3196 28.9901 11.4708C28.2849 10.6224 27.9284 9.2436 27.9284 7.3428V6.5268C27.9284 4.7888 28.2849 3.5 29.0064 2.6512C29.7279 1.8032 30.8637 1.3788 32.4227 1.3788C33.9813 1.3788 35.1259 1.8108 35.8637 2.6676C36.6015 3.5244 36.9665 4.8052 36.9665 6.5348ZM34.8603 7.3344V6.7468C34.8603 5.7352 34.7363 4.9356 34.479 4.332C34.1803 3.6384 33.5422 3.288 32.5555 3.288C31.5605 3.288 30.9136 3.6384 30.6148 4.332C30.3664 4.9032 30.2503 5.7028 30.2503 6.7468V7.3344C30.2503 8.6888 30.441 9.6104 30.8306 10.0836C31.0049 10.304 31.237 10.4836 31.4938 10.5976C31.826 10.745 32.1893 10.8176 32.5555 10.8096C32.9183 10.8203 33.2787 10.7504 33.6084 10.6056C33.8705 10.4894 34.1005 10.3162 34.28 10.1C34.4549 9.86176 34.5788 9.59288 34.6445 9.3088C34.7857 8.7948 34.8603 8.134 34.8603 7.3344ZM47.6297 12.7108H44.9931L42.7709 8.5668H41.1788V12.7108H38.9402V3.8428C38.9402 2.994 39.1392 2.3824 39.5373 1.9908C39.9353 1.6072 40.5985 1.4116 41.5353 1.4116H43.4341C44.57 1.4116 45.4821 1.754 46.1537 2.4316C46.8257 3.1084 47.1655 3.9812 47.1655 5.0256C47.1655 5.7844 46.9665 6.4456 46.5601 7C46.1537 7.5548 45.6564 7.9384 45.0677 8.1504L47.6297 12.7108ZM44.4376 6.152C44.7443 5.8336 44.8934 5.434 44.8934 4.9528C44.8934 4.4712 44.7443 4.088 44.4539 3.794C44.164 3.5004 43.766 3.3536 43.2766 3.3536H42.1655C41.5022 3.3536 41.1704 3.688 41.1704 4.3488V6.6332H43.2682C43.4878 6.63702 43.7056 6.59607 43.9073 6.51309C44.1089 6.43011 44.2897 6.307 44.4376 6.152ZM56.527 12.7108H52.489C51.1952 12.7108 50.2914 12.4908 49.769 12.05C49.2465 11.6096 48.9897 10.8344 48.9897 9.7248V3.2144C48.9897 2.2192 49.8105 1.4116 50.8223 1.4116H56.535V3.3532H51.2366V6.0292H54.9349L54.9265 7.9708H51.2283V9.6188C51.2283 10.0596 51.328 10.3612 51.5354 10.5244C51.7423 10.6876 52.1073 10.7776 52.6465 10.7776H56.535V12.7108H56.527ZM66.3192 9.3496C66.3192 10.4104 65.9216 11.2424 65.1335 11.846C64.3459 12.45 63.3345 12.7516 62.1073 12.7516C61.137 12.7516 60.2001 12.4908 59.288 11.9684C58.8211 11.6806 58.4409 11.2812 58.1853 10.81C57.8939 10.2852 57.7457 9.69874 57.7542 9.1048L59.769 9.0068C59.769 9.57 60.0175 10.0188 60.5068 10.3288C60.9899 10.6381 61.5587 10.8029 62.1404 10.802C63.4753 10.802 64.1389 10.3368 64.1389 9.4148C64.1389 8.656 63.6826 8.2156 62.7789 8.0768L60.9216 7.8892C59.9928 7.7504 59.2549 7.4244 58.7157 6.9104C58.1685 6.3964 57.9033 5.654 57.9033 4.6912C57.9033 3.7284 58.293 2.9288 59.0723 2.3008C59.852 1.6728 60.8387 1.3544 62.0243 1.3544C63.21 1.3544 64.172 1.648 64.8931 2.2436C65.6229 2.8392 65.9794 3.598 65.9794 4.536L63.9977 4.634C63.8155 3.7204 63.1933 3.2632 62.1236 3.2632C61.4772 3.2632 60.9631 3.402 60.5982 3.6712C60.2332 3.9404 60.0426 4.2672 60.0426 4.642C60.0426 5.0176 60.1754 5.3112 60.4406 5.5232C60.7226 5.7432 61.0708 5.8824 61.4357 5.9232L63.2599 6.1108C65.2995 6.38 66.3192 7.4568 66.3192 9.3496ZM73.981 8.3052H76.0624C76.0624 9.7084 75.6975 10.7852 74.9677 11.536C74.2382 12.2868 73.2017 12.662 71.8668 12.662C68.9315 12.662 67.4639 11.006 67.4639 7.7016V6.7716C67.4639 4.1688 68.2184 2.5292 69.7192 1.8764C70.3079 1.6072 71.0293 1.4764 71.8668 1.4764C73.094 1.4764 74.0887 1.7948 74.86 2.4392C75.6313 3.084 76.0126 4.014 76.0126 5.2296H73.9148C73.7987 4.6256 73.583 4.1608 73.2847 3.8508C72.9859 3.5408 72.5133 3.3856 71.8668 3.3856C71.1123 3.3856 70.5567 3.614 70.1918 4.0628C69.9345 4.3812 69.7854 4.9276 69.7439 5.7028C69.7192 5.9476 69.7108 6.282 69.7108 6.7064V7.6688C69.7108 8.852 69.8851 9.6596 70.2249 10.092C70.5814 10.5244 71.1286 10.7448 71.8748 10.7448C72.621 10.7448 73.1355 10.5488 73.4254 10.1488C73.7158 9.7496 73.898 9.1376 73.981 8.3052ZM86.2862 6.5348V7.3832C86.2862 9.26 85.9297 10.6224 85.2082 11.4708C84.4867 12.3192 83.3341 12.7436 81.7504 12.7436C80.1667 12.7436 79.0225 12.3196 78.3094 11.4708C77.6047 10.6224 77.2481 9.2436 77.2481 7.3428V6.5268C77.2481 4.7888 77.6047 3.5 78.3257 2.6512C79.0472 1.8032 80.1834 1.3788 81.742 1.3788C83.301 1.3788 84.4452 1.8108 85.183 2.6676C85.9213 3.516 86.2862 4.8052 86.2862 6.5348ZM84.1134 7.3344V6.7468C84.1134 5.7352 83.9894 4.9356 83.7321 4.332C83.4338 3.6384 82.7953 3.288 81.8086 3.288C80.8136 3.288 80.1667 3.6384 79.8684 4.332C79.6195 4.9032 79.5035 5.7028 79.5035 6.7468V7.3344C79.5035 8.6888 79.6941 9.6104 80.0837 10.0836C80.258 10.304 80.4901 10.4836 80.747 10.5976C81.0789 10.7361 81.437 10.8083 81.7992 10.8097C82.1614 10.811 82.5201 10.7416 82.8531 10.6056C83.1153 10.4895 83.3453 10.3163 83.5247 10.1C83.6999 9.86185 83.8239 9.59295 83.8897 9.3088C84.0388 8.7948 84.1134 8.134 84.1134 7.3344ZM96.6838 1.4196V8.7868C96.6838 10.0024 96.2695 10.9652 95.4319 11.6668C94.5944 12.3684 93.5663 12.7188 92.3391 12.7188C91.1119 12.7188 90.0838 12.3684 89.2462 11.6668C88.4087 10.9648 87.9943 10.0024 87.9943 8.7868V1.4196H90.2329V8.7052C90.2329 9.3984 90.4235 9.9124 90.8052 10.2552C91.1865 10.598 91.7006 10.7692 92.3307 10.7692C92.9608 10.7692 93.4749 10.598 93.8646 10.2552C94.2546 9.9124 94.4453 9.3984 94.4453 8.7052V1.4196H96.6838ZM106.394 3.4264H103.334V12.7192H101.021V3.4264H98.1021V1.42H106.394V3.4268V3.4264ZM106.195 12.4744C106.111 12.556 106.012 12.6207 105.902 12.6647C105.792 12.7086 105.673 12.7309 105.554 12.7302C105.435 12.7294 105.317 12.7057 105.208 12.6603C105.098 12.615 105 12.549 104.917 12.4664C104.746 12.2951 104.651 12.0667 104.652 11.8296C104.649 11.708 104.672 11.5871 104.721 11.4746C104.769 11.3622 104.842 11.2607 104.934 11.1768C105.1 11.0211 105.323 10.9334 105.556 10.9324C106.054 10.9324 106.46 11.332 106.46 11.8296C106.463 11.9485 106.442 12.067 106.396 12.1777C106.351 12.2885 106.282 12.3893 106.195 12.474V12.4744ZM105.034 11.324C104.894 11.4615 104.816 11.6463 104.818 11.838C104.818 12.034 104.893 12.2296 105.042 12.36C105.332 12.6456 105.796 12.6456 106.095 12.368L106.103 12.36C106.174 12.2915 106.23 12.2099 106.267 12.1202C106.304 12.0304 106.322 11.9344 106.319 11.838C106.319 11.642 106.244 11.454 106.103 11.324C105.821 11.0384 105.357 11.022 105.067 11.2992C105.05 11.3072 105.042 11.3156 105.034 11.324ZM105.166 12.3356V11.348H105.656C105.722 11.348 105.788 11.364 105.855 11.3968C105.899 11.4197 105.934 11.4543 105.958 11.4963C105.981 11.5384 105.992 11.5861 105.987 11.6336C105.991 11.6663 105.987 11.6994 105.975 11.7304C105.964 11.7614 105.945 11.7896 105.921 11.8128C105.871 11.8509 105.81 11.8736 105.747 11.878C105.798 11.885 105.847 11.9047 105.888 11.9352C105.92 11.9626 105.945 11.9968 105.961 12.035C105.977 12.0733 105.983 12.1146 105.979 12.1556V12.278C105.979 12.286 105.979 12.294 105.987 12.3104L105.995 12.3352H105.747C105.739 12.286 105.73 12.2452 105.73 12.1964C105.73 12.1556 105.722 12.1148 105.714 12.074C105.705 12.0416 105.672 12.0168 105.639 12.0008C105.61 11.9907 105.579 11.9851 105.548 11.9844H105.432V12.3352H105.166V12.3356ZM105.647 11.5356C105.6 11.5185 105.549 11.513 105.498 11.5196H105.432V11.8052H105.531C105.581 11.8052 105.631 11.7972 105.672 11.7724C105.705 11.7484 105.73 11.6992 105.722 11.6584C105.727 11.6329 105.722 11.6066 105.708 11.5842C105.694 11.5618 105.673 11.5444 105.647 11.5356Z" fill="black"/>
</g>
<defs>
<clipPath id="clip0_3747_19520">
<rect width="106" height="14" fill="white" transform="translate(0.5)"/>
</clipPath>
</defs>
</svg>
