<svg width="107" height="32" viewBox="0 0 107 32" fill="none" xmlns="http://www.w3.org/2000/svg">
<g clip-path="url(#clip0_3749_20141)">
<path d="M11.4201 19.2739C11.4201 19.9644 11.2728 20.6062 10.978 21.1991C10.6833 21.7841 10.2658 22.2877 9.74175 22.6939C9.20958 23.1082 8.57921 23.425 7.85056 23.6525C7.12192 23.8799 6.31959 23.9937 5.45176 23.9937C4.41202 23.9937 3.4787 23.8556 2.65999 23.5713C1.84129 23.2951 1.01439 22.8239 0.1875 22.174L1.55474 19.9725C2.2097 20.5168 2.79917 20.9149 3.33132 21.1667C3.85529 21.4185 4.39564 21.5404 4.95236 21.5404C5.63189 21.5404 6.17222 21.3697 6.58977 21.0205C7.00731 20.6711 7.2038 20.2081 7.2038 19.615C7.2038 19.3632 7.16286 19.1276 7.08918 18.9083C7.01549 18.6889 6.87631 18.4615 6.67983 18.2259C6.48334 17.9985 6.20498 17.7385 5.85293 17.4704C5.50908 17.2023 5.05879 16.8611 4.50207 16.463C4.08454 16.1706 3.66698 15.8619 3.26583 15.5532C2.86466 15.2364 2.50443 14.9033 2.16877 14.5458C1.84129 14.1884 1.5793 13.7904 1.37462 13.3436C1.17813 12.9049 1.07171 12.3931 1.07171 11.8326C1.07171 11.1827 1.21089 10.5815 1.48106 10.0453C1.75123 9.5092 2.12783 9.05424 2.60268 8.67243C3.07752 8.29062 3.64243 7.99816 4.31377 7.78695C4.97692 7.57573 5.69738 7.47013 6.48334 7.47013C7.31022 7.47013 8.10436 7.57574 8.87394 7.79507C9.64348 8.01442 10.3558 8.33124 11.019 8.75366L9.78267 10.7359C8.93945 10.1509 8.04705 9.85037 7.11373 9.85037C6.54882 9.85037 6.07398 9.99659 5.70556 10.289C5.33714 10.5815 5.14884 10.9471 5.14884 11.3938C5.14884 11.8163 5.31258 12.1981 5.64006 12.5312C5.96754 12.8724 6.53246 13.3355 7.33478 13.9528C8.1453 14.5377 8.81664 15.0577 9.3406 15.4963C9.87277 15.935 10.2903 16.3574 10.6014 16.7474C10.9125 17.1374 11.1172 17.5273 11.24 17.9335C11.3628 18.3477 11.4201 18.7864 11.4201 19.2739ZM25.4609 15.5614C25.4609 16.1706 25.3953 16.8286 25.2644 17.5354C25.1416 18.2422 24.9205 18.892 24.6095 19.4932C24.2983 20.0943 23.8972 20.5899 23.3978 20.9717C22.8983 21.3616 22.2597 21.5566 21.4984 21.5566C20.2212 21.5566 19.2142 21.0529 18.4774 20.0375C17.7405 19.0302 17.3721 17.641 17.3721 15.8782C17.3721 14.0665 17.7405 12.6368 18.4937 11.5726C19.2387 10.5083 20.2539 9.98032 21.5311 9.98032C22.7428 9.98032 23.7006 10.484 24.4048 11.4751C25.1089 12.4744 25.4609 13.8391 25.4609 15.5614ZM29.8983 15.407C29.8983 14.229 29.7263 13.1567 29.3907 12.1981C29.0468 11.2314 28.572 10.4028 27.9415 9.70416C27.3112 9.0055 26.5743 8.46934 25.7146 8.07941C24.855 7.68947 23.9053 7.4945 22.8656 7.4945C21.7194 7.4945 20.7124 7.71384 19.8446 8.13627C18.9768 8.56683 18.1662 9.24105 17.4294 10.1672L17.4049 7.86818H13.3195V31.5H17.3967V21.516C17.7978 21.979 18.1826 22.3689 18.5592 22.6858C18.9276 23.0026 19.3043 23.2626 19.6891 23.4576C20.0738 23.6525 20.4749 23.7987 20.9007 23.88C21.3264 23.9612 21.7849 24.0019 22.2679 24.0019C23.3486 24.0019 24.3638 23.7825 25.2972 23.3601C26.2305 22.9295 27.0409 22.3284 27.7205 21.5485C28.4 20.7686 28.9322 19.8587 29.317 18.827C29.71 17.7872 29.8983 16.6418 29.8983 15.407ZM31.7158 23.6201H35.9075V0.5H31.7158V23.6201ZM53.788 23.6282V7.85194H49.5963V16.3412C49.5963 17.0967 49.5635 17.6816 49.498 18.0959C49.4325 18.5102 49.3261 18.8758 49.1787 19.217C48.5893 20.5168 47.5003 21.1748 45.9202 21.1748C44.684 21.1748 43.8244 20.7361 43.3331 19.8506C43.1367 19.5176 43.0057 19.1357 42.932 18.7133C42.8583 18.2909 42.8174 17.6816 42.8174 16.8774V7.85194H38.6256V16.8124C38.6256 17.4216 38.6338 17.9415 38.642 18.3559C38.6502 18.7702 38.683 19.152 38.7239 19.4769C38.7648 19.8019 38.8139 20.0943 38.8712 20.3462C38.9203 20.598 39.0023 20.8417 39.1087 21.0692C39.4934 22.0359 40.1074 22.767 40.9671 23.2626C41.8267 23.7581 42.8829 24.0019 44.1274 24.0019C45.249 24.0019 46.2395 23.8068 47.091 23.4169C47.9425 23.027 48.7694 22.3933 49.5717 21.5078L49.5798 23.6201L53.788 23.6282ZM71.8486 23.6201V14.6759C71.8486 14.0665 71.8405 13.5466 71.8322 13.1161C71.824 12.6855 71.7995 12.3119 71.7504 11.9951C71.7094 11.6782 71.6522 11.402 71.5948 11.1664C71.5293 10.9227 71.4556 10.6871 71.3738 10.4596C70.989 9.5173 70.375 8.78616 69.5153 8.27437C68.6557 7.76258 67.5995 7.50262 66.347 7.50262C65.2253 7.50262 64.2347 7.69759 63.3832 8.08753C62.5317 8.47746 61.7049 9.11921 60.9026 9.99659L60.8944 7.88443H56.678V23.6282H60.9026V15.1308C60.9026 14.3996 60.9272 13.8229 60.9844 13.4167C61.0335 13.0105 61.14 12.6287 61.2874 12.2631C61.5575 11.6294 61.9832 11.1583 62.5482 10.8333C63.1131 10.5084 63.7844 10.3459 64.5703 10.3459C65.8066 10.3459 66.6663 10.7846 67.1574 11.6701C67.3458 12.0032 67.4767 12.385 67.5504 12.7992C67.6241 13.2136 67.665 13.8309 67.665 14.6271V23.6119L71.8486 23.6201ZM89.1884 22.5802L82.8029 14.7083L88.1979 8.97301L85.0216 7.61635L79.4052 14.0746H78.9631V0.5H74.7386V23.6201H78.9631V15.2445L85.2835 23.9369L89.1884 22.5802ZM105.514 16.9261V14.3509L92.8159 8.03066V10.8658L102.656 15.6182L92.8159 20.4355V23.2057L105.514 16.9261ZM94.0435 3.94444C93.2659 3.94444 92.6351 4.57809 92.6351 5.35797C92.6351 6.15409 93.2659 6.77962 94.0435 6.77962C94.8299 6.77962 95.452 6.15409 95.452 5.35797C95.452 4.56997 94.8299 3.94444 94.0435 3.94444ZM94.0522 4.16378C94.6822 4.16378 95.1896 4.69995 95.1896 5.3661C95.1896 6.03223 94.6822 6.5684 94.0522 6.56027C93.4136 6.56027 92.9053 6.03223 92.9053 5.35797C92.9053 4.69995 93.4136 4.16378 94.0522 4.16378ZM93.782 5.50419H93.9532C94.1582 5.50419 94.2564 5.57731 94.2973 5.7804C94.3303 5.99162 94.3711 6.12972 94.4041 6.17846H94.6743C94.6491 6.12972 94.6083 6.03223 94.5762 5.78852C94.5431 5.55293 94.4528 5.43108 94.3059 5.40671V5.39046C94.478 5.34172 94.617 5.21174 94.617 5.00865C94.617 4.86242 94.5675 4.74869 94.4693 4.6837C94.3711 4.61059 94.2156 4.56184 93.9784 4.56184C93.7898 4.56184 93.6586 4.57809 93.5283 4.60246V6.17846H93.782V5.50419ZM93.782 4.77306C93.8229 4.76494 93.8802 4.75682 93.9619 4.75682C94.2486 4.75682 94.3468 4.89492 94.3468 5.03303C94.3468 5.22799 94.1661 5.3011 93.9619 5.3011H93.782V4.77306Z" fill="#0C1724"/>
</g>
<defs>
<clipPath id="clip0_3749_20141">
<rect width="106" height="31" fill="white" transform="translate(0.1875 0.5)"/>
</clipPath>
</defs>
</svg>
