<svg width="184" height="22" viewBox="0 0 184 22" fill="none" xmlns="http://www.w3.org/2000/svg">
<g clip-path="url(#clip0_3747_19852)">
<mask id="mask0_3747_19852" style="mask-type:luminance" maskUnits="userSpaceOnUse" x="0" y="0" width="184" height="22">
<path d="M183.833 0H0.833313V22H183.833V0Z" fill="white"/>
</mask>
<g mask="url(#mask0_3747_19852)">
<path d="M14.4881 6.60965C14.2399 6.37787 13.954 6.1971 13.6447 6.07642L13.171 16.4316L15.5741 9.27595C15.6459 8.76681 15.5821 8.24624 15.3899 7.7744C15.1977 7.3026 14.8851 6.8988 14.4881 6.60965Z" fill="black"/>
<path d="M10.5238 5.98964L11.9333 16.3324L13.3081 5.98964C12.4096 5.63366 11.4223 5.63366 10.5238 5.98964Z" fill="black"/>
<path d="M9.3592 6.5975C8.96326 6.88764 8.65137 7.2916 8.45932 7.76313C8.26727 8.23467 8.20278 8.75476 8.27324 9.26379L10.6763 16.4193L10.2026 6.06421C9.89338 6.18489 9.60747 6.36566 9.3592 6.5975Z" fill="black"/>
<path d="M4.52792 7.57702C6.12224 10.5905 7.76278 13.7777 9.35708 16.7168C8.791 14.2366 8.20178 9.98288 7.39306 8.80478C7.03626 8.37656 6.59187 8.04284 6.09479 7.82986C5.59768 7.61683 5.06139 7.5303 4.52792 7.57702Z" fill="black"/>
<path d="M1.68768 9.09002L8.23826 17.2501L4.18314 7.62671C3.68911 7.64185 3.20545 7.78239 2.77172 8.03669C2.33799 8.29106 1.96651 8.65201 1.68768 9.09002Z" fill="black"/>
<path d="M15.4019 11.2976L14.3159 16.8906C15.7138 14.2739 17.1002 11.7069 18.4519 9.09021C17.7905 9.05978 17.1374 9.25772 16.5884 9.65503C16.0395 10.0523 15.6237 10.628 15.4019 11.2976Z" fill="black"/>
<path d="M18.8427 9.08995L15.3768 17.374L21.4536 10.2433C21.1148 9.86995 20.7083 9.57505 20.2593 9.37673C19.8103 9.17836 19.3282 9.08078 18.8427 9.08995Z" fill="black"/>
<path d="M0.832059 12.7856C2.96937 14.559 5.08357 16.3696 7.23242 18.1306L1.45593 9.37524C0.949357 10.425 0.732899 11.6082 0.832059 12.7856Z" fill="black"/>
<path d="M22.2042 11.2728C22.0809 10.9884 21.9084 10.7317 21.6959 10.5164L16.4624 18.23C18.5419 16.5682 20.5521 14.8692 22.5508 13.1702C22.5931 12.516 22.4735 11.8614 22.2042 11.2728Z" fill="black"/>
<path d="M0.833313 16.345L6.41344 19.1105C4.56494 17.1262 2.69335 15.204 0.833313 13.2446V16.345Z" fill="black"/>
<path d="M22.5505 16.5558V13.7283L17.2823 19.2221C19.0731 18.3416 20.7251 17.4735 22.5505 16.5558Z" fill="black"/>
<path d="M0.833313 19.0981C2.5085 19.495 4.29922 20.0034 5.85886 20.3382L0.833313 16.7791V19.0981Z" fill="black"/>
<path d="M22.55 19.2591V17.0889C20.9673 18.1678 19.3383 19.2839 17.871 20.4124L22.55 19.2591Z" fill="black"/>
<path d="M0.844696 21.8012H5.75475L0.844696 19.5442V21.8012Z" fill="black"/>
<path d="M22.5528 21.8013V19.7427C20.9354 20.4867 19.5375 21.1068 18.0125 21.8013H22.5528Z" fill="black"/>
<path d="M20.8531 6.34927C20.8745 6.03964 20.8361 5.7286 20.7405 5.43558C20.6448 5.14258 20.4939 4.8739 20.2971 4.64637C20.1003 4.41884 19.8618 4.23734 19.5967 4.11322C19.3316 3.98911 19.0454 3.92505 18.7562 3.92505C18.4669 3.92505 18.1808 3.98911 17.9157 4.11322C17.6505 4.23734 17.4121 4.41884 17.2153 4.64637C17.0185 4.8739 16.8675 5.14258 16.7719 5.43558C16.6762 5.7286 16.6378 6.03964 16.6593 6.34927C16.6246 9.23881 20.957 9.40004 20.8531 6.34927Z" fill="black"/>
<path d="M6.82904 4.71223C6.96766 1.53748 2.39266 1.6615 2.56596 4.71223C2.40422 7.86217 7.10628 7.91177 6.82904 4.71223Z" fill="black"/>
<path d="M11.9364 5.32008C12.2553 5.33742 12.5741 5.28357 12.8727 5.16195C13.1713 5.04035 13.4431 4.85363 13.6711 4.61358C13.8991 4.37353 14.0782 4.08536 14.1972 3.76727C14.3162 3.44916 14.3725 3.10804 14.3625 2.76541C14.4016 2.40696 14.3674 2.04367 14.2622 1.70088C14.157 1.3581 13.9834 1.04409 13.7535 0.780766C13.5236 0.517437 13.2429 0.311141 12.931 0.176274C12.6192 0.0414077 12.2837 -0.0187804 11.9479 -8.91229e-05C11.6129 -0.0153246 11.2789 0.0478675 10.969 0.185101C10.6591 0.322334 10.3807 0.530322 10.1531 0.794626C9.92556 1.05893 9.75436 1.37322 9.65131 1.71568C9.54826 2.05814 9.51592 2.42057 9.55643 2.77782C9.53779 3.11796 9.58667 3.45848 9.69985 3.77682C9.81302 4.09517 9.9879 4.38408 10.2129 4.62443C10.4379 4.86478 10.7079 5.05109 11.005 5.17102C11.3021 5.29096 11.6196 5.34177 11.9364 5.32008Z" fill="black"/>
<path d="M50.0593 9.26367H48.0608V21.6774H50.0593V9.26367Z" fill="black"/>
<path d="M40.9793 9.26367L37.5943 19.8421L34.3364 15.328L38.7381 9.27609H36.4275L32.3377 15.1667V9.26367H30.3044V21.6651H32.303V15.5636L36.5315 21.6898H38.9576L40.032 18.1058H44.272L45.4273 21.6774H47.5184L43.5326 9.27609L40.9793 9.26367ZM40.5173 16.3697L42.0538 11.2231L43.6481 16.3697H40.5173Z" fill="black"/>
<path d="M114.837 18.2547L112.839 9.26367H109.373V21.6651H111.337V11.0867L113.879 21.6651H115.877L118.361 11.1611V21.727H120.302V9.32569H116.836L114.837 18.2547Z" fill="black"/>
<path d="M125.328 9.25122L121.33 21.6526H123.295L124.369 18.0686H128.609L129.764 21.6526H131.855L127.846 9.25122H125.328ZM124.866 16.3572L126.402 11.161L128.008 16.2952L124.866 16.3572Z" fill="black"/>
<path d="M139.895 18.8375L135.274 9.25122H132.64V21.6526H134.523V12.3144L139.052 21.665H141.778V9.26364H139.849L139.895 18.8375Z" fill="black"/>
<path d="M177.72 19.842H172.972V16.3572H176.438V14.559H172.972V11.0494H177.316V9.25122H171.008V21.6526H177.732L177.72 19.842Z" fill="black"/>
<path d="M159.534 9.25122H159.176V18.9367L154.555 9.25122H151.944V19.842H145.879V16.3572H149.345V14.559H145.879V11.0494H150.223V9.25122H143.904V21.6526H153.839V12.2151L158.368 21.665H161.094V11.161H164.56V21.7022H166.571V11.161H170.036V9.25122H159.534Z" fill="black"/>
<path d="M106.45 15.427C106.81 15.1036 107.101 14.6997 107.3 14.2434C107.499 13.7871 107.604 13.2896 107.605 12.7855C107.616 12.2897 107.525 11.7974 107.34 11.3432C107.154 10.889 106.878 10.484 106.531 10.1565C105.556 9.42151 104.363 9.0991 103.181 9.25117H99.8304V14.4969V19.8419H93.6608V16.3571H97.127V14.5589H93.6608V11.0494H98.0048V9.25117H91.6855V21.6525H101.771V16.3944H102.765C103.677 17.9445 105.63 21.6897 105.63 21.6897H108.01L104.902 16.2207C105.473 16.1038 106.006 15.8304 106.45 15.427ZM101.829 14.5838V11.0741H103.516C105.029 11.0741 105.641 11.719 105.641 12.7979C105.641 13.8769 105.041 14.5713 103.516 14.5713L101.829 14.5838Z" fill="black"/>
<path d="M74.9454 15.427C75.3055 15.1036 75.5957 14.6997 75.7953 14.2434C75.9949 13.7871 76.0991 13.2896 76.1006 12.7855C76.1114 12.2897 76.0204 11.7974 75.8349 11.3432C75.6495 10.889 75.3735 10.4839 75.0266 10.1564C74.0524 9.42043 72.8585 9.09793 71.6758 9.25114H68.3256V14.4969V19.8419H62.1564V16.3571H65.6222V14.5589H62.1564V11.0493H66.5005V9.25114H60.1693V21.6525H70.2666V16.3943H71.3064C72.219 17.9445 74.1713 21.6897 74.1713 21.6897H76.5053L73.3972 16.2207C73.9687 16.1038 74.5016 15.8303 74.9454 15.427ZM70.3244 14.5837V11.0742H72.011C73.5244 11.0742 74.1366 11.719 74.1366 12.798C74.1366 13.8768 73.5362 14.5713 72.011 14.5713L70.3244 14.5837Z" fill="black"/>
<path d="M89.374 10.1939C88.4027 9.45018 87.2093 9.11887 86.0237 9.26376H82.6735V16.5806V21.6899H84.6835V16.5682H86.0355C87.222 16.7065 88.4135 16.3612 89.374 15.6009C89.7224 15.258 89.9993 14.8398 90.1867 14.3739C90.3737 13.9079 90.4671 13.4047 90.4603 12.8974C90.4686 12.3898 90.3761 11.8861 90.1887 11.4199C90.0013 10.9537 89.7239 10.5358 89.374 10.1939ZM86.3242 14.7576H84.6723V11.0372H86.3242C87.8258 11.0372 88.4497 11.7565 88.4497 12.8478C88.4497 13.9391 87.7916 14.7576 86.3242 14.7576Z" fill="black"/>
<path d="M55.8948 14.4349C54.3236 13.8148 53.5843 13.3436 53.5843 12.3639C53.5843 11.6198 54.2894 10.7641 55.6756 10.7641C56.5416 10.7755 57.3945 10.9959 58.171 11.409V9.63563C57.3974 9.25922 56.5593 9.0607 55.7103 9.05273C53.2379 9.05273 51.5277 10.5533 51.5277 12.5747C51.5277 14.3729 52.8102 15.4519 54.7513 16.1711C56.253 16.7416 56.9003 17.3121 56.9003 18.2793C56.9003 19.2466 56.0685 20.0651 54.6935 20.0651C53.5872 20.06 52.5005 19.7481 51.5395 19.1598V21.0821C52.4804 21.5665 53.5114 21.8166 54.5551 21.8137C57.5472 21.8137 58.9564 20.0899 58.9564 18.0933C58.9564 16.0967 57.9166 15.241 55.8948 14.4349Z" fill="black"/>
<path d="M179.558 19.4823C179.567 19.0799 179.686 18.6892 179.901 18.3593C180.116 18.0294 180.417 17.7749 180.766 17.6276C181.115 17.4803 181.496 17.4468 181.863 17.5312C182.23 17.6157 182.565 17.8144 182.827 18.1025C183.089 18.3905 183.266 18.7551 183.336 19.1506C183.406 19.5461 183.366 19.955 183.22 20.326C183.074 20.697 182.83 21.0137 182.518 21.2365C182.205 21.4592 181.839 21.578 181.464 21.5781C181.209 21.5799 180.957 21.5266 180.722 21.4213C180.486 21.3159 180.274 21.1608 180.095 20.9652C179.918 20.7695 179.778 20.5374 179.686 20.2826C179.593 20.0278 179.55 19.7556 179.558 19.4823ZM181.464 21.9626C181.918 21.948 182.358 21.7902 182.728 21.5089C183.099 21.2276 183.384 20.8353 183.548 20.381C183.713 19.9267 183.749 19.4306 183.652 18.9544C183.555 18.4783 183.33 18.0434 183.004 17.7039C182.678 17.3644 182.267 17.1355 181.82 17.0457C181.374 16.9558 180.913 17.0091 180.495 17.1988C180.077 17.3886 179.72 17.7063 179.469 18.1124C179.218 18.5185 179.084 18.995 179.084 19.4823C179.079 19.8175 179.137 20.1502 179.256 20.4605C179.374 20.7707 179.55 21.052 179.773 21.2873C179.995 21.5226 180.259 21.707 180.55 21.8295C180.841 21.9519 181.151 22.0099 181.464 21.9998V21.9626ZM180.967 19.6435H181.441L182.157 20.8837H182.619L181.845 19.6435C181.941 19.6437 182.035 19.6229 182.123 19.5826C182.211 19.5423 182.29 19.4832 182.356 19.409C182.422 19.3347 182.473 19.2469 182.506 19.1508C182.54 19.0546 182.554 18.9523 182.55 18.8498C182.55 18.2794 182.238 18.0314 181.591 18.0314H180.563V20.9333H180.967V19.6435ZM180.967 19.2715V18.3786H181.521C181.81 18.3786 182.111 18.4406 182.111 18.8002C182.111 19.1599 181.799 19.2715 181.452 19.2715H180.967Z" fill="black"/>
</g>
</g>
<defs>
<clipPath id="clip0_3747_19852">
<rect width="183" height="22" fill="white" transform="translate(0.833313)"/>
</clipPath>
</defs>
</svg>
