<svg width="105" height="30" viewBox="0 0 105 30" fill="none" xmlns="http://www.w3.org/2000/svg">
<g clip-path="url(#clip0_3749_20102)">
<path d="M17.5341 0.0598721L0.0625 8.37729L4.41594 25.4079L7.72896 24.9897L6.81792 14.2814L7.90576 13.7832L9.78442 24.7297L15.4468 24.0151L14.4401 12.1956L15.5175 11.703L17.5836 23.7459L23.3113 23.0221L22.2093 10.0664L23.2988 9.56824L25.5577 22.7386L31.2201 22.0238V3.58398L17.5341 0.0598721ZM17.9445 25.8898L18.2328 27.5661L31.2203 29.792V24.2133L17.9515 25.8896L17.9445 25.8898ZM43.5035 22.3948V24.6914H46.2574C46.2578 25.1572 46.1408 25.6151 45.918 26.0207C45.6849 26.4247 45.3401 26.7482 44.9275 26.9499C44.434 27.1816 43.8952 27.2936 43.3529 27.2771C42.7268 27.295 42.1102 27.1175 41.5841 26.7682C41.0702 26.4015 40.6738 25.8864 40.4449 25.2879C40.1595 24.5397 40.023 23.7402 40.0434 22.9368C40.0225 22.1396 40.1623 21.3466 40.4538 20.6075C40.6922 20.0185 41.0916 19.5132 41.6036 19.1527C42.1199 18.8082 42.7253 18.632 43.3406 18.6473C43.661 18.6444 43.9801 18.6879 44.2887 18.7764C44.5633 18.8572 44.8224 18.9857 45.0548 19.1564C45.2754 19.3198 45.4658 19.5224 45.6172 19.7546C45.7755 20.0031 45.8949 20.2755 45.971 20.562H49.0259C48.946 19.903 48.7379 19.2672 48.414 18.6926C48.0916 18.1257 47.6686 17.6262 47.1668 17.2198C46.641 16.7973 46.0479 16.4718 45.4138 16.2579C44.7251 16.0275 44.0047 15.9132 43.2805 15.9196C42.4332 15.9124 41.5924 16.0729 40.8041 16.3924C40.0466 16.7024 39.3617 17.1741 38.7946 17.7762C38.2011 18.4124 37.7427 19.1685 37.4484 19.9964C37.1123 20.9545 36.9486 21.9675 36.9654 22.9858C36.9654 24.4333 37.2331 25.6813 37.7685 26.7297C38.2748 27.7398 39.0543 28.5778 40.0133 29.1428C40.9849 29.6757 42.0645 29.9671 43.1655 29.9936C44.2665 30.0201 45.3582 29.781 46.3531 29.2955C47.2139 28.8466 47.9307 28.1522 48.4175 27.2955C48.9187 26.4238 49.1687 25.3812 49.1676 24.1678V22.3931L43.5035 22.3948ZM81.5405 29.8157V16.0979H90.6802V18.6361H84.5563V21.6837H89.5075V24.2221H84.5563V27.2771H90.6943V29.8155L81.5405 29.8157ZM99.5533 20.1237C99.5398 19.8879 99.4769 19.6579 99.3688 19.4494C99.2607 19.241 99.11 19.0591 98.927 18.9162C98.5572 18.6272 98.0424 18.4835 97.3899 18.4835C97.0128 18.4705 96.6368 18.5322 96.2825 18.6652C96.0151 18.7655 95.7804 18.9406 95.6048 19.1709C95.4528 19.3813 95.3704 19.6362 95.3698 19.8983C95.3614 20.1072 95.4098 20.3143 95.5093 20.4966C95.6143 20.6777 95.7598 20.8304 95.9339 20.9419C96.138 21.078 96.3579 21.1874 96.5884 21.2676C96.8571 21.3638 97.1312 21.4433 97.4092 21.5058L98.5819 21.7859C99.1568 21.9115 99.7171 22.0992 100.254 22.3458C100.719 22.5591 101.149 22.8463 101.527 23.1968C101.874 23.5212 102.15 23.9172 102.337 24.3587C102.534 24.8352 102.631 25.3487 102.622 25.8661C102.642 26.6493 102.423 27.4193 101.996 28.0682C101.545 28.7126 100.921 29.2085 100.201 29.4956C99.3026 29.8521 98.3449 30.0226 97.3826 29.9974C96.406 30.0189 95.4347 29.8453 94.5224 29.4864C93.7541 29.1797 93.0933 28.6425 92.626 27.9446C92.1744 27.2584 91.9385 26.4026 91.9184 25.3771H94.8248C94.8286 25.7731 94.9501 26.1585 95.173 26.4816C95.3959 26.8046 95.7096 27.0499 96.072 27.1845C96.4807 27.3441 96.9154 27.4218 97.3526 27.4135C97.7539 27.4225 98.1532 27.3553 98.5307 27.2153C98.8288 27.1071 99.0933 26.9189 99.2966 26.67C99.4758 26.4384 99.5737 26.1514 99.5743 25.8554C99.5771 25.59 99.4881 25.3321 99.3232 25.1278C99.1211 24.9012 98.8703 24.7262 98.5909 24.6168C98.1962 24.4514 97.7884 24.3212 97.372 24.2276L95.9445 23.8731C94.8066 23.5943 93.9086 23.1543 93.2505 22.553C92.5925 21.9518 92.2659 21.1371 92.2706 20.1091C92.2498 19.3204 92.4809 18.5463 92.9285 17.9053C93.3972 17.2535 94.0285 16.744 94.7558 16.4306C95.5944 16.065 96.4984 15.8847 97.4092 15.9015C98.3157 15.8806 99.2159 16.0611 100.048 16.4306C100.755 16.7469 101.362 17.2595 101.801 17.9109C102.223 18.5635 102.445 19.3311 102.438 20.1147L99.5533 20.1237ZM79.3893 29.8157H76.4052V19.3873L76.0992 19.3836L73.0849 29.8157H70.1025L67.1698 19.3836L66.7893 19.3873V29.8157H63.8051V16.0979H68.8766L71.4381 25.2916H71.7476L74.3089 16.0979H79.3893V29.8157ZM59.107 29.8157H62.3387L57.8582 16.0997H53.7631L49.2753 29.8157H52.5124L53.3845 26.808H58.2349L59.107 29.8157ZM54.078 24.4151L55.5319 19.3873H56.0804L57.5414 24.4151H54.078ZM103.356 17.5489C103.218 17.5485 103.082 17.5062 102.967 17.4273C102.851 17.3484 102.761 17.2364 102.707 17.1052C102.67 17.016 102.652 16.9202 102.652 16.8234C102.652 16.7266 102.67 16.6308 102.707 16.5416C102.742 16.4554 102.793 16.377 102.857 16.3107C102.922 16.2449 102.998 16.1919 103.082 16.1542C103.258 16.0813 103.455 16.0813 103.63 16.1542C103.714 16.1915 103.79 16.2446 103.855 16.3107C103.92 16.3771 103.971 16.4555 104.007 16.5416C104.044 16.6308 104.062 16.7266 104.062 16.8234C104.062 16.9202 104.044 17.016 104.007 17.1052C103.971 17.1914 103.92 17.2697 103.855 17.3362C103.791 17.4027 103.714 17.4559 103.63 17.4927C103.544 17.53 103.45 17.5491 103.356 17.5489ZM103.356 17.3507C103.448 17.3518 103.538 17.3274 103.616 17.2799C103.692 17.2362 103.756 17.1737 103.802 17.0982C103.847 17.0174 103.871 16.9258 103.871 16.8326C103.871 16.7394 103.847 16.6479 103.802 16.5671C103.755 16.4915 103.691 16.4291 103.614 16.3853C103.536 16.3389 103.447 16.3145 103.356 16.3145C103.266 16.3145 103.177 16.3389 103.098 16.3853C103.026 16.4306 102.965 16.4929 102.921 16.5671C102.875 16.6474 102.85 16.7391 102.85 16.8325C102.85 16.9259 102.875 17.0176 102.921 17.098C102.965 17.1722 103.026 17.2345 103.098 17.2797C103.176 17.327 103.266 17.3515 103.356 17.3507ZM103.098 17.1416V16.4745H103.413C103.455 16.4736 103.497 16.4829 103.535 16.5016C103.569 16.5184 103.598 16.5449 103.618 16.578C103.639 16.6143 103.649 16.6558 103.648 16.6979C103.65 16.7403 103.638 16.7821 103.616 16.8179C103.597 16.8516 103.567 16.8778 103.531 16.8927C103.493 16.9108 103.45 16.9195 103.408 16.9179H103.195V16.7871H103.372C103.395 16.7883 103.418 16.7805 103.436 16.7653C103.444 16.7564 103.451 16.7458 103.455 16.7342C103.459 16.7227 103.461 16.7103 103.461 16.6979C103.462 16.6855 103.46 16.673 103.456 16.6614C103.451 16.6498 103.444 16.6392 103.436 16.6306C103.418 16.6153 103.395 16.6075 103.372 16.6088H103.275V17.1416H103.098ZM103.521 16.836L103.666 17.1418H103.469L103.337 16.836H103.521ZM50.0183 0.187092H53.0343V13.9048H50.0183V0.187092ZM67.3572 7.04607C67.3572 8.55162 67.0794 9.82453 66.5239 10.8648C66.0079 11.8689 65.2228 12.7 64.2615 13.2595C63.2732 13.8016 62.1702 14.0851 61.0501 14.0851C59.9299 14.0851 58.827 13.8016 57.8387 13.2595C56.8771 12.6978 56.092 11.8649 55.5762 10.8593C55.0207 9.80942 54.743 8.53651 54.743 7.04052C54.743 5.54466 55.0207 4.26883 55.5762 3.21301C56.0911 2.21185 56.8736 1.38283 57.8316 0.82362C58.8203 0.282828 59.9231 0 61.0431 0C62.1631 0 63.2659 0.282828 64.2546 0.82362C65.2159 1.3832 66.0009 2.21426 66.5168 3.21835C67.0723 4.26576 67.3501 5.54167 67.3501 7.04607M64.281 7.04607C64.3039 6.23895 64.1698 5.43525 63.8865 4.68213C63.6623 4.09356 63.2725 3.58711 62.7668 3.22755C62.2494 2.90063 61.654 2.72756 61.0466 2.72756C60.4393 2.72756 59.8439 2.90063 59.3265 3.22755C58.8202 3.58735 58.4292 4.09361 58.2031 4.68213C57.671 6.21065 57.671 7.8815 58.2031 9.41002C58.4284 9.99895 58.8194 10.5054 59.3263 10.8646C59.8437 11.1916 60.4392 11.3647 61.0465 11.3647C61.6539 11.3647 62.2494 11.1916 62.7668 10.8646C63.2731 10.5057 63.6631 9.99903 63.8865 9.41002C64.1696 8.65683 64.3037 7.85318 64.281 7.04607ZM43.6801 9.12265L45.2297 13.9048H48.5392L46.8167 8.7536H44.4765L44.3368 8.30972C44.7825 8.22078 45.545 8.08244 46.2206 7.60969C46.6939 7.27874 47.082 6.83466 47.3516 6.31559C47.6213 5.79652 47.7643 5.21795 47.7686 4.62953C47.7888 3.81675 47.5891 3.01414 47.1918 2.31113C46.8035 1.63036 46.2272 1.08352 45.5361 0.740019C44.7257 0.354209 43.8392 0.167404 42.9465 0.194362H37.5634V13.9048H40.5815V9.12265H43.6801ZM43.6235 6.28425C43.2127 6.43948 42.7768 6.51228 42.3393 6.49871H40.5809V2.70562H42.3339C42.7718 2.69269 43.2077 2.76937 43.6165 2.9312C43.9397 3.06331 44.2127 3.29925 44.3948 3.60386C44.5804 3.91103 44.6728 4.26814 44.66 4.62953C44.6744 4.98544 44.5832 5.33744 44.3983 5.63874C44.2153 5.93489 43.9433 6.16154 43.6235 6.28425ZM67.6417 0.187092V2.73299H72.8246L72.9661 3.17837C72.5274 3.26561 71.7863 3.40031 71.1211 3.85125V13.9085H74.1053V2.72572H77.576V0.179609L67.6417 0.187092Z" fill="#EB0029"/>
</g>
<defs>
<clipPath id="clip0_3749_20102">
<rect width="104" height="30" fill="white" transform="translate(0.0625)"/>
</clipPath>
</defs>
</svg>
