<svg width="125" height="20" viewBox="0 0 125 20" fill="none" xmlns="http://www.w3.org/2000/svg">
<g clip-path="url(#clip0_3749_19964)">
<path fill-rule="evenodd" clip-rule="evenodd" d="M21.2418 3.71554L23.0347 3.37219L21.5355 3.04417L22.3206 2.10303L20.9512 2.46477L21.2047 1.12204L20.2527 1.73516L19.8137 -0.00610352L19.4273 1.9896L18.2589 1.10058L18.6422 2.29617L17.5448 2.09997L18.4722 3.09629L16.8988 3.40285L18.4907 3.7462L17.8509 4.45435L18.8369 4.38384L18.3794 5.72045L19.4768 4.61683L19.7859 6.39488L20.1321 4.61683L20.9729 5.50585L20.8956 4.39304L22.1042 4.81303L21.2418 3.71554ZM20.6236 3.24344C20.6236 3.38882 20.5802 3.53095 20.4988 3.65187C20.4174 3.7728 20.3017 3.8671 20.1663 3.92288C20.031 3.97865 19.882 3.9934 19.7381 3.96526C19.5943 3.93712 19.4621 3.86735 19.3582 3.76476C19.2544 3.66217 19.1835 3.53136 19.1545 3.38884C19.1255 3.24633 19.1398 3.09849 19.1954 2.964C19.2511 2.8295 19.3457 2.71439 19.4673 2.63318C19.5889 2.55196 19.732 2.5083 19.8786 2.50769C19.9767 2.50688 20.074 2.5253 20.1649 2.56187C20.2558 2.59845 20.3385 2.65246 20.4083 2.72082C20.4781 2.78919 20.5336 2.87054 20.5716 2.96023C20.6096 3.04991 20.6294 3.14616 20.6298 3.24344H20.6236Z" fill="#D9232E"/>
<path d="M122.902 7.20728H123.177C123.363 7.20728 123.403 7.29618 123.403 7.39121C123.403 7.48624 123.363 7.56595 123.177 7.57515H122.902V7.20728ZM123.14 7.71617C123.172 7.71226 123.205 7.71516 123.236 7.72468C123.267 7.73419 123.295 7.7501 123.32 7.77135C123.369 7.85022 123.394 7.94204 123.391 8.03499C123.401 8.10822 123.416 8.18087 123.434 8.25265H123.61C123.573 8.13707 123.548 8.01785 123.536 7.89704C123.542 7.84137 123.526 7.78562 123.492 7.74079C123.459 7.69597 123.409 7.6653 123.354 7.65485C123.419 7.64056 123.478 7.6039 123.519 7.55126C123.56 7.49861 123.582 7.4333 123.579 7.36669C123.577 7.31834 123.564 7.27111 123.541 7.2283C123.518 7.1855 123.486 7.14816 123.447 7.11894C123.409 7.08971 123.364 7.0693 123.316 7.05914C123.268 7.04897 123.219 7.04931 123.171 7.06013H122.745V8.24958H122.902V7.71923H123.134L123.14 7.71617Z" fill="#D9232E"/>
<path d="M123.987 7.65798C123.987 7.82775 123.937 7.9937 123.841 8.13486C123.746 8.27602 123.611 8.38604 123.453 8.45101C123.295 8.51597 123.121 8.53297 122.953 8.49985C122.785 8.46673 122.631 8.38498 122.51 8.26494C122.389 8.14489 122.306 7.99194 122.273 7.82544C122.24 7.65893 122.257 7.48634 122.322 7.32949C122.388 7.17265 122.499 7.03859 122.641 6.94427C122.783 6.84995 122.951 6.79961 123.122 6.79961C123.351 6.79961 123.572 6.89004 123.734 7.05102C123.896 7.21199 123.987 7.43032 123.987 7.65798ZM123.122 6.62793C122.917 6.62854 122.716 6.68947 122.546 6.80302C122.375 6.91657 122.243 7.07765 122.164 7.26592C122.086 7.45418 122.066 7.66119 122.107 7.8608C122.147 8.06041 122.246 8.24366 122.392 8.3874C122.537 8.53115 122.722 8.62895 122.923 8.66845C123.125 8.70794 123.333 8.68737 123.523 8.60932C123.713 8.53126 123.875 8.39924 123.989 8.22992C124.103 8.0606 124.164 7.86157 124.164 7.65798C124.164 7.52245 124.137 7.38826 124.084 7.26309C124.032 7.13792 123.955 7.02423 123.858 6.92854C123.761 6.83285 123.647 6.75704 123.52 6.70546C123.394 6.65388 123.258 6.62753 123.122 6.62793Z" fill="#D9232E"/>
<path d="M10.7815 2.91545L9.3225 7.94917C9.1802 8.50938 9.07181 9.07753 8.99793 9.65058H8.87738L7.09381 2.90625H2.25931L0.166626 15.7358H4.71056L5.25769 10.2606C5.31024 9.75174 5.34424 9.22446 5.37824 8.72783H5.5328C5.58056 9.26911 5.67887 9.80482 5.82645 10.3281L7.50493 15.7358H10.2498L12.1045 9.98779C12.2329 9.56914 12.3361 9.14329 12.4136 8.7125H12.4971L13.1462 15.7358H17.6901L15.5666 2.91545H10.7815Z" fill="#D9232E"/>
<path d="M22.1321 9.85291V6.7076H17.7056V15.7358H22.1321V12.7438C22.7163 14.8222 24.571 15.9412 26.9944 15.9412C27.7551 15.9147 28.507 15.771 29.2231 15.5151L29.4117 11.8088C28.8986 12.1674 28.3823 12.5047 27.6992 12.5047C27.5246 12.499 27.3529 12.4593 27.1938 12.3879C27.0347 12.3164 26.8914 12.2146 26.772 12.0882C26.6526 11.9618 26.5595 11.8133 26.4979 11.6512C26.4364 11.4892 26.4076 11.3166 26.4133 11.1435C26.419 10.9704 26.459 10.8001 26.531 10.6423C26.6031 10.4846 26.7058 10.3424 26.8332 10.224C26.9606 10.1056 27.1104 10.0132 27.2738 9.95215C27.4372 9.89111 27.6112 9.8626 27.7857 9.86823C28.4016 9.9157 28.9798 10.1812 29.4148 10.6162V6.96204C28.5173 6.66563 27.5786 6.51047 26.6328 6.5022C25.6135 6.484 24.6173 6.80372 23.802 7.41069C22.9867 8.01766 22.399 8.87715 22.1321 9.85291Z" fill="#D9232E"/>
<path d="M117.304 6.53898L115.725 10.0767L115.283 11.4531H115.175L115.138 10.0767L114.68 6.53898H105.858L105.771 7.8296H105.651C105.451 7.36427 105.111 6.97118 104.678 6.7036C104.245 6.43601 103.74 6.30684 103.231 6.33359C101.027 6.33359 99.3759 8.21893 98.7546 10.1932C98.5228 7.86332 96.5599 6.493 93.9263 6.493C92.9627 6.47948 92.0094 6.69079 91.1433 7.10987C90.2772 7.52896 89.5226 8.14409 88.9403 8.90563L89.2834 6.75971L87.7997 6.82715L88.2819 3.79833H83.8276L83.3361 6.82715L82.4088 6.7689V6.72292H78.0812L78.0503 7.79588H77.9452C77.4352 6.90992 76.5882 6.52059 75.4909 6.52059C73.3271 6.52059 71.7476 8.25265 71.0644 10.1503L71.6332 6.58803C70.1495 6.55431 69.3025 6.80875 68.3226 7.99821H68.2206L68.5297 6.79036H64.094L62.5855 6.85167L63.0677 3.82592H58.6072L58.1281 6.84554L57.0617 6.78423L56.6227 9.54327C56.1714 8.64199 55.2225 8.1147 54.0077 7.83573L52.9845 7.59662C52.6383 7.51078 52.0572 7.44334 52.1406 6.96817C52.2272 6.44088 52.8485 6.2876 53.2627 6.2876C54.2006 6.3139 55.1026 6.65058 55.8252 7.24407L57.6181 3.96081C56.4581 3.19781 55.09 2.80618 53.6985 2.8388C50.8856 2.8388 47.8254 4.54021 47.3339 7.58435C47.0248 9.59232 48.3849 10.65 50.1685 10.9841L51.0958 11.1558C51.51 11.2416 52.119 11.2907 52.0232 11.8701C51.9273 12.4495 51.1638 12.6365 50.7002 12.6365C49.6709 12.5927 48.6938 12.1747 47.9553 11.4623C47.9553 11.4623 47.8594 11.3734 47.6956 11.2048C47.6245 8.13923 45.1393 6.50526 42.1811 6.50526C40.2244 6.50526 38.4717 7.21955 37.4949 8.58681V6.5022C36.005 6.46847 35.1982 6.72292 34.4038 7.91237H34.3018L34.4038 6.70452H29.9835V15.7358H34.4069V12.2686C34.4069 11.1466 34.9911 10.466 36.1379 10.466C36.3361 10.4663 36.5327 10.5006 36.7191 10.5672C36.6814 10.821 36.6618 11.0771 36.6603 11.3336C36.6603 14.3256 39.3372 15.932 42.1811 15.932C43.4548 15.9517 44.7058 15.5965 45.776 14.9111C47.2415 15.6583 48.8639 16.0521 50.5116 16.0607C53.2936 16.0607 56.36 14.5463 56.8484 11.4869C56.9239 11.062 56.9239 10.6273 56.8484 10.2024L57.6119 10.1441L56.7155 15.7542H61.1729L62.0693 10.1441L63.553 10.233L62.6628 15.8094H67.0769L67.6302 12.3391C67.8095 11.2171 68.4988 10.5365 69.6487 10.5365C70.08 10.5454 70.4958 10.6976 70.8295 10.9688C70.8079 11.0699 70.7862 11.1711 70.7708 11.2753C70.4215 13.4672 71.389 15.9504 73.8619 15.9504C75.0983 15.9504 75.9206 15.4078 76.8633 14.5555H76.9654L76.6408 15.7358H80.9683L81.8555 10.184L82.8076 10.1104L81.9204 15.7358H86.3778L87.2742 10.1257L88.2479 10.1809C88.1026 10.5643 87.9989 10.9621 87.9388 11.3673C87.4442 14.4789 89.8306 15.9412 92.696 15.9412C94.7887 15.9412 97.4007 14.9387 98.3311 12.7622H94.0098C93.9389 12.9746 93.8039 13.1602 93.6231 13.294C93.4423 13.4278 93.2244 13.5033 92.999 13.5102C92.0716 13.5102 92.0716 12.6947 92.2014 11.9774H98.4826C98.4826 13.9332 99.549 15.7971 101.704 15.7971C102.748 15.7971 104.013 15.2882 104.615 14.3011H104.736L104.504 15.2208C104.223 16.3428 103.363 17.2104 102.164 17.2104C101.056 17.2265 99.9818 16.8331 99.1503 16.1067L97.6851 19.1509L98.1086 19.3042C99.3146 19.7862 100.604 20.0288 101.904 20.0184C105.076 20.0184 108.22 18.5899 108.782 15.0706L110.062 7.05094L112.501 14.6966L109.41 19.3226H114.071L121.95 6.53898H117.314H117.304ZM42.382 12.5476C42.0541 12.5476 41.7396 12.4184 41.5077 12.1884C41.2758 11.9584 41.1455 11.6465 41.1455 11.3213C41.1455 10.9961 41.2758 10.6842 41.5077 10.4542C41.7396 10.2243 42.0541 10.0951 42.382 10.0951C42.7099 10.0951 43.0244 10.2243 43.2563 10.4542C43.4882 10.6842 43.6184 10.9961 43.6184 11.3213C43.6184 11.6465 43.4882 11.9584 43.2563 12.1884C43.0244 12.4184 42.7099 12.5476 42.382 12.5476ZM77.5125 11.1588C77.4012 11.8547 76.953 12.52 76.1122 12.52C75.2714 12.52 75.0612 11.9069 75.1849 11.1956C75.2288 10.8669 75.3878 10.564 75.6342 10.3398C75.8806 10.1156 76.1986 9.98451 76.5326 9.96939C77.225 9.951 77.6238 10.4599 77.5125 11.1588ZM94.6372 10.0736V10.1257H92.424V10.0522C92.4447 9.77141 92.5537 9.50417 92.7356 9.28805C92.9174 9.07193 93.1631 8.91781 93.4379 8.84738C93.5143 8.83286 93.5919 8.82568 93.6697 8.82592C93.8051 8.82178 93.9397 8.84707 94.0641 8.90003C94.1885 8.95299 94.2998 9.03234 94.39 9.13248C94.4984 9.26168 94.5768 9.41301 94.6195 9.57568C94.6623 9.73835 94.6683 9.90837 94.6372 10.0736ZM105.283 11.0791C105.175 11.7597 104.72 12.336 103.966 12.336C103.212 12.336 102.804 11.7934 102.918 11.0607C102.965 10.7117 103.135 10.3903 103.398 10.154C103.662 9.91762 104.001 9.7816 104.356 9.77013C105.085 9.77013 105.394 10.3986 105.283 11.0791Z" fill="#D9232E"/>
</g>
<defs>
<clipPath id="clip0_3749_19964">
<rect width="124" height="20" fill="white" transform="translate(0.166626)"/>
</clipPath>
</defs>
</svg>
