<svg width="117" height="22" viewBox="0 0 117 22" fill="none" xmlns="http://www.w3.org/2000/svg">
<g clip-path="url(#clip0_3749_20202)">
<path d="M31.1237 16.2371V7.60062H27.3372V5.75659H36.8199V7.60062H33.0366V16.2371H31.1237Z" fill="black"/>
<path d="M49.6019 5.75659H51.4881L48.8396 16.2371H47.1153L44.668 8.96645L42.1955 16.2371H40.5278L37.8557 5.75659H39.7592L41.5243 13.0487L43.9968 5.75659H45.3737L47.832 13.0548L49.6019 5.75659Z" fill="black"/>
<path d="M57.3117 16.3595C56.2215 16.3574 55.1563 16.0414 54.2508 15.4513C53.3452 14.8613 52.6397 14.0236 52.2235 13.0442C51.8073 12.0648 51.699 10.9875 51.9122 9.94823C52.1254 8.909 52.6507 7.95448 53.4216 7.20516C54.1925 6.45585 55.1745 5.94534 56.2437 5.73809C57.3129 5.53083 58.4213 5.63612 59.4289 6.04067C60.4366 6.44522 61.2984 7.13089 61.9054 8.01111C62.5125 8.89132 62.8376 9.92663 62.8398 10.9863C62.8394 12.4113 62.2568 13.7777 61.2202 14.7853C60.1836 15.7929 58.7777 16.3591 57.3117 16.3595ZM53.7641 11.0001C53.7641 11.6833 53.9726 12.3511 54.3631 12.9192C54.7536 13.4872 55.3086 13.93 55.958 14.1914C56.6074 14.4529 57.322 14.5213 58.0113 14.388C58.7007 14.2547 59.334 13.9257 59.831 13.4426C60.328 12.9595 60.6665 12.344 60.8036 11.674C60.9407 11.0039 60.8704 10.3094 60.6014 9.67816C60.3324 9.04697 59.8769 8.50748 59.2924 8.12792C58.708 7.74835 58.0209 7.54576 57.318 7.54576C56.376 7.54738 55.473 7.91183 54.8069 8.55929C54.1408 9.20675 53.7658 10.0844 53.7641 11.0001Z" fill="black"/>
<path d="M71.8463 16.3595C69.4509 16.3595 67.9467 15.2335 67.4767 13.0626H69.5908C69.9774 14.0862 70.658 14.517 71.9234 14.5231C73.2232 14.5231 73.8976 13.9426 73.8976 13.2474C73.8976 12.7479 73.6791 12.3522 72.626 12.1413L70.658 11.7441C68.6634 11.3423 67.8005 10.447 67.8005 8.93147C67.8005 7.29369 69.3031 5.63452 71.818 5.63452C73.9321 5.63452 75.5118 6.85674 75.8356 8.9666H73.8614C73.547 7.94147 72.8366 7.47091 71.741 7.47091C70.4977 7.47091 69.8721 8.11258 69.8863 8.79549C69.9004 9.42341 70.2871 9.75036 71.2915 9.94897L73.3003 10.3523C75.2525 10.7404 76.0462 11.5394 76.0462 13.1023C76.0462 15.0227 74.3188 16.3595 71.8463 16.3595Z" fill="black"/>
<path d="M77.6274 16.2371V5.75659H79.5372V16.2371H77.6274Z" fill="black"/>
<path d="M86.5412 16.3595C85.8167 16.3618 85.0988 16.2254 84.4285 15.958C83.7582 15.6907 83.1487 15.2976 82.6347 14.8013C82.1207 14.305 81.7123 13.7151 81.4329 13.0654C81.1534 12.4157 81.0084 11.7188 81.006 11.0146C81.0036 10.3104 81.144 9.6126 81.4191 8.96111C81.6941 8.30962 82.0985 7.71717 82.6091 7.21758C83.1198 6.718 83.7266 6.32106 84.3951 6.04944C85.0635 5.77782 85.7805 5.63683 86.505 5.63452C88.7323 5.63452 90.6923 6.92397 91.5773 8.9666H89.3437C89.0264 8.52365 88.6031 8.16231 88.1103 7.91373C87.6174 7.66514 87.0697 7.53677 86.5144 7.53966C85.8732 7.5405 85.2442 7.70972 84.6938 8.02942C84.1434 8.34913 83.6921 8.80744 83.3876 9.35591C83.083 9.90438 82.9367 10.5226 82.9639 11.1453C82.9911 11.768 83.1909 12.3719 83.5421 12.8933C83.8934 13.4147 84.383 13.8342 84.9593 14.1074C85.5356 14.3806 86.1772 14.4974 86.8162 14.4454C87.4551 14.3934 88.0678 14.1745 88.5893 13.812C89.1109 13.4495 89.5219 12.9567 89.7791 12.3858H86.7518V10.5417H91.6055V16.2358H89.9834V14.8195C89.0844 15.9165 87.8395 16.3595 86.5412 16.3595Z" fill="black"/>
<path d="M98.5326 16.2371L95.2805 9.34076V16.2371H93.3943V5.75659H95.5021L99.0528 13.2534L102.593 5.75659H104.652V16.2371H102.747V9.34076L99.4945 16.2371H98.5326Z" fill="black"/>
<path d="M107.644 16.2371H105.559L110.117 5.75659H111.571L116.2 16.2371H114.106L113.32 14.4145H108.41L107.644 16.2371ZM109.169 12.598H112.555L110.841 8.59673L109.169 12.598Z" fill="black"/>
<path d="M10.4025 10.9695C11.0422 10.3477 11.3377 9.76711 11.3377 9.02919C11.3437 8.33201 11.0691 7.66016 10.5726 7.15702C10.076 6.65388 9.3968 6.35932 8.67989 6.33619C7.96298 6.31306 7.26517 6.5632 6.73537 7.03323C6.20558 7.50326 5.88577 8.15594 5.84421 8.85197H7.23684C7.28082 8.51571 7.45545 8.20854 7.72495 7.99341C7.99445 7.77828 8.3384 7.67149 8.68631 7.69494C9.03421 7.71838 9.35971 7.87027 9.59609 8.11949C9.83247 8.3687 9.96183 8.69636 9.95765 9.0353C9.95765 9.39739 9.81776 9.72586 9.43109 10.1047L5.81592 13.611V14.9096H11.4414V13.5881H7.70053L10.4025 10.9695Z" fill="white"/>
<path d="M17.1235 9.8634H18.2237L19.434 8.68701H15.4495C13.3825 8.68701 11.9192 10.062 11.9192 11.8312C11.9204 12.662 12.2598 13.4587 12.8632 14.0472C13.4666 14.6357 14.285 14.9683 15.1398 14.9723C15.9885 14.9792 16.8052 14.6584 17.4106 14.0803C18.016 13.5022 18.3605 12.7141 18.3683 11.8892C18.3683 11.1712 18.0524 10.389 17.1235 9.8634ZM15.1257 13.6828C14.6221 13.6828 14.1392 13.4884 13.7831 13.1423C13.427 12.7962 13.2269 12.3268 13.2269 11.8373C13.2269 11.3478 13.427 10.8784 13.7831 10.5323C14.1392 10.1862 14.6221 9.99173 15.1257 9.99173C15.6293 9.99173 16.1122 10.1862 16.4683 10.5323C16.8244 10.8784 17.0244 11.3478 17.0244 11.8373C17.0244 12.3268 16.8244 12.7962 16.4683 13.1423C16.1122 13.4884 15.6293 13.6828 15.1257 13.6828Z" fill="white"/>
<path d="M17.0606 11.8311C17.0524 12.3242 16.8447 12.7942 16.4826 13.1396C16.1205 13.485 15.6331 13.6779 15.1257 13.6767C14.6222 13.6767 14.1392 13.4822 13.7831 13.1361C13.427 12.79 13.227 12.3206 13.227 11.8311C13.227 11.3416 13.427 10.8722 13.7831 10.5261C14.1392 10.18 14.6222 9.98556 15.1257 9.98556C15.6327 9.98547 16.1195 10.1788 16.4813 10.5239C16.8431 10.8691 17.0512 11.3384 17.0606 11.8311ZM23.1341 11L21.7195 12.375L13.2317 20.625L11.8171 22L10.4024 20.625L1.91463 12.375L0.5 11L1.91463 9.625L10.4024 1.375L11.8171 0L13.2317 1.375L21.7195 9.625L23.1341 11ZM11.4414 14.9065V13.5881H7.70049L10.4024 10.9694C11.0422 10.3476 11.3377 9.76708 11.3377 9.02917C11.3437 8.33198 11.0691 7.66013 10.5725 7.15699C10.076 6.65386 9.39676 6.35929 8.67985 6.33616C7.96294 6.31304 7.26513 6.56318 6.73533 7.0332C6.20554 7.50323 5.88574 8.15591 5.84417 8.85194H7.2368C7.28078 8.51569 7.45542 8.20851 7.72492 7.99338C7.99442 7.77825 8.33837 7.67147 8.68627 7.69491C9.03417 7.71835 9.35967 7.87025 9.59605 8.11946C9.83243 8.36868 9.96179 8.69634 9.95761 9.03528C9.95761 9.39736 9.81772 9.72583 9.43106 10.1047L5.81588 13.611V14.9096L11.4414 14.9065ZM17.1235 9.86486H18.2238L19.4341 8.68847H15.4495C13.3826 8.68847 11.9192 10.0635 11.9192 11.8326C11.9209 12.6632 12.2604 13.4595 12.8638 14.0477C13.4672 14.6358 14.2854 14.9682 15.1399 14.9722C15.9885 14.9791 16.8053 14.6583 17.4107 14.0802C18.016 13.5021 18.3605 12.714 18.3684 11.8892C18.3684 11.1711 18.0525 10.3889 17.1235 9.86333V9.86486Z" fill="#00A5BD"/>
</g>
<defs>
<clipPath id="clip0_3749_20202">
<rect width="116" height="22" fill="white" transform="translate(0.5)"/>
</clipPath>
</defs>
</svg>
