<svg width="127" height="22" viewBox="0 0 127 22" fill="none" xmlns="http://www.w3.org/2000/svg">
<g clip-path="url(#clip0_3749_19972)">
<path d="M53.9659 4.03613C52.3324 4.03613 50.6355 4.45971 48.5354 5.52977L49.7021 8.27461C51.526 7.30579 53.0325 6.88221 54.1358 6.88221C55.3874 6.88221 55.9391 7.32621 55.9391 7.91141V7.95137C55.9391 8.35542 55.5993 8.57742 54.7723 8.65823L53.3302 8.79942C49.7236 9.16262 48.2386 10.6563 48.2386 12.7147V12.8559C48.2386 14.8139 49.9355 16.3475 52.3324 16.3475C53.9108 16.3475 55.282 15.7135 56.1155 14.5946L56.3843 16.1459H59.6512V9.10224C59.6512 5.77219 57.636 4.03613 53.9659 4.03613ZM53.6476 13.6622C52.4389 13.6622 51.8658 13.2182 51.8658 12.5317V12.4918C51.8658 11.8862 52.226 11.4421 53.5412 11.261L54.1143 11.1802C54.9515 11.0692 55.4658 10.9227 55.9391 10.65V11.5434C55.9391 12.8958 55.0477 13.6622 53.6476 13.6622Z" fill="black"/>
<path d="M12.7659 14.0838L23.2479 4.11674L19.0663 0.141113L14.8847 4.11674L16.9662 6.09523L6.48883 16.064L10.6658 20.0423L14.8474 16.064L12.7659 14.0838Z" fill="#F04E23"/>
<path d="M10.7107 0.140077L0.229858 10.1113L4.40899 14.0873L14.8898 4.11602L10.7107 0.140077Z" fill="#F04E23"/>
<path d="M25.3259 6.09955L14.8451 16.0708L19.0242 20.0467L29.5051 10.0755L25.3259 6.09955Z" fill="#F04E23"/>
<path d="M65.4811 0H61.769V16.144H65.4811V0Z" fill="black"/>
<path d="M41.9998 4.03602C40.3122 4.03602 38.9569 4.74643 38.2112 5.85911L37.9274 4.2376H34.6605V20.1774H38.3726V14.6513C39.0792 15.6876 40.4158 16.343 41.9998 16.343C44.9699 16.343 47.3883 13.8406 47.3883 10.3889V9.98481C47.3883 6.53577 44.9699 4.03247 41.9998 4.03247M43.5698 10.2894C43.5698 12.1054 42.5729 13.4179 40.918 13.4179C39.2631 13.4179 38.2662 12.1063 38.2662 10.2894V10.0878C38.2662 8.27095 39.2631 6.95936 40.918 6.95936C42.5729 6.95936 43.5698 8.27095 43.5698 10.0878V10.2894Z" fill="black"/>
<path d="M115.598 4.03613C111.801 4.03613 109.128 6.53855 109.128 9.99025V10.3943C109.128 13.8451 111.801 16.3484 115.598 16.3484C119.395 16.3484 122.068 13.846 122.068 10.3943V9.99025C122.068 6.53944 119.395 4.03613 115.598 4.03613ZM118.25 10.2931C118.25 12.109 117.253 13.4215 115.598 13.4215C113.943 13.4215 112.946 12.1099 112.946 10.2931V10.0915C112.946 8.27461 113.943 6.96302 115.598 6.96302C117.253 6.96302 118.25 8.27461 118.25 10.0915V10.2931Z" fill="black"/>
<path d="M125.492 4.76326V4.70288C125.492 4.3601 125.216 4.11768 124.728 4.11768H123.88V5.97451H124.283V5.34846H124.731L125.068 5.97451H125.513L125.099 5.24012C125.351 5.16642 125.492 4.98704 125.492 4.76326ZM124.282 4.46045H124.727C124.982 4.46045 125.088 4.54126 125.088 4.7233V4.74372C125.088 4.90534 124.981 5.00569 124.727 5.00569H124.282V4.46045Z" fill="black"/>
<path d="M124.652 3.12842C123.506 3.12842 122.637 3.95604 122.637 5.04563C122.637 6.13522 123.506 6.96285 124.652 6.96285C125.797 6.96285 126.667 6.13522 126.667 5.04563C126.667 3.95604 125.797 3.12842 124.652 3.12842ZM124.652 6.7C123.655 6.7 122.933 6.01357 122.933 5.04475C122.933 4.07593 123.655 3.38949 124.652 3.38949C125.649 3.38949 126.37 4.07593 126.37 5.04475C126.37 6.01357 125.649 6.7 124.652 6.7Z" fill="black"/>
<path d="M98.2152 0H94.5031V16.144H98.2152V0Z" fill="black"/>
<path d="M105.517 13.4178C104.435 13.4178 104.032 12.9134 104.032 11.8238V6.95925H108.402V4.23483H104.032V1.50952L100.32 2.03434V12.1665C100.32 14.9318 101.805 16.3446 104.775 16.3446C106.09 16.3446 107.639 15.961 108.912 15.2746L107.852 12.7722C107.108 13.1558 106.069 13.4186 105.517 13.4186" fill="black"/>
<path d="M86.6533 4.03613C85.0199 4.03613 83.323 4.45971 81.2228 5.52977L82.3896 8.27461C84.2134 7.30579 85.7199 6.88221 86.8232 6.88221C88.0749 6.88221 88.6265 7.32621 88.6265 7.91141V7.95137C88.6265 8.35542 88.2868 8.57742 87.4598 8.65823L86.0177 8.79942C82.4111 9.16262 80.926 10.6563 80.926 12.7147V12.8559C80.926 14.8139 82.6229 16.3475 85.0199 16.3475C86.5973 16.3475 87.9694 15.7135 88.8029 14.5946L89.0717 16.1459H92.3386V9.10224C92.3386 5.77219 90.3234 4.03613 86.6533 4.03613ZM86.335 13.6622C85.1254 13.6622 84.5532 13.2182 84.5532 12.5317V12.4918C84.5532 11.8862 84.9135 11.4421 86.2286 11.261L86.8017 11.1802C87.639 11.0692 88.1533 10.9227 88.6256 10.65V11.5434C88.6256 12.8958 87.7351 13.6622 86.335 13.6622Z" fill="black"/>
<path d="M73.6044 4.03613C69.8074 4.03613 67.1342 6.53855 67.1342 9.99025V10.3943C67.1342 13.8451 69.8074 16.3484 73.6044 16.3484C77.4015 16.3484 80.0747 13.846 80.0747 10.3943V9.99025C80.0738 6.53944 77.4015 4.03613 73.6044 4.03613ZM76.2553 10.2931C76.2553 12.109 75.2584 13.4215 73.6035 13.4215C71.9486 13.4215 70.9517 12.1099 70.9517 10.2931V10.0915C70.9517 8.27461 71.9486 6.96302 73.6035 6.96302C75.2584 6.96302 76.2553 8.27461 76.2553 10.0915V10.2931Z" fill="black"/>
<path d="M91.0309 21.916L89.6868 20.2288H89.6775V21.916H88.8001V19.0122H89.7522L91.0683 20.655H91.0776V19.0122H91.955V21.916H91.0309Z" fill="black"/>
<path d="M94.0364 20.7527V21.2056H95.9032L95.8099 21.916H93.1124V19.0122H95.8099V19.7137H94.0364V20.1133H95.4365V20.7527H94.0364Z" fill="black"/>
<path d="M97.77 21.916V19.7581H96.65V19.0122H99.6368L99.7302 19.7581H98.6101V21.916H97.77Z" fill="black"/>
<path d="M104.21 21.028L104.677 19.0122H105.611L104.77 21.916H103.65L103.09 20.1577H102.997L102.437 21.916H101.224L100.477 19.0122H101.41L101.97 21.028L102.624 19.0122H103.557L104.117 21.028H104.21Z" fill="black"/>
<path d="M106.264 20.4597C106.264 19.5131 106.94 18.9199 108.008 18.9199C109.077 18.9199 109.754 19.5131 109.754 20.4597C109.754 21.4064 109.078 21.9995 108.008 21.9995C106.94 21.9995 106.264 21.4055 106.264 20.4597ZM108.842 20.4597C108.842 19.958 108.537 19.6587 108.008 19.6587C107.48 19.6587 107.175 19.958 107.175 20.4597C107.175 20.9623 107.48 21.2607 108.004 21.2607C108.532 21.2607 108.842 20.9615 108.842 20.4597Z" fill="black"/>
<path d="M110.744 19.0122H112.524C113.335 19.0122 113.733 19.3772 113.733 20.0538C113.733 20.5183 113.532 20.8344 113.139 20.9836L113.864 21.9178H112.826L112.263 21.1541H111.661V21.9178H110.744V19.0122ZM112.406 20.473C112.711 20.473 112.82 20.3114 112.82 20.0911C112.82 19.8709 112.711 19.7137 112.406 19.7137H111.66V20.473H112.406Z" fill="black"/>
<path d="M116.998 20.4064L118.211 21.9071V21.916H117.185L116.251 20.7971H115.878V21.916H114.944V19.0122H115.878V20.0778H116.251L117.091 19.0122H118.211L116.998 20.4064Z" fill="black"/>
<path d="M118.958 21.7207V20.9241H118.963C119.473 21.1692 119.971 21.2891 120.402 21.2891C120.73 21.2891 120.895 21.2145 120.895 21.0689C120.895 20.9233 120.786 20.886 120.131 20.7865C119.416 20.679 118.94 20.4748 118.94 19.8896C118.94 19.3461 119.442 18.927 120.423 18.927C120.816 18.927 121.226 19.006 121.606 19.1597V19.9482L121.601 19.9527C121.239 19.7537 120.751 19.6285 120.358 19.6285C120.009 19.6285 119.87 19.7076 119.87 19.8399C119.87 20.0104 120.084 20.0264 120.62 20.1143C121.335 20.2306 121.811 20.4215 121.811 21.036C121.811 21.5129 121.436 21.9906 120.359 21.9906C119.827 21.9906 119.403 21.8867 118.958 21.7207Z" fill="black"/>
</g>
<defs>
<clipPath id="clip0_3749_19972">
<rect width="127" height="22" fill="white"/>
</clipPath>
</defs>
</svg>
