<svg width="75" height="40" viewBox="0 0 75 40" fill="none" xmlns="http://www.w3.org/2000/svg">
<g clip-path="url(#clip0_3747_19509)">
<path d="M72.0912 34.9091C72.9936 36.1818 72.8131 37.8182 71.7302 38.7273C70.4668 39.6364 68.6619 39.4545 67.7594 38.3636L61.4424 30.1818L55.3058 38.1818C54.4034 39.4545 52.5985 39.4545 51.3351 38.5455C50.0716 37.6364 49.8912 36 50.7936 34.7273L58.0131 25.2727L50.7936 15.8182C49.8912 14.5455 50.2521 12.7273 51.3351 11.8182C52.5985 10.9091 54.4034 11.2727 55.3058 12.3636L61.4424 20.5455L67.7594 12.7273C68.6619 11.4545 70.2863 11.2727 71.7302 12.1818C72.9936 13.0909 72.9936 14.9091 72.0912 16.1818L65.0521 25.4545L72.0912 34.9091ZM39.2424 33.8182C34.5497 33.8182 30.7594 30.1818 30.7594 25.4545C30.7594 20.9091 34.5497 17.0909 39.2424 17.0909C43.9351 17.0909 47.7253 20.9091 47.7253 25.4545C47.5448 30.1818 43.7546 33.8182 39.2424 33.8182ZM14.3351 33.8182C9.64238 33.8182 5.85213 30.1818 5.85213 25.4545C5.85213 20.9091 9.64238 17.0909 14.3351 17.0909C19.0277 17.0909 22.818 20.9091 22.818 25.4545C22.818 30.1818 19.0277 33.8182 14.3351 33.8182ZM39.2424 11.6364C34.0082 11.6364 29.3155 14.5455 26.9692 18.9091C24.6229 14.5455 19.9302 11.6364 14.5155 11.6364C11.2668 11.6364 8.37896 12.7273 6.03262 14.3636V2.72727C6.03262 1.27273 4.76921 0 3.3253 0C1.70091 0 0.4375 1.27273 0.4375 2.72727V25.6364C0.617988 33.2727 6.75457 39.2727 14.3351 39.2727C19.7497 39.2727 24.4424 36.1818 26.7887 31.8182C29.1351 36.1818 33.8277 39.2727 39.0619 39.2727C46.8229 39.2727 53.1399 33.0909 53.1399 25.2727C53.3204 17.8182 47.0034 11.6364 39.2424 11.6364Z" fill="#0071F7"/>
</g>
<defs>
<clipPath id="clip0_3747_19509">
<rect width="74" height="40" fill="white" transform="translate(0.4375)"/>
</clipPath>
</defs>
</svg>
