<svg width="101" height="30" viewBox="0 0 101 30" fill="none" xmlns="http://www.w3.org/2000/svg">
<g clip-path="url(#clip0_3749_19996)">
<mask id="mask0_3749_19996" style="mask-type:luminance" maskUnits="userSpaceOnUse" x="-847" y="-1264" width="998" height="1321">
<path d="M-846.911 56.6667H150.527V-1263.34H-846.911V56.6667Z" fill="white"/>
</mask>
<g mask="url(#mask0_3749_19996)">
<path d="M58.8827 15.8655C58.4508 15.1338 59.031 14.5188 59.031 14.5188L64.1225 9.14046C64.7027 8.52546 63.8666 8.52546 63.8666 8.52546H59.1125C58.2764 8.52546 57.7027 9.14713 57.7027 9.14713L52.9795 14.2638C52.4059 14.8838 52.4059 14.0305 52.4059 14.0305V2.84544C52.4059 1.99043 51.5714 1.99043 51.5714 1.99043H47.9647C47.1612 1.99043 47.1612 2.81211 47.1612 2.81211V26.2139C47.1612 27.0689 47.9972 27.0689 47.9972 27.0689H51.5681C52.3716 27.0689 52.3716 26.2472 52.3716 26.2472V22.1338C52.3716 21.2788 52.9812 20.6938 52.9812 20.6938L54.6648 19.0772L58.8925 26.3355C59.3195 27.0689 60.1556 27.0689 60.1556 27.0689H64.6669C65.5013 27.0689 65.0694 26.3372 65.0694 26.3372L58.8827 15.8655ZM43.4094 26.2139V9.34546C43.4094 8.49046 42.5733 8.49046 42.5733 8.49046H38.9649C38.1304 8.49046 38.1304 9.34546 38.1304 9.34546V26.2139C38.1304 27.0689 38.9649 27.0689 38.9649 27.0689H42.5733C43.4094 27.0689 43.4094 26.2139 43.4094 26.2139ZM43.2725 5.21711V2.8021C43.2725 2.8021 43.2725 1.97877 42.469 1.97877H38.9339C38.9339 1.97877 38.1304 1.97877 38.1304 2.8021V5.21711C38.1304 5.21711 38.1304 6.03878 38.9339 6.03878H42.469C42.469 6.03878 43.2725 6.03878 43.2725 5.21711ZM34.2385 26.2139V2.84544C34.2385 1.99043 33.4024 1.99043 33.4024 1.99043H29.7239C28.8878 1.99043 28.8878 2.84544 28.8878 2.84544V26.2139C28.8878 27.0689 29.7239 27.0689 29.7239 27.0689H33.4024C34.2385 27.0689 34.2385 26.2139 34.2385 26.2139ZM25.9672 25.2089C25.9672 25.2089 26.435 24.6572 25.8972 24.1772L22.9456 21.5538C24.2706 19.5505 25.0464 17.1322 25.0464 14.5305C25.0464 7.59879 19.5507 1.97877 12.7724 1.97877C5.99403 1.97877 0.499977 7.59879 0.499977 14.5305C0.499977 21.4622 5.99403 27.0805 12.7724 27.0805C15.2546 27.0805 17.5591 26.3222 19.4888 25.0289L22.7272 27.9055C22.7272 27.9055 23.2667 28.3855 23.7344 27.8339L25.9672 25.2089ZM19.8587 14.5305C19.8587 18.5322 16.6855 21.7755 12.7724 21.7755C8.85922 21.7755 5.68763 18.5322 5.68763 14.5305C5.68763 10.5288 8.85922 7.28379 12.7724 7.28379C16.6855 7.28379 19.8587 10.5288 19.8587 14.5305Z" fill="#54565B"/>
<path d="M99.8096 25.4684L95.8687 22.0868C97.2427 19.8634 98.0413 17.2301 98.0413 14.4051C98.0413 6.45003 91.7356 0 83.9565 0C76.1775 0 69.8702 6.45003 69.8702 14.4034C69.8702 22.3584 76.1775 28.8084 83.9565 28.8084C86.9749 28.8084 89.7684 27.8351 92.0615 26.1834L96.2648 29.7901C96.2648 29.7901 96.889 30.3251 97.4138 29.6868L99.9107 26.6434C99.9107 26.6434 100.435 26.0051 99.8096 25.4684ZM92.6108 14.4051C92.6108 19.2934 88.7367 23.2551 83.9565 23.2551C79.1763 23.2551 75.3007 19.2934 75.3007 14.4034C75.3007 9.5167 79.1763 5.55335 83.9565 5.55335C88.7367 5.55335 92.6108 9.5167 92.6108 14.4051Z" fill="#009C4D"/>
<path d="M78.4079 14.4038C78.4079 11.2704 80.8917 8.73044 83.9557 8.73044C87.0198 8.73044 89.5036 11.2704 89.5036 14.4038C89.5036 17.5371 87.0198 20.0788 83.9557 20.0771C80.8917 20.0771 78.4079 17.5371 78.4079 14.4038Z" fill="#54565B"/>
<path d="M97.4327 4.25002C97.4327 3.38168 98.1254 2.68168 98.9663 2.68168C99.8155 2.68168 100.5 3.39002 100.5 4.25002C100.5 5.11002 99.8155 5.81836 98.9663 5.81836C98.1254 5.81836 97.4327 5.11002 97.4327 4.25002ZM98.9663 2.89168C98.2411 2.89168 97.6788 3.49502 97.6788 4.25002C97.6788 5.00836 98.2329 5.60836 98.9663 5.60836C99.6997 5.60836 100.254 5.00836 100.254 4.25002C100.254 3.49502 99.6997 2.89168 98.9663 2.89168ZM98.6143 5.20169H98.4089V3.29002H99.0853C99.4096 3.29002 99.659 3.45668 99.659 3.81835C99.659 4.12002 99.4993 4.32169 99.2157 4.35002L99.7421 5.20169H99.4879L98.9908 4.35002H98.6143V5.20169ZM98.6143 4.16669H99.0364C99.2825 4.16669 99.4536 4.11169 99.4536 3.81835C99.4536 3.57002 99.2695 3.47502 99.0364 3.47502H98.6143V4.16669Z" fill="#54565B"/>
</g>
</g>
<defs>
<clipPath id="clip0_3749_19996">
<rect width="100" height="30" fill="white" transform="translate(0.5)"/>
</clipPath>
</defs>
</svg>
